<?xml version="1.0" encoding="iso-8859-1"?>
<!-- Uploaded to: SVG Repo, www.svgrepo.com, Generator: SVG Repo Mixer Tools -->
<svg height="800px" width="800px" version="1.1" id="Layer_1" xmlns="http://www.w3.org/2000/svg" xmlns:xlink="http://www.w3.org/1999/xlink" 
	 viewBox="0 0 511.999 511.999" xml:space="preserve">
<g>
	<path style="fill:#FFF3E6;" d="M500.271,251.104c3.381,22.059-5.632,44.192-23.445,57.643L342.767,409.983h-45.216L419.61,103.477
		C461.924,140.928,491.321,192.651,500.271,251.104z"/>
	<path style="fill:#FFF3E6;" d="M419.61,103.477L297.551,409.983h-41.909V41.376C318.532,41.376,375.94,64.832,419.61,103.477z"/>
</g>
<path style="fill:#F0C419;" d="M343.125,409.983v21.291c0,21.728-17.611,39.349-39.349,39.349h-95.552
	c-21.739,0-39.349-17.621-39.349-39.349v-21.291h45.216H256h41.909H343.125z"/>
<g>
	<path style="fill:#FFF3E6;" d="M255.642,41.376v368.607h-41.909L91.685,103.499l-0.011-0.021
		C135.343,64.832,192.751,41.376,255.642,41.376z"/>
	<path style="fill:#FFF3E6;" d="M92.043,103.499l122.048,306.485h-45.216L34.817,308.746
		c-17.813-13.451-26.827-35.584-23.445-57.643c8.949-58.453,38.347-110.176,80.661-147.626L92.043,103.499z"/>
</g>
<path d="M353.791,431.273v-15.979l129.821-98.035c20.979-15.843,31.539-41.811,27.56-67.769
	c-9.083-59.328-38.962-114.02-84.136-154.001C379.832,53.715,319.09,30.71,255.999,30.71S132.168,53.714,84.963,95.489
	C39.79,135.47,9.91,190.162,0.827,249.488c-3.979,25.96,6.581,51.928,27.56,67.771l129.821,98.036v15.98
	c0,27.579,22.436,50.016,50.016,50.016h95.552C331.355,481.289,353.791,458.853,353.791,431.273z M490.085,252.72
	c2.789,18.198-4.617,36.404-19.329,47.515L339.55,399.317h-25.912l110.427-277.301C459.264,157.491,482.528,203.359,490.085,252.72z

	 M266.667,399.316v-241.45c0-5.891-4.777-10.667-10.667-10.667c-5.89,0-10.667,4.775-10.667,10.667v241.45h-24.01L104.769,106.624
	c39.71-32.977,89.015-52.027,140.564-54.341v36.25c0,5.891,4.777,10.667,10.667,10.667c5.89,0,10.667-4.775,10.667-10.667v-36.25
	c51.55,2.315,100.856,21.366,140.566,54.343l-116.557,292.69H266.667z M21.914,252.718c7.556-49.36,30.821-95.228,66.02-130.704
	l110.428,277.302H172.45L41.244,300.233C26.532,289.124,19.125,270.917,21.914,252.718z M179.542,431.273v-10.624h34.517
	c0.012,0,0.023,0.002,0.035,0.002c0.018,0,0.037-0.002,0.055-0.002h83.701c0.018,0,0.037,0.002,0.055,0.002
	c0.012,0,0.023-0.002,0.035-0.002h34.517v10.624c0,15.815-12.867,28.683-28.683,28.683h-95.552
	C192.408,459.956,179.542,447.088,179.542,431.273z"/>
<path d="M256,109.866c-5.89,0-10.667,4.775-10.667,10.667v3.733c0,5.891,4.777,10.667,10.667,10.667
	c5.89,0,10.667-4.775,10.667-10.667v-3.733C266.667,114.641,261.89,109.866,256,109.866z"/>
</svg>
