<svg class="svg-icon" style="width: 1em; height: 1em;vertical-align: middle;fill: currentColor;overflow: hidden;" viewBox="0 0 1024 1024" version="1.1" xmlns="http://www.w3.org/2000/svg"><path d="M887 130.61l-18.19-8c-0.9-0.39-22.15-9.71-46.36-18.17-48-16.75-64.47-15.17-74.28-11.4l-67 28.4c-21.22 7.37-41.41 19.88-60 37.21-25 23.26-42.41 50.73-52.61 69.67A235.77 235.77 0 0 0 558 250.17c-28.16 66.85-58 129.49-88.76 186.2-36.1 66.57-74.37 126.75-113.74 178.87C255.17 748 170.05 800.17 124.31 828.21c-27.24 16.7-43.69 26.78-44 45.64-0.21 17.62 15.91 28.15 22.8 32.65 22 14.37 50 23.61 81 26.72q12 1.2 24.32 1.2c25.9 0 52.82-4 80.31-11.9 63.1-18.17 124-55.28 180.89-110.31 66-63.79 124.17-149.79 172.9-255.6 4.89-10 87.4-181 86.64-312.38 0.38-5.3 0.59-11.14 0.81-17.3 0.82-22.82 2.2-61 16.83-70.85 0.09-0.06 10.29-5.61 49.5 8.41a397.52 397.52 0 0 1 44.3 19.26l19.1 10z m-197 94.88c-0.22 6.09-0.42 11.84-0.78 16.57l-0.06 0.84v0.84c1 123-81.82 293.79-82.65 295.49l-0.21 0.44C491 790.22 350.9 863 277.68 884.08c-58.13 16.74-114.42 13-151.09-10 5.23-3.52 12.18-7.78 18.63-11.73 48-29.41 137.3-84.17 242.17-223 40.57-53.71 79.93-115.59 117-183.92 31.39-57.89 61.84-121.77 90.52-189.87l0.13-0.32a198.46 198.46 0 0 1 8.68-17.94c8.78-16.29 23.65-39.82 44.65-59.36 14.68-13.66 30.3-23.38 46.41-28.88l0.68-0.23 4.06-1.72c-7.82 21.67-8.75 47.4-9.52 68.38z" fill="#333333" /><path d="M309.999722 812.978663a45.28 51.71 45 1 0 73.128983-73.128983 45.28 51.71 45 1 0-73.128983 73.128983Z" fill="#333333" /><path d="M417.305982 699.813519a45.28 51.71 38.59 1 0 64.507521-80.836108 45.28 51.71 38.59 1 0-64.507521 80.836108Z" fill="#333333" /><path d="M516.295212 564.753774a45.28 51.71 33.13 1 0 56.52322-86.607286 45.28 51.71 33.13 1 0-56.52322 86.607286Z" fill="#333333" /><path d="M744.249155 589.220849a51.71 45.28 30.95 1 0 46.57409-77.665744 51.71 45.28 30.95 1 0-46.57409 77.665744Z" fill="#333333" /><path d="M871.249186 675.212903a51.71 45.28 30.95 1 0 46.57409-77.665744 51.71 45.28 30.95 1 0-46.57409 77.665744Z" fill="#333333" /><path d="M592.170199 420.477739a45.28 51.71 24.4 1 0 42.72326-94.182904 45.28 51.71 24.4 1 0-42.72326 94.182904Z" fill="#333333" /><path d="M716.252988 730.209616a51.71 45.28 30.95 1 0 46.57409-77.665743 51.71 45.28 30.95 1 0-46.57409 77.665743Z" fill="#333333" /></svg>
