<svg class="svg-icon" style="width: 1em; height: 1em;vertical-align: middle;fill: currentColor;overflow: hidden;" viewBox="0 0 1024 1024" version="1.1" xmlns="http://www.w3.org/2000/svg"><path d="M153.088 689.152c-16.896-16.896-13.312-44.544 6.656-57.344 67.584-41.984 214.016-118.784 346.624-102.912 262.144 31.232 333.824 179.712 333.824 230.912 2.56 15.872-252.416 53.248-333.824 51.2-8.192 0-24.064 3.072-25.6 0-1.024-2.048 10.752-1.536 0 0-14.336 2.048-55.808 5.632-76.8 0-41.984-11.264-109.056-32.768-138.24-50.176-25.088-14.848-41.472-26.624-41.472-26.624l-51.2-25.6-19.968-19.456z" fill="#FFC678" /><path d="M436.736 821.76c-137.216-21.504-259.584-104.448-300.544-134.656-6.144-4.608-9.216-11.264-9.728-18.432 0-7.168 3.072-14.336 8.704-18.944 192.512-155.648 424.448-143.872 533.504-97.792 120.32 50.688 183.808 207.36 186.368 214.016l3.584 8.704-9.216 2.048c-1.024 0-95.744 20.992-304.64 47.616-35.84 4.608-72.192 3.072-108.032-2.56z m141.312-278.528c-117.248-18.432-286.208 0.512-432.64 118.784-2.048 1.536-3.072 4.096-3.072 6.144 0 1.536 0.512 4.096 3.072 6.144 50.176 36.864 226.816 156.16 397.312 134.144 171.52-22.016 265.728-39.936 293.888-45.568-15.36-33.792-75.776-155.136-174.08-196.608-22.528-9.728-51.2-17.408-84.48-23.04z" fill="#F49C4D" /><path d="M582.656 737.28l223.232 11.264c16.384 1.024 18.944-22.528 3.072-25.6-1.024 0-2.048-0.512-3.072-0.512l-76.288 2.56h-2.048l-192.512-24.576-79.872-10.24-64.512-8.192h-1.024l-135.68-5.632h-1.024L137.216 660.48c-3.072 5.632-2.56 12.8 1.536 17.92l95.232 8.192h1.024l346.624 50.688h1.024z" fill="#F49C4D" /><path d="M256.512 627.712l76.8-16.896h1.024l117.248 18.432c0.512 0 0.512 0 1.024 0.512 4.608 2.56 45.568 25.088 93.696 14.336 51.2-11.264 144.896 23.04 144.896 23.04l55.296 20.48c3.072 1.024 2.56 5.12-0.512 6.144l-23.552 5.12h-1.536l-77.824-25.088c-1.536-0.512-49.664-12.288-90.112-5.632-40.448 7.168-107.52-10.24-109.056-10.752-2.048-0.512-82.944-27.648-93.184-20.992-7.168 4.608-62.976 0.512-93.696-2.048-3.584-0.512-4.096-5.632-0.512-6.656zM372.224 578.56l21.504-4.608h0.512l89.6-1.536c0.512 0 1.024 0 1.536 0.512 5.12 2.56 34.816 18.432 69.632 10.752 36.864-8.192 101.376 29.696 105.984 32.256h0.512l48.64 17.92-25.088 5.632h-1.536l-57.856-18.944c-0.512 0-0.512 0-1.024-0.512-3.584-2.56-35.84-24.576-64.512-19.456-29.184 5.12-76.288-6.656-81.408-8.192h-1.024c-5.632 0-65.536 3.072-72.704 7.68-5.632 3.584-24.576-9.216-33.792-16.384-2.048-1.024-1.536-4.608 1.024-5.12z" fill="#FFB961" /><path d="M265.728 621.056l76.8-16.896h1.024l117.248 18.432c0.512 0 0.512 0 1.024 0.512 4.608 2.56 45.568 25.088 93.696 14.336 51.2-11.264 144.896 23.04 144.896 23.04l55.296 20.48c3.072 1.024 2.56 5.12-0.512 6.144l-23.552 5.12h-1.536l-77.824-25.088c-1.536-0.512-49.664-12.288-90.112-5.632-40.448 7.168-107.52-10.24-109.056-10.752-2.048-0.512-82.944-27.648-93.184-20.992-7.168 4.608-62.976 0.512-93.696-2.048-4.096-0.512-4.096-5.632-0.512-6.656zM381.44 571.904l21.504-4.608h0.512l89.6-1.536c0.512 0 1.024 0 1.536 0.512 5.12 2.56 34.816 18.432 69.632 10.752 36.864-8.192 101.376 29.696 105.984 32.256h0.512l48.64 17.92-25.088 5.632h-1.536L634.88 614.4c-0.512 0-0.512 0-1.024-0.512-3.584-2.56-35.84-24.576-64.512-19.456-29.184 5.12-76.288-6.656-81.408-8.192h-1.024c-5.632 0-65.536 3.072-72.704 7.68-5.632 3.584-24.576-9.216-33.792-16.384-2.56-1.536-1.536-5.12 1.024-5.632z" fill="#FCDC9D" /><path d="M284.672 725.504c-1.536-1.536-4.096-1.024-5.12 1.024-2.56 6.656-3.584 20.48 24.576 25.088l134.656 20.992h0.512l72.704-1.024h0.512l100.864 15.872h1.536l35.84-12.8c3.072-1.024 2.56-6.144-1.024-6.144l-89.088-3.584-181.248-20.992H378.88c-5.12 0-70.144 2.048-94.208-18.432z" fill="#FFB961" /><path d="M285.696 717.824c-1.536-1.536-4.096-1.024-5.12 1.024-2.56 6.656-3.584 20.48 24.576 25.088l134.656 20.992h0.512l72.704-1.024h0.512l100.864 15.872h1.536l35.84-12.8c3.072-1.024 2.56-6.144-1.024-6.144l-89.088-3.584-181.248-20.992h-0.512c-4.608 0-70.144 2.048-94.208-18.432z" fill="#FCDC9D" /><path d="M527.872 138.752c-26.112 18.432-46.08 54.784-58.368 79.872-18.432 38.912-28.16 81.92-34.304 124.416-24.576 170.496 7.68 354.304 115.2 488.448 12.288 14.848 25.088 29.184 40.96 39.936 16.384 10.752 35.84 17.408 55.296 20.992 83.968 15.872 176.128-26.624 218.624-100.864 41.984-73.216 36.352-164.352 14.848-245.76-35.84-137.216-113.664-263.168-219.648-356.864-26.112-23.04-76.8-70.144-114.176-59.392-6.656 2.048-12.288 5.12-18.432 9.216z" fill="#FFCB80" /><path d="M674.816 892.416c-19.456-3.584-38.4-10.24-55.296-20.992-15.872-10.752-29.184-25.088-40.96-39.936-108.032-134.144-139.776-317.952-115.2-488.448 6.144-43.008 15.872-85.504 34.816-124.416 12.288-24.576 32.256-61.44 58.368-79.872 5.12-3.584 10.752-6.656 16.896-8.704-9.216-2.56-18.432-3.072-26.624-0.512-6.144 2.048-12.288 5.12-18.432 9.216-26.112 18.432-46.08 54.784-58.368 79.872-18.944 38.912-28.672 81.92-34.816 124.416-24.576 170.496 7.68 354.304 115.2 488.448 12.288 14.848 25.088 29.184 40.96 39.936 16.384 10.752 35.84 17.408 55.296 20.992 16.384 3.072 33.28 4.096 50.176 2.56-7.168-0.512-14.336-1.024-22.016-2.56z" fill="#F49C4D" /><path d="M865.792 791.552c10.24-17.92 17.408-36.864 22.528-56.32-123.904 43.52-62.464 120.832-254.976 154.112 4.608 1.024 8.704 2.048 13.312 3.072 84.48 15.872 176.128-26.624 219.136-100.864z" fill="#E5913E" /><path d="M500.224 306.688s-18.432 65.536-11.776 135.168c6.656 69.12 38.4 183.808 39.424 186.368l41.472 101.376 33.792 68.096s0 0.512 0.512 0.512l59.392 60.416c1.024 1.024 3.072 1.024 4.096-1.024l6.144-16.384c0.512-0.512 0-1.536 0-2.048-7.68-11.776-89.088-136.192-119.296-216.064-31.744-83.968-38.4-234.496-38.4-234.496l-4.608-82.944c-1.024 1.024-7.68-10.752-10.752 1.024z" fill="#FFB961" /><path d="M548.864 324.608v1.024c0.512 8.704 11.264 163.84 27.648 194.048 16.384 31.744 45.056 97.28 45.056 97.28s34.816 113.152 62.976 138.24c72.192 65.536 16.384-9.728 16.384-9.728s-68.608-131.072-69.632-174.592c-0.512-16.896-30.72-53.248-35.328-59.392-0.512-0.512-0.512-1.024-0.512-1.536L573.44 343.04v-0.512l-17.92-54.784-6.656 36.864zM688.64 379.392c0.512 0.512 0.512 1.024 0.512 1.536 4.608 15.872 74.752 264.192 78.336 336.384 4.096 74.752 36.352-121.344 10.24-217.6-24.576-89.6-92.16-200.704-101.376-216.064-0.512-1.024-1.536-2.048-3.072-2.56l-45.056-17.92c-5.632-2.048-10.752 4.096-7.68 9.216l68.096 107.008zM797.184 471.04c-19.456-26.112-26.112-109.056-28.672-148.48 0-4.096 5.12-5.12 6.656-1.536l48.128 126.976v0.512l14.336 66.048s32.768 144.384 25.088 161.792-39.936-170.496-65.536-205.312z" fill="#FFB961" /><path d="M490.496 306.688s-18.432 65.536-11.776 135.168c6.656 69.12 38.4 183.808 39.424 186.368l41.472 101.376 33.792 68.096s0 0.512 0.512 0.512l59.392 60.416c1.024 1.024 3.072 1.024 4.096-1.024l6.144-16.384c0.512-0.512 0-1.536 0-2.048-7.68-11.776-89.088-136.192-119.296-216.064-31.744-83.968-38.4-234.496-38.4-234.496l-4.608-82.944c-0.512 1.024-7.68-10.752-10.752 1.024z" fill="#FCDC9D" /><path d="M539.648 324.608v1.024c0.512 8.704 11.264 163.84 27.648 194.048 16.384 31.744 45.056 97.28 45.056 97.28s34.816 113.152 62.976 138.24c72.192 65.536 16.384-9.728 16.384-9.728s-68.608-131.072-69.632-174.592c-0.512-16.896-30.72-53.248-35.328-59.392-0.512-0.512-0.512-1.024-0.512-1.536L564.224 343.04v-0.512l-17.92-54.784-6.656 36.864zM677.888 378.88c0.512 0.512 0.512 1.024 0.512 1.536 4.608 15.872 74.752 264.192 78.336 336.384 4.096 74.752 36.352-121.344 10.24-217.6-24.576-89.6-92.16-200.704-101.376-216.064-0.512-1.024-1.536-2.048-3.072-2.56l-45.056-17.92c-5.632-2.048-10.752 4.096-7.68 9.216L677.888 378.88zM787.456 470.528c-19.456-26.112-26.112-109.056-28.672-148.48 0-4.096 5.12-5.12 6.656-1.536l48.128 126.976v0.512l14.336 66.048s32.768 144.384 25.088 161.792c-7.168 17.92-39.424-170.496-65.536-205.312z" fill="#FCDC9D" /><path d="M728.576 636.928s-59.392-65.024-59.904-123.392c-0.512-95.232-41.472-166.4-37.888-152.576 5.632 20.48 9.728 154.112 9.728 154.112s13.312 90.624 88.064 121.856z" fill="#FFB961" /><path d="M723.456 640s-59.392-65.024-59.904-123.392c-0.512-95.232-41.472-166.4-37.888-152.576 5.632 20.48 9.728 154.112 9.728 154.112s12.8 90.624 88.064 121.856z" fill="#FCDC9D" /></svg>
