<svg class="svg-icon" style="width: 1em;height: 1em;vertical-align: middle;fill: currentColor;overflow: hidden;" viewBox="0 0 1024 1024" version="1.1" xmlns="http://www.w3.org/2000/svg"><path d="M510.8 510.9m-449.6 0a449.6 449.6 0 1 0 899.2 0 449.6 449.6 0 1 0-899.2 0Z" fill="#4B3831" /><path d="M928 513.2c0 230.4-186.8 417.2-417.2 417.2S93.6 743.6 93.6 513.2 280.4 96 510.8 96c69.8 0 135.6 17.1 193.4 47.4 20.1 10.6 0.8 69.8 18.9 83.4 15.5 11.7 68.6-22.7 82.3-9.1C881.1 293.3 928 397.8 928 513.2z" fill="#FFFFFF" /><path d="M874 513.2c0 200.6-162.6 363.2-363.2 363.2S147.6 713.8 147.6 513.2 310.2 150 510.8 150c60.7 0 118 14.9 168.3 41.3 17.5 9.2 0.7 60.7 16.4 72.6 13.5 10.1 59.7-19.8 71.6-7.9C833.2 321.7 874 412.7 874 513.2z" fill="#CCCCCC" /><path d="M313.1 735c0 30.4 5.8 61.8 16.6 93.1 53.3 30.7 115.1 48.3 181.1 48.3 200.6 0 363.2-162.6 363.2-363.2 0-16.8-1.1-33.4-3.4-49.6-21.9-2.6-44.4-4-67.3-4-247.6 0.1-490.2 79.6-490.2 275.4z" fill="#E6E6E6" /></svg>
