<?xml version="1.0" encoding="utf-8"?>
<!-- Generator: Adobe Illustrator 24.3.0, SVG Export Plug-In . SVG Version: 6.00 Build 0)  -->
<svg version="1.1" id="Layer_1" xmlns="http://www.w3.org/2000/svg" xmlns:xlink="http://www.w3.org/1999/xlink" x="0px" y="0px"
	 viewBox="0 0 1024 1024" style="enable-background:new 0 0 1024 1024;" xml:space="preserve">
<style type="text/css">
	.st0{fill:#F7E7DC;}
	.st1{fill:#FFFFFF;}
	.st2{fill:#D6C3B8;}
	.st3{fill:#82756F;}
	.st4{fill:#695F5C;}
	.st5{fill:#C7B4A7;}
	.st6{fill:#5F4765;}
	.st7{fill:#B8ABA6;}
</style>
<path class="st0" d="M789.9,374c0-3.6-0.4-7.2-1.3-10.6c-2,0.1-4,0.3-5.9,0.6C626,392,407.7,560.7,399.5,688
	c-2.4,36.8,9.2,66.7,45.6,99.8l9.3,7.9c28.9,16.4,55.1,19.3,83.4,12.5C661.9,778.1,789.5,533.2,789.9,374"/>
<path class="st1" d="M685.1,475.6c3.8-8.2-5.7-16.1-13-10.8l-17.6,12.7c-6.8,4.9-15.5,6.4-23.5,4c-9.6-2.9-19.9-0.2-26.9,7
	l-138.5,155c-17.9,20.1-15.9,50.9,4.5,68.5l1.5,1.3c20.4,17.5,51.2,14.9,68.4-5.8l132.4-160.2c6-8,7.1-18.6,2.8-27.6v0
	c-3.6-7.6-3.4-16.4,0.4-23.8L685.1,475.6L685.1,475.6z"/>
<path class="st2" d="M491.6,245c-10.3,0-20.2,3.6-28,10.3C342,358,237.6,613.4,294.3,727.7c3.7,7.5,7.9,14.3,12.6,20.5
	c9.6,4,20.4,7.3,32.8,10l38.2,6.7c48.7,6.6,80.2-3.6,106.9-29C574.7,650,565.4,386.2,491.6,245"/>
<path class="st3" d="M456.1,732.1c61.9-88.3,66.3-344.9,24.8-485.7C475.5,228,466.1,221,461,226c-63.3,61.9-112.9,139.4-147,249
	c-28,90-22.3,194.1-12.9,225.6c9.8,32.5,25.7,51.7,57.4,60.1l25.2,5.1C416,770.4,437.4,758.8,456.1,732.1"/>
<path class="st4" d="M508.3,429c3.9,0.5,7,3.8,7.3,7.7c1.3,43.8,0.1,87.9-4.5,131.4c-0.7,6.3-3.8,10.9-9.5,10.1
	c-3.6-0.5-6.6-3.8-6.8-7.5c-0.1-2.3,0.2-2.9,0.4-4.2c4.4-42.2,5.6-84.6,4.5-127.1l-0.1-2.8C500,432.3,503.8,428.8,508.3,429
	L508.3,429z"/>
<path class="st5" d="M549.3,444.9c2.5,1,3.4,1,5.3,3.2c3.3,3.8,3,12,3.4,19.3c4.3,63.7,1.4,128.3-17.6,189.5
	c-12.8,41.1-33.1,80.7-71.7,103.7l-2.9,1.2c-2.7,0.2-3.5,0.6-6.2-0.6c-5.6-2.4-7.9-10.8-3.6-15.8c2.1-2.4,5.1-3.6,7.7-5.4
	c31-21.3,48.4-57.9,58.9-93.7c18-61.3,19.7-127.2,14.3-190.8l0.2-3.1c0.4-1,0.6-2,1.2-2.9c1.1-1.8,2.7-3.2,4.7-4
	C545,444.6,547.2,444.8,549.3,444.9L549.3,444.9z"/>
<path class="st6" d="M448.1,202c17.9,0.2,35.3,9.8,44.8,24.9c5,7.9,9.1,16.3,13.1,24.8c22.2,46.2,35.6,96.7,44,147.3l0.3,1.6
	c54.7-35.1,114-64.6,178.3-77.8c5.4-1.1,10.8-2.3,16.3-2.4c21.2-0.5,42.1,12.8,50.5,32.3c4.7,10.8,4.6,22.8,4.1,35
	c-3.1,70.1-24.6,138.7-53.4,202.5c-26.9,59.6-61,116.5-106.1,163.2c-34.2,35.5-76,66.4-125.9,68.1c-32.2,1.1-63.2-13.5-89.7-34
	l-12.9-10.8l-1,0c-11.4,0.4-22.9-0.5-34.2-2l-38.6-6.8c-25.4-5.5-50.3-14.8-69.6-32.4c-24.1-21.9-37-54-41.6-86.7
	c-5.6-40.3-0.5-81.7,8.8-121.9c12.8-55.4,33.9-108.6,60.6-159l1.9-2.5c2.2-1.6,2.7-2.3,5.6-2.7c6.1-0.9,12.4,5.2,11.2,11.6
	c-0.6,3.5-2.8,6.3-4.5,9.5c-29.6,57.3-52.6,118.9-62,182.8c-6.7,45.7-7.4,94.6,16.8,133.6c8.2,13.2,19.6,24.4,33.1,32.2
	c13.3,7.6,28.2,12.3,43.2,15.6l0.4,0.1l37.7,6.6c11.5,1.5,23.3,2.3,35,1.5l2.5,0.2c2.4,0.8,2.4,0.8,4.5,2.2l15.6,13.1
	c21.8,16.8,47.4,30.3,75.4,29.6c32.7-0.7,63.4-18,88.6-39c31.3-26,56.9-58.5,79.3-92.8c43.2-66.5,74.9-141.2,90.7-218
	c5.1-24.7,8.5-49.8,8.8-75c0.1-8.2-1.8-16.4-6.6-22.8c-7.7-10.3-21.4-15.1-34.2-12.8c-46.5,8.6-91.1,27.2-133.2,49.9
	c-19.7,10.6-38.9,22.3-57.4,34.8l-2.6,1.2c-2.5,0.4-3.2,0.8-5.7,0.1c-4.2-1.2-6.6-4.2-7.6-11.4c-8.8-60.6-24.1-120.1-53.5-172.9
	c-2.2-4-4.6-8-7.8-11.2c-11.7-11.4-31.9-12.6-45-1.8c-24.1,20.2-44.6,43.9-63.2,69l-2.2,2.2c-2.4,1.2-3.1,1.9-5.9,1.9
	c-6.2-0.1-11.5-7-9.4-13.2c0.3-1,0.9-1.9,1.4-2.8c1.8-2.4,3.6-4.8,5.4-7.1c17.8-23.2,37.1-44.9,59.7-64.2
	c9.9-8.4,22.3-13.4,35.4-13.6L448.1,202L448.1,202z"/>
<path class="st7" d="M421.8,358c0.9,0.1,1.1,0.1,2,0.2c10.2,1.5,18.2,11.8,17,22.1c-0.9,7.5-6.5,13.3-10.7,20.5
	c-15.9,27.1-29.3,55.8-40.6,84.9c-3.8,9.8-7.4,19.8-9.9,30l-0.4,1.8c-2.2,7-8,12.5-15.1,14c-8.4,1.8-17.7-2.5-21.8-10.1
	c-3.8-7-1.7-15.4,0.7-23.8c6.1-21,14.8-41.1,23.9-61c9.7-21.2,20-42.3,32.3-62.1c1.7-2.8,3.5-5.5,5.4-8.1c0,0,1.9-2.5,3.7-4
	C412.2,359.4,417,357.9,421.8,358L421.8,358z"/>
</svg>
