<svg class="svg-icon" style="width: 1em; height: 1em;vertical-align: middle;fill: currentColor;overflow: hidden;" viewBox="0 0 1024 1024" version="1.1" xmlns="http://www.w3.org/2000/svg"><path d="M789.872 373.991a43.404 43.404 0 0 0-1.311-10.64 43.313 43.313 0 0 0-5.929 0.628c-156.678 27.994-374.961 196.705-383.093 324.059-2.351 36.803 9.221 66.703 45.552 99.762l9.348 7.851c28.895 16.373 55.062 19.329 83.384 12.474 124.038-30.019 251.637-274.914 252.049-434.134" fill="#F7E7DC" /><path d="M685.077 475.626c3.841-8.157-5.701-16.073-13.009-10.792l-17.64 12.746a26.785 26.785 0 0 1-23.483 4.009 26.79 26.79 0 0 0-26.897 6.971L465.56 643.528c-17.929 20.063-15.894 50.935 4.513 68.471l1.517 1.303c20.407 17.536 51.235 14.902 68.371-5.843l132.362-160.231a26.792 26.792 0 0 0 2.843-27.64v-0.001a26.784 26.784 0 0 1 0.43-23.818l9.481-20.143z" fill="#FFFFFF" /><path d="M491.563 245.03a43.537 43.537 0 0 0-28.021 10.264C341.969 358.016 237.579 613.385 294.344 727.679c3.716 7.482 7.88 14.293 12.645 20.485 9.56 4.021 20.389 7.35 32.758 10.032l38.151 6.699c48.68 6.568 80.226-3.585 106.9-29.05 89.88-85.803 80.62-349.597 6.765-490.815" fill="#D6C3B8" /><path d="M456.133 732.115c61.915-88.343 66.349-344.923 24.779-485.741C475.488 228 466.098 221.01 461 226c-63.254 61.922-112.899 139.389-147 249-28 90-22.306 194.119-12.871 225.582 9.751 32.517 25.706 51.654 57.371 60.102l25.223 5.131c32.256 4.557 53.681-6.977 72.41-33.7" fill="#82756F" /><path d="M629 610a8 8 0 1 1-16 0 8 8 0 0 1 16 0" fill="#DBD3CE" /><path d="M502.868 626a8 8 0 1 1-16 0 8 8 0 0 1 16 0" fill="#695F5C" /><path d="M369 572c0 11.046-8.954 20-20 20s-20-8.954-20-20 8.954-20 20-20 20 8.954 20 20" fill="#B8ABA6" /><path d="M338 332c0 5.523-4.477 10-10 10s-10-4.477-10-10 4.477-10 10-10 10 4.477 10 10" fill="#5F4765" /><path d="M677.408 455.128c10.842 0.225 20.053 12.525 14.987 23.734l-9.621 20.443c-2.672 5.191-2.877 11.337-0.495 16.606l0.887 2.001c0.203 0.498 0.202 0.498 0.402 1.03 4.034 10.989 2.242 23.634-4.968 33.251l-27.456 32.93c-1.306 1.452-1.833 1.705-2.831 2.159-4.617 2.101-11.008-1.324-11.302-6.858-0.105-1.992 0.613-3.953 1.844-5.547l27.19-32.611c3.999-5.432 4.794-12.92 1.962-19.101l-0.841-1.899a34.246 34.246 0 0 1-0.982-2.723c-2.701-8.59-1.878-18.172 2.196-26.233l0.038-0.075 9.412-19.997c0.305-0.649-0.416-1.353-1.009-0.966-10.592 7.078-20.083 16.775-32.073 18.91-7.299 1.3-15.217-1.623-21.193-1.721-5.046-0.083-10.066 1.967-13.66 5.563l-24.735 27.677s-4.545 3.729-8.748 2.169c-4.823-1.789-6.716-8.565-3.182-12.831l24.979-27.95c9.003-9.167 22.946-12.549 35.434-9.047 5.418 1.477 11.395 0.408 15.961-2.845 6.283-4.545 12.346-9.558 18.872-13.578a16.818 16.818 0 0 1 8.932-2.491zM597.386 630.009c5.759 0.406 9.842 7.709 6.004 12.804-0.071 0.094-0.146 0.185-0.219 0.278l-33 40c-3.347 3.879-10.291 3.503-12.995-0.915-1.727-2.823-1.376-6.693 0.653-9.267l33-40c1.562-1.81 3.291-2.856 6.203-2.909l0.354 0.009z" fill="#DBD3CE" /><path d="M480.256 674.493c1.605 0.096 2.126 0.3 3.038 0.716 3.32 1.514 5.318 5.508 4.468 9.114-0.38 1.611-0.682 2.109-1.027 3.097-5.985 17.055-13.266 33.699-23.592 48.627-3.558 5.145-13.126 5.213-14.809-2.15-0.892-3.906 2.125-7.513 4.431-11.158 8.396-13.27 14.535-27.917 19.641-42.841 0 0 0.482-1.258 1.078-2.086a8.093 8.093 0 0 1 5.596-3.274c0.758-0.085 0.935-0.048 1.176-0.045zM508.341 429.038c3.903 0.515 6.992 3.76 7.272 7.727 1.318 43.79 0.087 87.914-4.47 131.39-0.663 6.315-3.824 10.902-9.454 10.064-3.61-0.538-6.614-3.824-6.81-7.485-0.122-2.272 0.212-2.928 0.351-4.247 4.397-42.207 5.647-84.637 4.452-127.135l-0.056-2.75c0.396-4.345 4.152-7.794 8.715-7.564z" fill="#695F5C" /><path d="M549.295 444.929c2.532 1.03 3.432 1.048 5.29 3.195 3.327 3.844 2.956 11.989 3.445 19.296 4.265 63.663 1.446 128.315-17.565 189.508-12.76 41.072-33.105 80.743-71.66 103.714l-2.905 1.161c-2.728 0.18-3.545 0.557-6.154-0.562-5.634-2.416-7.931-10.813-3.582-15.779 2.102-2.4 5.087-3.592 7.719-5.396 31.016-21.261 48.381-57.924 58.887-93.723 17.999-61.329 19.722-127.159 14.29-190.825l0.225-3.121c0.393-0.966 0.639-2.005 1.178-2.898a10.003 10.003 0 0 1 4.674-4.045c1.91-0.806 4.065-0.676 6.158-0.525z" fill="#C7B4A7" /><path d="M448.117 202.022c17.938 0.219 35.27 9.801 44.836 24.932 4.978 7.874 9.098 16.32 13.142 24.762 22.153 46.245 35.636 96.651 44.018 147.262l0.255 1.557c54.651-35.121 113.969-64.576 178.298-77.822 5.394-1.11 10.803-2.261 16.289-2.396 21.216-0.525 42.073 12.799 50.517 32.318 4.656 10.762 4.616 22.825 4.074 35.047-3.113 70.079-24.594 138.703-53.353 202.527-26.851 59.591-61.017 116.51-106.08 163.234-34.208 35.468-75.998 66.367-125.894 68.07-32.242 1.101-63.18-13.495-89.741-34.013l-12.854-10.795-1.047 0.039c-11.385 0.368-22.875-0.45-34.206-1.964l-38.555-6.77c-25.39-5.536-50.258-14.829-69.59-32.413-24.05-21.876-37.047-53.954-41.565-86.678-5.564-40.296-0.494-81.664 8.752-121.853 12.751-55.424 33.888-108.634 60.594-158.969l1.881-2.5c2.238-1.57 2.741-2.317 5.552-2.714 6.132-0.868 12.377 5.209 11.25 11.629-0.615 3.511-2.808 6.341-4.453 9.515-29.614 57.29-52.638 118.947-62.032 182.829-6.724 45.73-7.398 94.621 16.783 133.64 8.21 13.248 19.597 24.44 33.148 32.203 13.302 7.621 28.152 12.291 43.191 15.607l0.351 0.076 37.748 6.628c11.522 1.54 23.323 2.279 34.954 1.519l2.534 0.158c2.406 0.788 2.419 0.795 4.549 2.163l15.565 13.072c21.794 16.836 47.413 30.261 75.404 29.634 32.729-0.733 63.352-17.966 88.638-38.982 31.304-26.019 56.935-58.466 79.255-92.835 43.175-66.482 74.856-141.218 90.744-218.011 5.112-24.704 8.484-49.789 8.783-75.048 0.097-8.164-1.832-16.38-6.605-22.805-7.655-10.302-21.399-15.145-34.246-12.801-46.493 8.601-91.083 27.242-133.184 49.928-19.71 10.621-38.866 22.278-57.408 34.775l-2.597 1.249c-2.493 0.401-3.193 0.79-5.703 0.084-4.166-1.173-6.604-4.196-7.645-11.419-8.803-60.582-24.149-120.126-53.486-172.947-2.234-4.023-4.582-7.984-7.834-11.16-11.69-11.418-31.926-12.591-44.969-1.801-24.113 20.234-44.58 43.912-63.214 69.044l-2.234 2.191c-2.448 1.218-3.057 1.88-5.896 1.853-6.193-0.06-11.458-7.003-9.383-13.182 0.332-0.989 0.935-1.865 1.447-2.774a554.936 554.936 0 0 1 5.372-7.136c17.759-23.19 37.067-44.869 59.735-64.202 9.867-8.415 22.317-13.448 35.382-13.557l0.733 0.002z" fill="#5F4765" /><path d="M421.807 358.016c0.913 0.061 1.144 0.058 2.05 0.189 10.159 1.466 18.232 11.754 17.005 22.142-0.884 7.482-6.49 13.253-10.72 20.48-15.865 27.102-29.326 55.809-40.606 84.894-3.814 9.832-7.404 19.772-9.867 30.004l-0.449 1.806c-2.199 6.96-8.012 12.536-15.069 14.034-8.406 1.783-17.717-2.544-21.776-10.111-3.768-7.025-1.716-15.433 0.742-23.82 6.146-20.974 14.754-41.144 23.868-61.028 9.719-21.204 19.977-42.255 32.292-62.058 1.716-2.759 3.492-5.482 5.401-8.111 0 0 1.887-2.483 3.736-3.98 3.738-3.027 8.558-4.511 13.393-4.441z" fill="#B8ABA6" /></svg>
