<svg class="svg-icon" style="width: 1em; height: 1em;vertical-align: middle;fill: currentColor;overflow: hidden;" viewBox="0 0 1024 1024" version="1.1" xmlns="http://www.w3.org/2000/svg"><path d="M736 635.2s134.4-11.2 132.8 160c0 0-30.4 44.8-52.8 60.8s-88 28.8-115.2 8c-28.8-20.8-147.2-145.6 35.2-228.8z" fill="#D28649" /><path d="M316.8 588.8c-8-3.2-14.4-6.4-20.8-11.2-9.6-8-27.2-16-48 9.6-28.8 35.2-17.6 46.4-6.4 57.6s211.2 81.6 211.2 81.6 176 46.4 187.2 86.4 41.6 124.8 81.6 100.8c16-11.2 4.8-43.2-30.4-72-33.6-27.2-38.4-54.4-38.4-54.4s43.2 8 57.6-16c14.4-22.4-12.8-68.8-12.8-68.8l78.4-99.2c4.8-6.4 4.8-14.4-1.6-20.8-4.8-4.8-16-6.4-35.2 3.2-11.2 4.8-20.8 12.8-30.4 22.4l-46.4 48c-1.6 0-264-40-345.6-67.2z" fill="#B46831" /><path d="M736 635.2s134.4-11.2 132.8 160c0 0-30.4 44.8-52.8 60.8s-88 28.8-115.2 8c-28.8-20.8-147.2-145.6 35.2-228.8zM563.2 212.8s102.4-128 211.2 0c9.6 14.4-12.8 44.8-12.8 56S740.8 352 673.6 368s-132.8-22.4-139.2-52.8c-3.2-32 28.8-102.4 28.8-102.4z" fill="#D28649" /><path d="M171.2 371.2c-8 3.2-17.6 3.2-25.6 3.2-12.8 0-33.6 3.2-38.4 33.6-8 43.2 6.4 46.4 22.4 48s230.4-57.6 230.4-57.6 182.4-64 211.2-40c28.8 24 99.2 72 123.2 32 9.6-17.6-17.6-36.8-62.4-38.4s-60.8-20.8-60.8-20.8 43.2-19.2 44.8-44.8c1.6-25.6-44.8-44.8-44.8-44.8l22.4-121.6c1.6-8-3.2-14.4-11.2-14.4s-17.6 3.2-30.4 22.4c-8 11.2-12.8 22.4-16 33.6l-19.2 64s-257.6 120-345.6 145.6z" fill="#B46831" /><path d="M704 257.6s102.4-128 211.2 0c9.6 14.4-12.8 44.8-12.8 56s-20.8 83.2-88 99.2-132.8-22.4-139.2-52.8c-3.2-30.4 28.8-102.4 28.8-102.4z" fill="#D28649" /><path d="M313.6 416c-8 3.2-17.6 3.2-25.6 3.2-12.8 0-33.6 3.2-38.4 33.6-8 43.2 6.4 46.4 22.4 48s230.4-57.6 230.4-57.6 182.4-64 211.2-40c28.8 24 99.2 72 123.2 32 9.6-17.6-17.6-36.8-62.4-38.4s-60.8-20.8-60.8-20.8 43.2-19.2 44.8-44.8c1.6-25.6-44.8-44.8-44.8-44.8l22.4-121.6c1.6-8-3.2-14.4-11.2-14.4s-17.6 3.2-30.4 22.4c-8 11.2-12.8 22.4-16 33.6l-19.2 64c-1.6 0-257.6 120-345.6 145.6z" fill="#B46831" /><path d="M704 257.6s102.4-128 211.2 0c9.6 14.4-12.8 44.8-12.8 56s-20.8 83.2-88 99.2-132.8-22.4-139.2-52.8c-3.2-30.4 28.8-102.4 28.8-102.4z" fill="#D28649" /><path d="M316.8 588.8c-8-3.2-14.4-6.4-20.8-11.2-9.6-8-27.2-16-48 9.6-28.8 35.2-17.6 46.4-6.4 57.6s211.2 81.6 211.2 81.6 176 46.4 187.2 86.4 41.6 124.8 81.6 100.8c16-11.2 4.8-43.2-30.4-72-33.6-27.2-38.4-54.4-38.4-54.4s43.2 8 57.6-16c14.4-22.4-12.8-68.8-12.8-68.8l78.4-99.2c4.8-6.4 4.8-14.4-1.6-20.8-4.8-4.8-16-6.4-35.2 3.2-11.2 4.8-20.8 12.8-30.4 22.4l-46.4 48c-1.6 0-264-40-345.6-67.2zM313.6 416c-8 3.2-17.6 3.2-25.6 3.2-12.8 0-33.6 3.2-38.4 33.6-8 43.2 6.4 46.4 22.4 48s230.4-57.6 230.4-57.6 182.4-64 211.2-40c28.8 24 99.2 72 123.2 32 9.6-17.6-17.6-36.8-62.4-38.4s-60.8-20.8-60.8-20.8 43.2-19.2 44.8-44.8c1.6-25.6-44.8-44.8-44.8-44.8l22.4-121.6c1.6-8-3.2-14.4-11.2-14.4s-17.6 3.2-30.4 22.4c-8 11.2-12.8 22.4-16 33.6l-19.2 64c-1.6 0-257.6 120-345.6 145.6z" fill="#B46831" /></svg>
