<?xml version="1.0" encoding="utf-8"?>
<!-- Generator: Adobe Illustrator 24.3.0, SVG Export Plug-In . SVG Version: 6.00 Build 0)  -->
<svg version="1.1" id="Layer_1" xmlns="http://www.w3.org/2000/svg" xmlns:xlink="http://www.w3.org/1999/xlink" x="0px" y="0px"
	 viewBox="0 0 485 434" style="enable-background:new 0 0 485 434;" xml:space="preserve">
<style type="text/css">
	.st0{fill:#DCD3D3;}
	.st1{fill:#864360;}
	.st2{fill:#F2D5DF;}
	.st3{fill:#FBEDF0;}
	.st4{fill:#ECC2D1;}
	.st5{fill:#D08AA9;}
	.st6{fill:#F2DAB6;}
	.st7{fill:#EDD0A4;}
	.st8{fill:#FCF4E6;}
</style>
<g id="Layer_1_1_">
	<path class="st0" d="M255.3,431.3c125.4,0,227.7-33.6,227.7-74.9c0-41.3-102.3-74.9-227.7-74.9S27.7,315.1,27.7,356.4
		C27.7,397.6,130,431.3,255.3,431.3"/>
	<path class="st1" d="M409.5,335.9c-0.2,1.4-0.4,2.8-0.7,4.3c-3.2,15.8-9.9,27-18.2,34.5c-6.4,5.8-13.8,9.4-21.3,11.2
		c-7.5,1.8-15.1,1.8-22.1,0.4c-7.1-1.4-13.6-4.4-18.6-8.3c-7.8,14.5-18.2,25.1-29.7,31.8c-11.4,6.7-24,9.7-36.2,9.1
		c-12.3-0.6-24.4-4.8-34.8-12.4c-9.5-6.9-17.6-16.6-23.4-29.1c-7.8,8.8-18.7,14.3-29.7,15.9c-5,0.7-10,0.7-14.9-0.2
		c-4.9-0.9-9.5-2.6-13.6-5.2c-8.1-5.1-14.1-13.5-15.9-25.5c-0.4-2.8-0.7-5.6-0.9-8.3c-5.9-3.3-11.4-8.1-16-14.1
		c-7.7-10.2-12.9-24-13.5-40.4c-0.6-16.1,3.3-34.7,13.7-54.6c12.3-23.6,33.7-49.2,67.5-74.8c34.3-26,38.1-59.2,42.3-97.2
		c1.9-17,3.9-34.9,8.7-53.6c2.5-9.7,16.1-15.9,29.7-17.2c4.3-0.4,8.6-0.4,12.5,0.1c4.1,0.6,7.9,1.7,10.9,3.4
		c5.6,3.2,8.7,8.1,7.4,15.1c-5.1,27.3-2.2,53.1,7,76.8c9.9,25.5,27.1,48.6,49.6,68.4c38.2,33.6,65.1,62.4,76.5,89.6
		C437.8,283.4,433.7,309.2,409.5,335.9"/>
	<path class="st2" d="M290.6,193.9c12.1,48.1,64.6,110.8,45.1,167.8c-1.1,3.1-2.2,6.1-3.5,8.9c4.1,3.8,10,6.6,16.5,8
		c5.9,1.2,12.4,1.2,18.7-0.3c6.3-1.5,12.4-4.5,17.8-9.4c7.2-6.5,13-16.3,15.8-30.2c8.9-43.7-46.9-89.2-59.4-133.6
		c18.7,36.9,63.9,72.3,68,118.3c16.4-21.5,18.5-42.4,9.1-64.6c-10.9-25.8-37.1-53.8-74.5-86.7c-23.3-20.6-41.3-44.7-51.7-71.5
		c-8-21.3-12.5-44.6-8.7-67.3c0.9-5.2-12.4-2.1-16.7-2c-6.9,0.1-24.6-4.2-27.2-1.8c-3.9,3.6-7.8,38.2-8.5,44.5
		c-4.5,39.8-8.4,74.6-45.4,102.6c-32.8,24.9-53.5,49.5-65.3,72.2c-9.7,18.6-13.4,35.9-12.8,50.7c0.5,14.6,5.1,26.9,11.9,35.9
		c2.8,3.7,5.9,6.8,9.3,9.2c0.1-46.3,32.7-107.7,61.2-144.9c-25.1,48.4-60.3,106.1-52.1,161.6c1.4,9.4,6,16,12.3,19.9
		c3.2,2,6.9,3.4,10.8,4.1c3.9,0.7,8.1,0.7,12.3,0.1c10.5-1.6,20.9-7.2,27.4-16.5c-1.1-3.3-2.1-6.8-3-10.4
		c-14.5-63.7,28.5-109.4,40.4-161.5c-5.5,54.4-45.1,105.5-32.7,159.7c4.5,19.7,14.3,34.2,26.7,43.2c9.2,6.7,19.8,10.4,30.5,10.9
		c10.8,0.5,21.8-2.1,31.9-8c13.9-8.2,26-22.7,33.3-43.8C345.1,310,295.8,245.7,290.6,193.9"/>
	<path class="st3" d="M290.6,193.9c6.8,26.8,26.1,58.2,38.4,90.6c18.3-8.3,29.5-23.6,20.5-50c-3.7-9.5-6.8-16.6-12.5-25.1
		c-1.6-2.2-3.2-4.3-4.9-6.4c-26.7-34.2-47-51-52.5-96.1c-1.5-14.2,0.2-64.4-16.4-69.8c-18.9-6.2-23.6,17.1-25,30.3
		c-6.9,67-2.5,86.5-55.6,135.8c-25.4,23.4-32.1,40.4-27.5,52.9c10.6-21,23.2-40.7,35.1-56.2c-10.1,19.5-21.9,40.5-31.8,62.3
		c8.1,10.8,25.8,17.6,45.8,22.1c10.6-29.9,27.4-57.4,34.1-86.9c-3,30.2-16.6,59.4-25.9,88.6c16.9,3.2,34.7,5.1,49.3,6.6
		c17,1.7,40.5,1.2,59.4-4.9C310.1,255.6,293.5,222.8,290.6,193.9"/>
	<path class="st4" d="M203.5,335.6c26.3,37.6,106.6,42.4,125.7-21c3.3,15.6,3.8,30.7-0.9,44.5c-7.2,21.1-19.3,35.6-33.3,43.8
		c-10.1,5.9-21.1,8.5-31.9,8c-10.8-0.5-21.4-4.2-30.5-10.9c-12.4-9-22.2-23.5-26.7-43.2C204.2,349.7,203.5,342.6,203.5,335.6z
		 M139.7,318.2c-2.7,14.4-3.5,28.8-1.4,43.1c1.4,9.4,6,16,12.3,19.9c3.2,2,6.9,3.4,10.8,4.1c3.9,0.7,8.1,0.7,12.3,0.1
		c10.5-1.6,20.9-7.2,27.4-16.5c-1.1-3.3-2.1-6.8-3-10.4c-2.4-10.7-3.2-20.9-2.9-30.6C174.6,342,156,339.3,139.7,318.2z M111.2,273.3
		c-2.5,9.3-3.4,18.1-3.2,26.1c0.5,14.6,5.1,26.9,11.9,35.9c2.8,3.7,5.9,6.8,9.3,9.2c0-9.8,1.5-20.3,4.1-31.1
		C113.8,316.6,108.4,300.4,111.2,273.3z M399,288.5c11.8-0.4,19-9.4,18-33.8c0.6,1.4,1.3,2.7,1.8,4.1c9.4,22.2,7.3,43.1-9.1,64.6
		C408.7,311.1,404.7,299.5,399,288.5z M338.9,320.4c2,13.9,1.4,27.7-3.2,41.2c-1.1,3.1-2.2,6.1-3.5,8.9c4.1,3.8,10,6.6,16.5,8
		c5.9,1.2,12.4,1.2,18.7-0.3c6.3-1.5,12.4-4.5,17.8-9.4c7.2-6.5,13-16.3,15.8-30.2c3.4-17-2.8-34.2-12.6-51.5
		C381.1,323.1,364.2,333.3,338.9,320.4"/>
	<path class="st5" d="M388.2,323.7c5.7-24.4-9.8-38.3-20.1-54.8C376.4,284.9,385.9,298.9,388.2,323.7z M379.9,347.1
		c-4.9-56.7-38.5-86.5-51-140.1C349.8,264.2,378.7,289.1,379.9,347.1z M366.1,369.7c-0.7-43.3-16.7-77.6-27.6-121.7
		C353.8,292.3,372.6,327.3,366.1,369.7z M352.3,360.9c5.3-38.6-22-85.3-33-127.9C325.5,275.5,353.6,320.4,352.3,360.9"/>
	<path class="st5" d="M181.2,360.9c-5.3-38.6,22-85.3,33-127.9C208,275.5,179.9,320.4,181.2,360.9"/>
	<path class="st5" d="M317.9,338.3c10.5-22.8-1.9-39.5-8.7-57.7C314.1,297.9,320.6,313.5,317.9,338.3z M305,359.6
		c6.6-56.5-20.4-92.4-21.9-147.4C292.2,272.3,315.4,302.5,305,359.6z M287,378.9c7.9-42.5-0.9-79.3-2.7-124.7
		C290.4,300.7,301.8,338.6,287,378.9z M275.2,367.6c13-36.8-4.5-88-6.8-132C266.1,278.5,284.6,328.1,275.2,367.6"/>
	<path class="st5" d="M122,268.5c7.3-23.8,19.5-35.6,30.8-49.5C139.4,232.9,121.4,243.4,122,268.5z M126.6,306.9
		c2.3-42.9,27.8-73.2,51.8-113.5C158.7,234.4,136.1,264.7,126.6,306.9"/>
	<path class="st5" d="M411.1,261.6c-10.4-22.6-24-32.7-37.1-45C389.2,228.7,408.4,236.7,411.1,261.6z M411.7,300.3
		c-7.9-42.2-37.2-68.9-66.3-105.7C370.2,232.7,396.6,259.7,411.7,300.3"/>
	<path class="st6" d="M79.1,302.1c-20.9,5-40.5,8.9-55.2,10.2c-5.3,12.5-10.4,26-12.9,38.2c-2.5,12.2-2.5,22.9,2.5,29.5
		c9.1,12,27,21.1,47,25.8c20.4,4.8,42.8,4.9,59.8-1.1c18.2-6.4,29.2-22.6,35.4-42.2c7.5-23.5,8.1-51.8,6.1-74.4
		c-0.6-6.5-1.8-8.4-9.2-6.2C130.4,288.6,103.8,296.2,79.1,302.1"/>
	<path class="st7" d="M11,350.5c-2.5,12.2-2.5,22.9,2.5,29.5c9.1,12,27,21.1,47,25.8c20.4,4.8,42.8,4.9,59.8-1.1
		c0.8-0.3,1.7-0.6,2.5-1C74.7,411.9,36,397.7,11,350.5"/>
	<path class="st8" d="M28.7,319.8c50.3,99.7,128.2,100,128.2-31.4C114.2,298.9,71.4,309.3,28.7,319.8"/>
</g>
</svg>
