<svg class="svg-icon" style="width: 1em; height: 1em;vertical-align: middle;fill: currentColor;overflow: hidden;" viewBox="0 0 1024 1024" version="1.1" xmlns="http://www.w3.org/2000/svg"><path d="M944.8 319.9l-867-1.9c-7.3 0-13.3-6-13.3-13.3s6-13.3 13.3-13.3l867 1.9c7.3 0 13.3 6 13.3 13.3s-6 13.3-13.3 13.3z" fill="#595757" /><path d="M599.2 513.8h13.9M682.7 514h2.4" fill="#E95513" /><path d="M314.9 829.8l-58.2-544c0-14-8.1-25.4-18.1-25.4h-17.9c-10 0-18.2 11.4-18.2 25.4l-10.6 262.8-43.6 289.3c-1.4 11.3 1.5 21.2 6.6 21.8l33.4 5.1c5.1 0.6 10.4-8.1 11.8-19.5L227.7 604 211 890.5c-0.3 11.4 3.7 20.9 8.8 21l28.7 0.7c5.1 0.1 9.5-9.1 9.8-20.6l-2.5-195.4 4.5 138.4c0.9 10.7 6.6 19.1 12.4 18.6l33-2.9c6.1-0.6 10.1-9.8 9.2-20.5z" fill="#FFFFFF" /><path d="M248.6 925.5h-0.4l-28.7-0.7c-13.3-0.3-22.2-14.6-21.7-34.6l0.9-15c-5 3.1-9.6 3-12 2.7l-33.8-5.1c-12.9-1.6-20.3-16.7-17.8-36.6l43.6-288.9 10.6-262.1c0-21.2 13.9-38.2 31.5-38.1h17.9c17.4 0 31.1 16.7 31.3 38l58.2 543.3v0.2c0.6 7.4-0.4 14.7-3 20.6-3.7 8.4-10.3 13.6-18.1 14.3l-33 2.9c-0.9 0.1-1.8 0.1-2.7 0.1l0.3 25c-0.2 7.9-1.7 15-4.4 20.5-5.8 12.1-14.8 13.5-18.7 13.5z m-23.5-27.2l18.8 0.5c0.5-1.7 1.1-4.2 1.1-7.5l-2.5-194.9c-0.1-7.3 5.7-13.3 13-13.5 7.2-0.2 13.4 5.6 13.6 12.9l4.5 137.9c0.3 2.7 0.9 4.6 1.5 5.9l26-2.3c0.4-1.3 0.7-3.5 0.5-6.3l-58.2-543.8c-0.1-0.5-0.1-1-0.1-1.4 0-7.7-3.7-11.8-4.9-12.1h-17.8c-1.1 0.3-4.9 4.4-4.9 12.1L205.2 549c0 0.5-0.1 1-0.1 1.4l-43.6 289.3c-0.4 3.2-0.2 5.7 0.1 7.4l23.7 3.6c0.7-1.6 1.4-4 1.8-7.2l27.5-241.1c0.8-7.2 7.1-12.4 14.4-11.7 7.2 0.6 12.6 6.8 12.1 14l-16.7 286.5c-0.1 3.1 0.3 5.5 0.7 7.1z m-68.5-51.9l0.5 0.1c-0.2 0-0.4-0.1-0.5-0.1z" fill="#595757" /><path d="M257.5 791.5l46.8-505.6c0-14 8.2-25.4 18.2-25.4h17.9c10 0 18.1 11.5 18.1 25.4l9.5 262.9 42.3 317.4c1.4 11.4-1.6 21.1-6.7 21.8l-33.4 5c-5.1 0.6-10.4-8.2-11.8-19.5l-29.9-299.9 24.1 320.3c0.2 11.4-3.8 20.9-8.9 21l-33.9-2.6c-5.1 0.1-9.5-9.2-9.7-20.6l3.3-195.4-5 100.6c-1 10.7-6.6 19.1-12.5 18.5l-19.4-3.4c-6-0.5-10-9.8-9-20.5z" fill="#FFFFFF" /><path d="M343.6 928.2h-1l-33.5-2.6c-4.2-0.1-12.6-2-18.1-13.6-2.6-5.6-4.2-12.7-4.3-20l1.1-63.3c-1.1 0.1-2.2 0.1-3.3 0-0.4 0-0.7-0.1-1.1-0.1l-19-3.3c-13.3-1.7-21.9-16.5-20.2-34.9L291 285.2c0.3-21.4 14.1-38 31.5-38h17.9c17.6 0 31.4 17.1 31.4 38.8l9.4 261.7 42.2 316.8c2.4 20.1-5.1 35.1-18.3 36.7l-33.1 4.9c-1.7 0.2-4.3 0.3-7.3-0.5-0.6 2.9-1.4 5.7-2.5 8.2-5.4 12.7-14.7 14.3-18.4 14.4h-0.2z m-29.1-28.9l24 1.8c0.4-1.6 0.7-3.8 0.7-6.6l-24.1-320c-0.5-7.3 4.8-13.6 12.1-14.2 7.2-0.6 13.7 4.7 14.4 11.9l29.9 299.9c0.4 3 1.1 5.3 1.8 6.9l23.7-3.5c0.3-1.7 0.5-4.3 0.1-7.7l-42.3-317.3c-0.1-0.4-0.1-0.9-0.1-1.3l-9.5-262.9c0-8.2-3.7-12.4-4.9-12.6h-17.8c-1.1 0.3-4.9 4.4-4.9 12.1 0 0.4 0 0.8-0.1 1.2l-46.8 505.6c-0.3 3.1 0.1 5.3 0.5 6.6l12.4 2.2c0.6-1.2 1.2-3.1 1.4-5.6l5-100.3c0.4-7.2 6.6-12.8 13.7-12.6 7.3 0.2 13 6.3 12.9 13.5l-3.3 195.4c0.1 3.4 0.7 5.9 1.2 7.5z m87.1-24.4c-0.1 0-0.3 0-0.4 0.1l0.4-0.1z" fill="#595757" /><path d="M510 853.2l-58.2-567c0-14-8.1-25.4-18.1-25.4h-17.9c-10 0-18.2 11.4-18.2 25.4L387 549l-41.2 323.2c-1.4 11.3 1.5 21.2 6.6 21.8l33.4 5.1c5.1 0.6 10.4-8.1 11.8-19.5l25.1-246-16.6 257.2c-0.3 11.4 3.7 20.9 8.8 21l28.7 0.7c5.1 0.1 9.5-9.1 9.8-20.6L451 696.6l4.5 161.4c0.9 10.7 6.6 19.1 12.4 18.6l33-2.9c6-0.5 10.1-9.7 9.1-20.5z" fill="#FFFFFF" /><path d="M443.7 925.9h-0.4l-28.7-0.7c-8.5-0.2-15.2-6.1-18.8-15.5-3.5 2.1-7.5 3-11.6 2.5l-33.8-5.1c-12.9-1.6-20.3-16.7-17.8-36.6l41.1-322.7 10.6-262.3c0-21.2 13.9-38.2 31.5-38.1h17.9c17.4 0 31.1 16.7 31.3 38l58.1 566.4v0.2c1.6 18.7-7.4 33.7-21.1 34.9l-33 2.9c-0.8 0.1-1.6 0.1-2.3 0.1v1.9c-0.2 7.9-1.7 15-4.4 20.5-5.7 12.2-14.6 13.6-18.6 13.6z m-23.4-27.2l18.8 0.5c0.5-1.7 1.1-4.2 1.1-7.5l-2.5-194.9c-0.1-7.3 5.7-13.3 13-13.5 7.2-0.1 13.4 5.6 13.6 12.9l4.5 161c0.3 2.7 0.9 4.6 1.5 5.8l26-2.3c0.4-1.3 0.7-3.5 0.5-6.3l-58.2-566.9c0-0.5-0.1-0.9-0.1-1.4 0-7.7-3.7-11.8-4.9-12.1h-17.8c-1.1 0.3-4.9 4.4-4.9 12.1l-10.6 263.3c0 0.4 0 0.8-0.1 1.1L359 873.7c-0.4 3.4-0.3 5.9 0 7.7l23.7 3.6c0.7-1.6 1.4-4 1.8-7.2l25-245.6c0.7-7.2 7.1-12.5 14.3-11.9 7.2 0.6 12.6 6.9 12.2 14.1l-16.6 257.2c0 3.1 0.4 5.5 0.9 7.1z m-66.1-18l0.5 0.1c-0.2 0-0.4 0-0.5-0.1z" fill="#595757" /><path d="M438.5 830l60.6-543.7c0-14 8.2-25.4 18.2-25.4h17.9c10 0 18.1 11.5 18.1 25.4l9.5 262.9 42.4 289.5c1.4 11.4-1.6 21.1-6.7 21.8l-33.4 5c-5.1 0.6-10.4-8.2-11.8-19.5l-26.5-241.4 15.4 286.6c0.2 11.4-3.8 20.9-8.9 21l-28.7 0.6c-5.1 0.1-9.5-9.2-9.7-20.6l3.3-195.4-5.2 138.3c-1 10.7-6.6 19.1-12.5 18.5l-33-3.1c-5.9-0.5-10-9.7-9-20.5z" fill="#FFFFFF" /><path d="M504.5 926c-4 0-12.9-1.5-18.6-13.6-2.6-5.6-4.2-12.7-4.3-20l0.4-25.5c-0.9 0-1.8 0-2.7-0.1l-33-3.1c-7.8-0.7-14.4-6-18-14.4-2.6-5.9-3.6-13.2-2.9-20.6v-0.2l60.5-543c0.4-21.3 14.1-37.9 31.5-37.8h17.9c17.6 0 31.4 17.1 31.4 38.8l9.4 261.6 42.3 288.8c2.5 20.2-5.1 35.3-18.3 36.9l-33.1 4.9c-2.6 0.3-7.4 0.3-12.3-2.7l0.8 14.5c0.4 20.5-8.6 34.7-21.9 35l-28.7 0.6c-0.2-0.1-0.3-0.1-0.4-0.1z m-6.4-242.6h0.3c7.3 0.2 13.1 6.2 12.9 13.5L508 892.3c0.1 3 0.6 5.4 1.1 7l18.9-0.3c0.4-1.7 0.9-4.2 0.8-7.5l-15.4-286.1c-0.4-7.2 5-13.4 12.2-14 7.2-0.6 13.5 4.6 14.3 11.8l26.5 241.4c0.4 3.1 1.1 5.5 1.8 7l23.7-3.5c0.3-1.7 0.5-4.3 0.1-7.7l-42.3-289.2c-0.1-0.5-0.1-1-0.1-1.4L540 286.9c0-8.2-3.7-12.4-4.9-12.6h-17.8c-1.1 0.3-4.9 4.4-4.9 12.1 0 0.5 0 1-0.1 1.4l-60.6 543.6c-0.3 2.8 0.1 4.9 0.4 6.3l26 2.4c0.6-1.2 1.3-3.2 1.6-5.9l5.1-137.9c0.3-7.2 6.2-12.9 13.3-12.9z m98.4 164c-0.1 0-0.3 0-0.4 0.1l0.4-0.1z" fill="#595757" /><path d="M556.8 790.9l46.8-505.6c0-14 8.2-25.4 18.2-25.4h17.9c10 0 18.1 11.5 18.1 25.4l9.5 262.9 42.3 317.4c1.4 11.4-1.6 21.1-6.7 21.8l-33.4 5c-5.1 0.6-10.4-8.2-11.8-19.5L627.8 573l24.1 320.3c0.2 11.4-3.8 20.9-8.9 21l-33.9-2.6c-5.1 0.1-9.5-9.2-9.7-20.6l3.3-195.4-5 100.6c-1 10.7-6.6 19.1-12.5 18.5l-19.4-3.4c-6-0.5-10-9.8-9-20.5z" fill="#FFFFFF" /><path d="M642.9 927.6h-1l-33.5-2.6c-4.2-0.1-12.6-2-18.1-13.6-2.6-5.6-4.2-12.7-4.3-20l1.1-63.3c-1.1 0.1-2.2 0.1-3.3 0-0.4 0-0.7-0.1-1.1-0.1l-19-3.3c-13.3-1.7-21.9-16.5-20.2-34.9l46.8-505.1c0.3-21.4 14.1-38 31.5-38h17.9c17.6 0 31.4 17.1 31.4 38.8l9.4 261.7L722.7 864c2.4 20.1-5.1 35.1-18.3 36.7l-33.1 4.9c-1.7 0.2-4.3 0.3-7.2-0.5-2.7 13.5-10.5 22.3-20.9 22.5h-0.3z m-29-28.9l24 1.8c0.4-1.6 0.7-3.8 0.7-6.6l-24.1-320c-0.5-7.3 4.8-13.6 12.1-14.2 7.3-0.6 13.7 4.7 14.4 11.9l29.9 299.9c0.4 3 1.1 5.3 1.8 6.9l23.7-3.5c0.3-1.7 0.5-4.3 0.1-7.7L654.1 550c-0.1-0.4-0.1-0.9-0.1-1.3l-9.5-262.9c0-8.2-3.7-12.4-4.9-12.6h-17.8c-1.1 0.3-4.9 4.4-4.9 12.1 0 0.4 0 0.8-0.1 1.2L570 792.1c-0.3 3.1 0.1 5.3 0.5 6.6l12.4 2.2c0.6-1.2 1.2-3.1 1.4-5.6l5-100.3c0.4-7.2 6.6-12.9 13.7-12.6 7.3 0.2 13 6.3 12.9 13.5l-3.3 195.4c0.1 3.3 0.7 5.8 1.3 7.4z m87-24.4c-0.1 0-0.3 0-0.4 0.1l0.4-0.1z" fill="#595757" /><path d="M809.4 852.6l-58.2-567c0-14-8.1-25.4-18.1-25.4h-17.9c-10 0-18.2 11.4-18.2 25.4l-10.6 262.8-41.2 323.2c-1.4 11.3 1.5 21.2 6.6 21.8l33.4 5.1c5.1 0.6 10.4-8.1 11.8-19.5l25.1-246-16.6 257.2c-0.3 11.4 3.7 20.9 8.8 21l28.7 0.8c5.1 0.1 9.5-9.1 9.8-20.6L750.4 696l4.5 161.4c0.9 10.7 6.6 19.1 12.4 18.6l33-2.9c5.9-0.5 10-9.7 9.1-20.5z" fill="#FFFFFF" /><path d="M743.1 925.3h-0.4l-28.7-0.7c-8.5-0.2-15.2-6.1-18.8-15.5-3.5 2.1-7.5 3-11.6 2.5l-33.8-5.1c-3.4-0.4-12.5-2.9-16.5-16.2-1.8-5.9-2.3-13.1-1.3-20.5l41.1-322.7 10.6-262.3c0-21.2 13.9-38.2 31.5-38.1h17.9c17.4 0 31.1 16.7 31.3 38l58.1 566.4v0.2c1.6 18.7-7.4 33.7-21.1 34.9l-33 2.9c-0.8 0.1-1.6 0.1-2.3 0.1v1.9c-0.2 7.9-1.7 15-4.4 20.5-5.7 12.3-14.7 13.7-18.6 13.7z m-23.5-27.2l18.8 0.5c0.5-1.7 1.1-4.2 1.1-7.5L737 696.2c-0.1-7.3 5.7-13.3 13-13.5 7.3-0.1 13.4 5.6 13.6 12.9l4.5 161c0.3 2.7 0.9 4.6 1.5 5.8l26-2.3c0.4-1.3 0.7-3.5 0.5-6.3l-58.2-566.9c0-0.5-0.1-0.9-0.1-1.4 0-7.7-3.7-11.8-4.9-12.1h-17.8c-1.1 0.3-4.9 4.4-4.9 12.1l-10.6 263.3c0 0.4 0 0.8-0.1 1.1l-41.2 323.2c-0.4 3.4-0.3 5.9 0 7.7l23.6 3.6c0.7-1.6 1.4-4 1.8-7.2l25-245.6c0.7-7.2 7.1-12.6 14.3-11.9 7.2 0.6 12.6 6.9 12.2 14.1L718.6 891c0.2 3.1 0.6 5.5 1 7.1z m-66.1-18l0.5 0.1c-0.2 0-0.3 0-0.5-0.1z" fill="#595757" /><path d="M737.9 829.4l60.6-543.7c0-14 8.2-25.4 18.2-25.4h17.9c10 0 18.1 11.5 18.1 25.4l9.5 262.9 42.4 289.5c1.4 11.4-1.6 21.1-6.7 21.8l-33.4 5c-5.1 0.6-10.4-8.2-11.8-19.5L826 604l15.4 286.6c0.2 11.4-3.8 20.9-8.9 21l-28.7 0.6c-5.1 0.1-9.5-9.2-9.7-20.6l3.3-195.4-5.1 138.3c-1 10.7-6.6 19.1-12.5 18.5l-33-3.1c-5.9-0.5-9.9-9.8-8.9-20.5z" fill="#FFFFFF" /><path d="M803.8 925.4c-4 0-12.9-1.5-18.6-13.6-2.6-5.6-4.2-12.7-4.3-20l0.4-25.5c-0.9 0-1.8 0-2.7-0.1l-33-3.1c-7.8-0.7-14.3-6-18-14.4-2.6-5.9-3.6-13.2-2.9-20.6v-0.2l60.5-543c0.4-21.3 14.1-37.9 31.5-37.8h17.9c17.6 0 31.4 17.1 31.4 38.8l9.4 261.6 42.3 288.8c2.5 20.2-5.1 35.3-18.3 36.9l-33.1 4.9c-2.6 0.3-7.4 0.3-12.3-2.7l0.8 14.5c0.4 20.5-8.6 34.7-21.9 35l-28.7 0.6c-0.1-0.1-0.3-0.1-0.4-0.1z m-6.3-242.6h0.3c7.3 0.2 13.1 6.2 12.9 13.5l-3.3 195.4c0.1 3 0.6 5.4 1.1 7l18.8-0.4c0.4-1.7 0.9-4.2 0.8-7.5l-15.4-286.1c-0.4-7.2 5-13.4 12.2-14 7.1-0.6 13.5 4.6 14.3 11.8l26.5 241.4c0.4 3.1 1.1 5.5 1.8 7l23.7-3.5c0.3-1.7 0.5-4.3 0.1-7.7L849 550.5c-0.1-0.5-0.1-1-0.1-1.4l-9.5-262.9c0-8.2-3.7-12.3-4.9-12.6h-17.8c-1.1 0.3-4.9 4.4-4.9 12.1 0 0.5 0 1-0.1 1.4l-60.6 543.6c-0.3 2.8 0.1 4.9 0.4 6.3l26 2.4c0.6-1.2 1.3-3.2 1.6-5.9l5.1-137.9c0.3-7.1 6.2-12.8 13.3-12.8z m98.3 164c-0.1 0-0.3 0-0.4 0.1l0.4-0.1z" fill="#595757" /></svg>
