<?xml version="1.0" encoding="utf-8"?>
<!-- Generator: Adobe Illustrator 24.3.0, SVG Export Plug-In . SVG Version: 6.00 Build 0)  -->
<svg version="1.1" id="Layer_1" xmlns="http://www.w3.org/2000/svg" xmlns:xlink="http://www.w3.org/1999/xlink" x="0px" y="0px"
	 viewBox="0 0 1024 1024" style="enable-background:new 0 0 1024 1024;" xml:space="preserve">
<style type="text/css">
	.st0{fill:#595757;}
	.st1{fill:#E95513;}
	.st2{fill:#FFFFFF;}
</style>
<path class="st0" d="M807.7,327.8l-612.3-1.9c-5.2,0-9.4-6-9.4-13.3s4.2-13.3,9.4-13.3l612.3,1.9c5.2,0,9.4,6,9.4,13.3
	S812.9,327.8,807.7,327.8z"/>
<path class="st1" d="M458.2,521.7h13.9 M541.7,521.9h2.4"/>
<path class="st2" d="M369,861.1l-58.2-567c0-14-8.1-25.4-18.1-25.4h-17.9c-10,0-18.2,11.4-18.2,25.4L246,556.9l-41.2,323.2
	c-1.4,11.3,1.5,21.2,6.6,21.8l33.4,5.1c5.1,0.6,10.4-8.1,11.8-19.5l25.1-246l-16.6,257.2c-0.3,11.4,3.7,20.9,8.8,21l28.7,0.7
	c5.1,0.1,9.5-9.1,9.8-20.6L310,704.5l4.5,161.4c0.9,10.7,6.6,19.1,12.4,18.6l33-2.9C365.9,881.1,370,871.9,369,861.1L369,861.1z"/>
<path class="st0" d="M302.7,933.8h-0.4l-28.7-0.7c-8.5-0.2-15.2-6.1-18.8-15.5c-3.5,2.1-7.5,3-11.6,2.5l-33.8-5.1
	c-12.9-1.6-20.3-16.7-17.8-36.6l41.1-322.7l10.6-262.3c0-21.2,13.9-38.2,31.5-38.1h17.9c17.4,0,31.1,16.7,31.3,38l58.1,566.4v0.2
	c1.6,18.7-7.4,33.7-21.1,34.9l-33,2.9c-0.8,0.1-1.6,0.1-2.3,0.1v1.9c-0.2,7.9-1.7,15-4.4,20.5C315.6,932.4,306.7,933.8,302.7,933.8
	L302.7,933.8z M279.3,906.6l18.8,0.5c0.5-1.7,1.1-4.2,1.1-7.5l-2.5-194.9c-0.1-7.3,5.7-13.3,13-13.5c7.2-0.1,13.4,5.6,13.6,12.9
	l4.5,161c0.3,2.7,0.9,4.6,1.5,5.8l26-2.3c0.4-1.3,0.7-3.5,0.5-6.3l-58.2-566.9c0-0.5-0.1-0.9-0.1-1.4c0-7.7-3.7-11.8-4.9-12.1h-17.8
	c-1.1,0.3-4.9,4.4-4.9,12.1l-10.6,263.3c0,0.4,0,0.8-0.1,1.1L218,881.6c-0.4,3.4-0.3,5.9,0,7.7l23.7,3.6c0.7-1.6,1.4-4,1.8-7.2
	l25-245.6c0.7-7.2,7.1-12.5,14.3-11.9c7.2,0.6,12.6,6.9,12.2,14.1l-16.6,257.2C278.4,902.6,278.8,905,279.3,906.6L279.3,906.6z
	 M213.2,888.6l0.5,0.1C213.5,888.7,213.3,888.7,213.2,888.6z"/>
<path class="st2" d="M297.5,837.9l60.6-543.7c0-14,8.2-25.4,18.2-25.4h17.9c10,0,18.1,11.5,18.1,25.4l9.5,262.9l42.4,289.5
	c1.4,11.4-1.6,21.1-6.7,21.8l-33.4,5c-5.1,0.6-10.4-8.2-11.8-19.5l-26.5-241.4l15.4,286.6c0.2,11.4-3.8,20.9-8.9,21l-28.7,0.6
	c-5.1,0.1-9.5-9.2-9.7-20.6l3.3-195.4L352,843c-1,10.7-6.6,19.1-12.5,18.5l-33-3.1C300.6,857.9,296.5,848.7,297.5,837.9L297.5,837.9
	z"/>
<path class="st0" d="M363.5,933.9c-4,0-12.9-1.5-18.6-13.6c-2.6-5.6-4.2-12.7-4.3-20l0.4-25.5c-0.9,0-1.8,0-2.7-0.1l-33-3.1
	c-7.8-0.7-14.4-6-18-14.4c-2.6-5.9-3.6-13.2-2.9-20.6v-0.2l60.5-543c0.4-21.3,14.1-37.9,31.5-37.8h17.9c17.6,0,31.4,17.1,31.4,38.8
	l9.4,261.6l42.3,288.8c2.5,20.2-5.1,35.3-18.3,36.9l-33.1,4.9c-2.6,0.3-7.4,0.3-12.3-2.7l0.8,14.5c0.4,20.5-8.6,34.7-21.9,35
	l-28.7,0.6C363.7,933.9,363.6,933.9,363.5,933.9L363.5,933.9z M357.1,691.3h0.3c7.3,0.2,13.1,6.2,12.9,13.5L367,900.2
	c0.1,3,0.6,5.4,1.1,7l18.9-0.3c0.4-1.7,0.9-4.2,0.8-7.5l-15.4-286.1c-0.4-7.2,5-13.4,12.2-14s13.5,4.6,14.3,11.8l26.5,241.4
	c0.4,3.1,1.1,5.5,1.8,7l23.7-3.5c0.3-1.7,0.5-4.3,0.1-7.7l-42.3-289.2c-0.1-0.5-0.1-1-0.1-1.4L399,294.8c0-8.2-3.7-12.4-4.9-12.6
	h-17.8c-1.1,0.3-4.9,4.4-4.9,12.1c0,0.5,0,1-0.1,1.4l-60.6,543.6c-0.3,2.8,0.1,4.9,0.4,6.3l26,2.4c0.6-1.2,1.3-3.2,1.6-5.9
	l5.1-137.9C344.1,697,350,691.3,357.1,691.3L357.1,691.3z M455.5,855.3c-0.1,0-0.3,0-0.4,0.1L455.5,855.3z"/>
<path class="st2" d="M415.8,798.8l46.8-505.6c0-14,8.2-25.4,18.2-25.4h17.9c10,0,18.1,11.5,18.1,25.4l9.5,262.9l42.3,317.4
	c1.4,11.4-1.6,21.1-6.7,21.8l-33.4,5c-5.1,0.6-10.4-8.2-11.8-19.5l-29.9-299.9l24.1,320.3c0.2,11.4-3.8,20.9-8.9,21l-33.9-2.6
	c-5.1,0.1-9.5-9.2-9.7-20.6l3.3-195.4l-5,100.6c-1,10.7-6.6,19.1-12.5,18.5l-19.4-3.4C418.8,818.8,414.8,809.5,415.8,798.8
	L415.8,798.8z"/>
<path class="st0" d="M501.9,935.5h-1l-33.5-2.6c-4.2-0.1-12.6-2-18.1-13.6c-2.6-5.6-4.2-12.7-4.3-20l1.1-63.3
	c-1.1,0.1-2.2,0.1-3.3,0c-0.4,0-0.7-0.1-1.1-0.1l-19-3.3c-13.3-1.7-21.9-16.5-20.2-34.9l46.8-505.1c0.3-21.4,14.1-38,31.5-38h17.9
	c17.6,0,31.4,17.1,31.4,38.8l9.4,261.7l42.2,316.8c2.4,20.1-5.1,35.1-18.3,36.7l-33.1,4.9c-1.7,0.2-4.3,0.3-7.2-0.5
	c-2.7,13.5-10.5,22.3-20.9,22.5L501.9,935.5L501.9,935.5z M472.9,906.6l24,1.8c0.4-1.6,0.7-3.8,0.7-6.6l-24.1-320
	c-0.5-7.3,4.8-13.6,12.1-14.2c7.3-0.6,13.7,4.7,14.4,11.9l29.9,299.9c0.4,3,1.1,5.3,1.8,6.9l23.7-3.5c0.3-1.7,0.5-4.3,0.1-7.7
	l-42.4-317.2c-0.1-0.4-0.1-0.9-0.1-1.3l-9.5-262.9c0-8.2-3.7-12.4-4.9-12.6h-17.8c-1.1,0.3-4.9,4.4-4.9,12.1c0,0.4,0,0.8-0.1,1.2
	L429,800c-0.3,3.1,0.1,5.3,0.5,6.6l12.4,2.2c0.6-1.2,1.2-3.1,1.4-5.6l5-100.3c0.4-7.2,6.6-12.9,13.7-12.6c7.3,0.2,13,6.3,12.9,13.5
	l-3.3,195.4C471.7,902.5,472.3,905,472.9,906.6L472.9,906.6z M559.9,882.2c-0.1,0-0.3,0-0.4,0.1L559.9,882.2z"/>
<path class="st2" d="M668.4,860.5l-58.2-567c0-14-8.1-25.4-18.1-25.4h-17.9c-10,0-18.2,11.4-18.2,25.4l-10.6,262.8l-41.2,323.2
	c-1.4,11.3,1.5,21.2,6.6,21.8l33.4,5.1c5.1,0.6,10.4-8.1,11.8-19.5l25.1-246l-16.6,257.2c-0.3,11.4,3.7,20.9,8.8,21l28.7,0.8
	c5.1,0.1,9.5-9.1,9.8-20.6l-2.4-195.4l4.5,161.4c0.9,10.7,6.6,19.1,12.4,18.6l33-2.9C665.2,880.5,669.3,871.3,668.4,860.5z"/>
<path class="st0" d="M602.1,933.2h-0.4l-28.7-0.7c-8.5-0.2-15.2-6.1-18.8-15.5c-3.5,2.1-7.5,3-11.6,2.5l-33.8-5.1
	c-3.4-0.4-12.5-2.9-16.5-16.2c-1.8-5.9-2.3-13.1-1.3-20.5L532.1,555l10.6-262.3c0-21.2,13.9-38.2,31.5-38.1h17.9
	c17.4,0,31.1,16.7,31.3,38L681.5,859v0.2c1.6,18.7-7.4,33.7-21.1,34.9l-33,2.9c-0.8,0.1-1.6,0.1-2.3,0.1v1.9
	c-0.2,7.9-1.7,15-4.4,20.5C615,931.8,606,933.2,602.1,933.2L602.1,933.2z M578.6,906l18.8,0.5c0.5-1.7,1.1-4.2,1.1-7.5L596,704.1
	c-0.1-7.3,5.7-13.3,13-13.5c7.3-0.1,13.4,5.6,13.6,12.9l4.5,161c0.3,2.7,0.9,4.6,1.5,5.8l26-2.3c0.4-1.3,0.7-3.5,0.5-6.3
	l-58.2-566.9c0-0.5-0.1-0.9-0.1-1.4c0-7.7-3.7-11.8-4.9-12.1h-17.8c-1.1,0.3-4.9,4.4-4.9,12.1l-10.6,263.3c0,0.4,0,0.8-0.1,1.1
	L517.3,881c-0.4,3.4-0.3,5.9,0,7.7l23.6,3.6c0.7-1.6,1.4-4,1.8-7.2l25-245.6c0.7-7.2,7.1-12.6,14.3-11.9c7.2,0.6,12.6,6.9,12.2,14.1
	l-16.6,257.2C577.8,902,578.2,904.4,578.6,906z M512.5,888l0.5,0.1C512.8,888.1,512.7,888.1,512.5,888z"/>
<path class="st2" d="M596.9,837.3l60.6-543.7c0-14,8.2-25.4,18.2-25.4h17.9c10,0,18.1,11.5,18.1,25.4l9.5,262.9L763.6,846
	c1.4,11.4-1.6,21.1-6.7,21.8l-33.4,5c-5.1,0.6-10.4-8.2-11.8-19.5L685,611.9l15.4,286.6c0.2,11.4-3.8,20.9-8.9,21l-28.7,0.6
	c-5.1,0.1-9.5-9.2-9.7-20.6l3.3-195.4l-5.1,138.3c-1,10.7-6.6,19.1-12.5,18.5l-33-3.1C599.9,857.3,595.9,848,596.9,837.3
	L596.9,837.3z"/>
<path class="st0" d="M662.8,933.3c-4,0-12.9-1.5-18.6-13.6c-2.6-5.6-4.2-12.7-4.3-20l0.4-25.5c-0.9,0-1.8,0-2.7-0.1l-33-3.1
	c-7.8-0.7-14.3-6-18-14.4c-2.6-5.9-3.6-13.2-2.9-20.6v-0.2l60.5-543c0.4-21.3,14.1-37.9,31.5-37.8h17.9c17.6,0,31.4,17.1,31.4,38.8
	l9.4,261.6l42.3,288.8c2.5,20.2-5.1,35.3-18.3,36.9l-33.1,4.9c-2.6,0.3-7.4,0.3-12.3-2.7l0.8,14.5c0.4,20.5-8.6,34.7-21.9,35
	l-28.7,0.6C663.1,933.3,662.9,933.3,662.8,933.3L662.8,933.3z M656.5,690.7h0.3c7.3,0.2,13.1,6.2,12.9,13.5l-3.3,195.4
	c0.1,3,0.6,5.4,1.1,7l18.8-0.4c0.4-1.7,0.9-4.2,0.8-7.5l-15.4-286.1c-0.4-7.2,5-13.4,12.2-14c7.1-0.6,13.5,4.6,14.3,11.8l26.5,241.4
	c0.4,3.1,1.1,5.5,1.8,7l23.7-3.5c0.3-1.7,0.5-4.3,0.1-7.7L708,558.4c-0.1-0.5-0.1-1-0.1-1.4l-9.5-262.9c0-8.2-3.7-12.3-4.9-12.6
	h-17.8c-1.1,0.3-4.9,4.4-4.9,12.1c0,0.5,0,1-0.1,1.4l-60.6,543.6c-0.3,2.8,0.1,4.9,0.4,6.3l26,2.4c0.6-1.2,1.3-3.2,1.6-5.9
	l5.1-137.9C643.5,696.4,649.4,690.7,656.5,690.7L656.5,690.7z M754.8,854.7c-0.1,0-0.3,0-0.4,0.1L754.8,854.7z"/>
</svg>
