<svg class="svg-icon" style="width: 1em; height: 1em;vertical-align: middle;fill: currentColor;overflow: hidden;" viewBox="0 0 1024 1024" version="1.1" xmlns="http://www.w3.org/2000/svg"><path d="M475 694c7-35 34.4-43 59.8-42.6 23.2 0.4 44.8 11.2 60.6 28 27.8 29.6 66 19.8 66 19.8-7-55.4-28.6-68.4-28.6-68.4l27.8-19.8c31.4 52 90.6 49 90.6 49-6.6-22.2-22-53-22-53 26.8-2.6 61.2-42.4 61.2-42.4s-49-19.2-73.8-9c0 0-0.6-34.4-5.2-57 0 0-53.8 25-57.4 85.6l-33.8-4.6s13-21.8-6.6-74c0 0-68.6 16.2-48.2 99.2l-0.8-1.6c-21.4-42.2-23-91.8-4-135.2 88 17.8 102.2-55 102.2-55-55.8-18.2-78-3.6-78-3.6l-6.2-35.4c63.4-6.4 87.4-64.2 87.4-64.2-24.2-3.6-60.2-2.8-60.2-2.8 9.6-26.6-33.8-90.8-33.8-90.8s-65 42.2-66.6 70.6c0 0-33-14.8-56.6-20.8 0 0-0.4 62.6 55.6 93.2l-19.6 30s-14.8-22.2-73.2-27.2c0 0-15.4 72.6 72.6 90.4 0.6 47.4-20.2 92.4-56.4 123l-1.4 1.2c51.2-68.4-5.6-110.2-5.6-110.2C382.4 506.8 386 532 386 532l-32.8-9c20.2-57.2-19.6-101.2-19.6-101.2-13 19.2-27 50.6-27 50.6-19-19.2-71.6-20.4-71.6-20.4s16.2 50 40 62.8c0 0-26.2 22.2-41 40.2 0 0 53.6 25.8 102.6-9.8l17.8 29s-25.2 3.6-53 52c0 0 31.4 23.8 68.6 7.4 21.2-9.4 45.2-10.8 66.8-2.2 23.2 9.4 45.2 27.6 38.2 62.6" fill="#7DAC51" /><path d="M475 694c7-35 34.4-43 59.8-42.6 23.2 0.4 44.8 11.2 60.6 28 27.8 29.6 66 19.8 66 19.8-7-55.4-28.6-68.4-28.6-68.4l27.8-19.8c31.4 52 90.6 49 90.6 49-6.6-22.2-22-53-22-53 26.8-2.6 61.2-42.4 61.2-42.4s-49-19.2-73.8-9c0 0-0.6-34.4-5.2-57 0 0-53.8 25-57.4 85.6l-33.8-4.6s13-21.8-6.6-74c0 0-68.6 16.2-48.2 99.2l-0.8-1.6c-21.4-42.2-23-91.8-4-135.2 88 17.8 102.2-55 102.2-55-55.8-18.2-78-3.6-78-3.6l-6.2-35.4c63.4-6.4 87.4-64.2 87.4-64.2-24.2-3.6-60.2-2.8-60.2-2.8 9.6-26.6-33.8-90.8-33.8-90.8s-65 42.2-66.6 70.6c0 0-33-14.8-56.6-20.8 0 0-0.4 62.6 55.6 93.2l-19.6 30s-14.8-22.2-73.2-27.2c0 0-15.4 72.6 72.6 90.4 0.6 47.4-20.2 92.4-56.4 123l-1.4 1.2c51.2-68.4-5.6-110.2-5.6-110.2C382.4 506.8 386 532 386 532l-32.8-9c20.2-57.2-19.6-101.2-19.6-101.2-13 19.2-27 50.6-27 50.6-19-19.2-71.6-20.4-71.6-20.4s16.2 50 40 62.8c0 0-26.2 22.2-41 40.2 0 0 53.6 25.8 102.6-9.8l17.8 29s-25.2 3.6-53 52c0 0 31.4 23.8 68.6 7.4 21.2-9.4 45.2-10.8 66.8-2.2 23.2 9.4 45.2 27.6 38.2 62.6" fill="#7DAC51" /><path d="M505.2 287s-33-14.8-56.6-20.8c0 0-0.4 62.6 55.6 93.2l-19.6 30s-14.8-22.2-73.2-27.2c0 0-15.4 72.6 72.6 90.4 0.6 47.4-20.2 92.4-56.4 123l-1.4 1.2c51.2-68.4-5.6-110.2-5.6-110.2-38.4 40.4-34.8 65.6-34.8 65.6l-32.8-9c20.2-57.2-19.6-101.2-19.6-101.2-13 19.2-27 50.6-27 50.6-19-19.2-71.6-20.4-71.6-20.4s16.2 50 40 62.8c0 0-26.2 22.2-41 40.2 0 0 53.6 25.8 102.6-9.8l17.8 29s-25.2 3.6-53 52c0 0 31.4 23.8 68.6 7.4 21.2-9.4 45.2-10.8 66.8-2.2 23.4 9.4 45.4 27.6 38.4 62.4l96.8-477.4c-0.2 0-65.2 42.2-66.6 70.4z" fill="#5B7C31" /><path d="M378.2 821.4c-5.4 0-10.4-3-12.8-8.2-3.2-7 0-15.4 7-18.6l10-4.4c40.6-18.4 70-55.4 79-99 2.8-13.8 2.8-33.6-29.8-46.8-17.4-7-37.2-6.2-56 2-44.2 19.6-81.2-7.8-82.6-9-5.6-4.2-7.2-12-3.6-18.2 12.6-21.8 26.4-38 41-48.4 1.4-1 2.6-1.8 4-2.6l-2.2-3.4c-51.2 28-101.8 4.2-104.2 3-3.8-1.8-6.6-5.4-7.6-9.6-1-4.2 0.2-8.6 2.8-12 8.8-10.6 21.2-22.4 30.2-30.8-19-20.6-30.2-54.2-31.8-58.8-1.4-4.4-0.6-9 2.2-12.6 2.8-3.6 7-5.6 11.6-5.6 4.8 0.2 40.2 1.4 65.4 13.8 5.4-11.2 13.4-26.4 21-37.8 2.4-3.6 6.4-5.8 10.6-6.2 4.2-0.4 8.4 1.4 11.4 4.6 1.8 1.8 38.8 43.8 26.6 100.8l4 1c3.8-13.6 13.4-33.4 36.2-57.6 4.8-5.2 12.8-5.8 18.4-1.6 1 0.8 25.4 19 31.4 51.4 5.2-13.6 8.6-28.2 9.4-43-26.8-7.4-46.8-20.8-59.4-40-19.8-30-13-62.8-12.8-64.2 1.4-7 7.8-11.6 14.8-11 35.4 3 56.8 12 69 20l3.2-4.8c-49.8-35.8-50-94.8-50-97.6 0-4.4 2-8.4 5.4-11 3.4-2.6 7.8-3.6 12-2.4 14.8 3.8 32.6 10.6 44.8 15.6 15.4-28.6 57.4-57.2 67.2-63.4 6.4-4.2 15-2.4 19.2 3.8 6.6 9.6 34.2 52.2 37.2 84.6 13.2 0.2 32.2 0.8 47.4 3 4.2 0.6 8 3.2 10 7 2.2 3.8 2.4 8.2 0.8 12.2-1 2.4-24.2 56.8-84 70.4l1 5.6c14.4-2.6 37.8-2.6 71.4 8.4 6.8 2.2 10.8 9 9.4 16-0.2 1.4-7 34.2-36.8 54.2-19 12.8-42.6 17.4-70.2 13.8-5 14-7.6 28.8-8 43.4 18.2-27.4 47.6-34.8 49-35 6.8-1.6 13.8 2.2 16.4 8.8 8.8 23.6 12.6 44.6 11.4 62.4-0.2 1.6-0.2 3.2-0.4 4.6l4 0.6c10.8-57.4 61.4-81.4 63.8-82.4 4-1.8 8.4-1.8 12.2 0.2 3.8 2 6.6 5.6 7.4 9.8 2.6 13.6 4 30.6 4.8 43 28-1.6 61.2 11 65.6 12.8 4.2 1.6 7.4 5.2 8.4 9.6 1 4.4 0 9-3 12.6-3.2 3.6-26.6 30.2-52.2 41.8 5.2 11.2 11.8 27 15.8 40.2 1.2 4.2 0.6 8.6-2 12-2.4 3.6-6.4 5.6-10.8 6-2.6 0.2-58.4 2.4-94.8-43.4l-3.4 2.4c8 11.6 17.4 31.6 21.6 64.6 0.8 7-3.6 13.6-10.4 15.4-1.8 0.4-46.6 11.4-79.6-23.8-14-15-32-23.4-50.8-23.6-35.2-0.8-43 17.6-45.8 31.4-10.6 52.4-46 97-94.8 119l-10 4.4c-1.8 0.2-3.8 0.6-5.6 0.6z m154.4-184h2.2c26.4 0.4 51.4 12 70.6 32.6 13 13.8 28.8 16.8 39.6 17-6.6-32.2-18.4-42.8-20-44.2-4.2-2.2-6.6-6.2-7-11-0.4-4.8 2.4-9.4 6.2-12.2l27.8-19.8c0.8-0.6 1.6-1 2.4-1.4h-2.8l-33.8-4.6c-4.8-0.6-9.2-3.4-11.2-7.8s-1.8-9 1-13c0.8-2 6.4-16.8-3-48.6-15.2 8.2-38 29-26 77.4 1.8 7-2 14-8.8 16.4s-14.2-0.4-17.4-6.8l-0.8-1.6c-23.4-46-25-99.8-4.4-147.2 2.6-6 9.2-9.4 15.6-8.2 30.8 6.2 54.4 1 70.2-15.8 5.2-5.4 8.6-11.2 11-16.2-34.6-8.8-50.4-2-52.4-1-3.8 2.8-8.6 3.2-13 1.4-4.6-1.8-7.4-6-8.4-10.8l-6.2-35.4c-0.6-3.8 0.2-7.8 2.6-10.8s5.8-5 9.8-5.4c33.6-3.4 54.6-23.4 65.6-38.4-18.6-1-36.4-0.6-36.8-0.6-4.6 0-9-2-11.6-5.8s-3.4-8.6-1.8-13c3.8-10.2-8.8-40.2-24.6-66.4-24.8 18-48 40.6-48.6 51.4-0.2 4.6-2.8 8.8-6.6 11.2-4 2.4-8.8 2.8-13 0.8-0.2-0.2-16.6-7.4-34.2-13.8 4.4 18.2 15.8 44.8 45.4 61 3.4 1.8 6 5 6.8 8.8s0.2 7.8-1.8 11l-19.6 30c-2.6 4-7 7-11.8 6.8-4.8-0.2-9-2.4-11.4-6.4-1.4-1.6-13.4-14-48.6-19.4 0.2 5.4 1.2 12.2 3.8 19.2 8 21.4 27.8 35.6 58.6 41.8 6.4 1.4 11.2 7 11.2 13.6 0.6 51.8-21.8 100.4-61.4 133.8l-1.4 1.2c-5.4 4.6-13.4 4.4-18.6-0.6-5.2-4.8-5.8-12.8-1.6-18.6 14.4-19.4 20.6-37.8 18-54.8-1.6-11.4-7-20.4-11.8-26.6-20.8 25.4-21.6 41.4-21.6 43.4 1 4.6-0.8 9-4.2 12.4-3.6 3.4-8.6 4.2-13.4 2.8l-32.8-9c-1-0.2-1.8-0.6-2.6-1 0.6 0.6 1.2 1.4 1.8 2.2l17.8 29c2.6 4.2 3.2 9.4 1 13.6-2.2 4.2-6 7-10.6 7.6-2 0.6-17 5.8-35.6 33 10 4 25.8 7.4 43-0.4 25.6-11.4 53.2-12.2 77.8-2.4 19.8 8 34 19.6 41.6 34 12.8-9.2 29.4-14.4 49.8-14.4z m127.8-40.4c1 0 2 0 2.8 0.2 3.8 0.8 7.2 3.2 9.2 6.4 16 26.6 40.6 36.4 58 40.2-6.4-15.8-13.8-30.4-13.8-30.6-2-4.2-2-9 0.2-13s6.4-6.8 11-7.2c10.2-1 24.6-11.2 36.6-22-15.6-4-33-6.4-42.6-2.4-4.2 1.8-9.2 1.2-13-1.2s-6.2-6.8-6.4-11.4c0-0.2-0.4-16.4-2-33.6-13.6 11.2-30.8 31.4-32.6 62.6-0.2 3.8-2 7.6-5 10-1 0.8-2.2 1.4-3.2 2h0.8z m-303.6-8.8z m251.2-15.6z m-349-24c17.4 3.4 43.8 3.8 69-14.4 3.2-2.2 7.2-3.2 11-2.4 1.2 0.2 2.4 0.6 3.6 1.2-0.8-1-1.6-2-2.2-3.2-1.8-3.4-2-7.6-0.8-11.2 10.4-29.2 2.4-54.6-5.8-70.2-8.2 15-14.8 29.8-14.8 30-1.8 4.2-5.8 7.2-10.2 8-4.6 0.8-9.2-0.6-12.4-4-7.4-7.4-24.6-11.8-40.2-14.2 6.8 14.6 16 29.6 25 34.4 4 2.2 6.8 6.2 7.2 10.8 0.4 4.6-1.4 9.2-4.8 12.2 0 0.2-12.4 10.8-24.6 23z m333.4-127.2" fill="#463218" /></svg>
