<?xml version="1.0" encoding="iso-8859-1"?> <!-- Uploaded to: SVG Repo, www.svgrepo.com, Generator: SVG Repo Mixer Tools --> <svg fill="#000000" height="800px" width="800px" version="1.1" id="Layer_1" xmlns="http://www.w3.org/2000/svg" xmlns:xlink="http://www.w3.org/1999/xlink"  	 viewBox="0 0 510.416 510.416" xml:space="preserve"> <g> 	<g> 		<path d="M509.553,70.816c0.4-1.2-1.6-2.4-3.2-2l-36,5.6l6.4-35.2c0.4-1.2,0-2.4-1.2-3.6c-0.8-0.8-2.4-1.2-3.6-1.2l-35.6,6l6-35.6 			c0.4-1.6-0.8-3.6-2.4-4.4c-1.6-0.8-3.6-0.4-4.8,0.8c-2.4,2.8-246,274.8-377.6,407.6c-12.8,2.4-25.2,8.8-33.6,16.8 			c-8,8-12,18.8-11.2,29.6c0.4,6.4,2.4,12.4,6,18.4l-16,6.8c-2,0.8-2.8,3.2-2,5.2c0.8,1.6,2,2.4,3.6,2.4c0.4,0,1.2,0,1.6-0.4 			l17.2-7.6c0.4,0.4,0.4,0.8,0.8,1.2l-11.2,11.2c-1.6,1.6-1.6,4,0,5.6c0.8,0.8,2,1.2,2.8,1.2s2-0.4,2.8-1.2l11.2-11.2 			c0.4,0.4,0.4,0.4,0.8,0.8l-7.6,17.2c-0.8,2,0,4.4,2,5.2c0.4,0.4,1.2,0.4,1.6,0.4c1.6,0,3.2-0.8,3.6-2.4l6.8-15.6 			c6.8,4,14,6.4,21.6,6.4c10,0,19.2-4,26.8-11.6c8-8,14.4-20.8,16.8-33.6c125.2-131.2,404-375.6,406.8-378 			C509.953,74.416,510.353,72.416,509.553,70.816z M94.753,451.216c-2,11.6-8,23.2-15.2,30.4c-6,6-13.2,9.2-21.2,9.2 			c-9.2,0-18.8-4.4-26.4-12c-7.2-7.2-11.2-15.6-12-24c-0.8-8.8,2.4-16.8,9.2-23.6c9.2-9.2,25.6-16,39.6-16c6,0,14,1.2,19.6,6.8 			C95.153,428.416,97.153,438.816,94.753,451.216z M103.553,441.216c-0.4-10-3.2-18.4-9.2-24.4c-2-2-4.8-4-7.6-5.6l74-77.6 			c1.6-1.6,1.6-4,0-5.6c-1.6-1.6-4-1.6-5.6,0l-76.8,80.4c-2.8-0.4-5.6-0.8-8.8-0.8c118.4-120,317.6-340.4,362.4-390.4l-4.4,27.6 			c-0.4,1.2,0.4,2.4,1.2,3.6c0.8,0.8,2.4,1.2,3.6,1.2l35.2-6l-6,34l-48.8,46.4c-1.6,1.6-1.6,4,0,5.6c0.8,0.8,2,1.2,2.8,1.2 			s2-0.4,2.8-1.2l48.8-47.2l26.8-4C443.153,123.216,217.953,322.816,103.553,441.216z"/> 	</g> </g> <g> 	<g> 		<path d="M252.753,232.016c-1.6-1.6-4-1.2-5.6,0.4l-69.6,72.4c-1.6,1.6-1.6,4,0,5.6c0.8,0.8,1.6,1.2,2.8,1.2c1.2,0,2-0.4,2.8-1.2 			l69.6-72.8C254.353,236.016,254.353,233.616,252.753,232.016z"/> 	</g> </g> <g> 	<g> 		<path d="M318.753,163.216c-1.6-1.6-4-1.6-5.6,0l-23.2,24.4c-1.6,1.6-1.6,4,0,5.6c0.8,0.8,1.6,1.2,2.8,1.2s2-0.4,2.8-1.2l23.2-24.4 			C320.353,167.216,320.353,164.816,318.753,163.216z"/> 	</g> </g> <g> 	<g> 		<path d="M193.153,336.816c-1.6-1.6-4.4-1.6-6,0l-46,44.8c-1.6,1.6-1.6,4,0,5.6c0.8,0.8,2,1.2,2.8,1.2s2-0.4,2.8-1.2l46.4-44.8 			C194.753,340.816,194.753,338.416,193.153,336.816z"/> 	</g> </g> <g> 	<g> 		<path d="M391.553,149.616c-1.6-1.6-4-1.6-5.6,0l-21.2,20.4c-1.6,1.6-1.6,4,0,5.6c0.8,0.8,2,1.2,2.8,1.2s2-0.4,2.8-1.2l21.2-20.4 			C393.153,153.616,393.153,151.216,391.553,149.616z"/> 	</g> </g> </svg>
