<?xml version="1.0" encoding="UTF-8" standalone="no"?>
<!-- Created with Inkscape (http://www.inkscape.org/) -->

<svg
   version="1.1"
   id="svg1448"
   xml:space="preserve"
   width="1066.6667"
   height="1066.6667"
   viewBox="0 0 1066.6667 1066.6667"
   sodipodi:docname="ear-of-corn-vector-publicdomainvectors.org.svg"
   inkscape:version="1.1.2 (b8e25be833, 2022-02-05)"
   xmlns:inkscape="http://www.inkscape.org/namespaces/inkscape"
   xmlns:sodipodi="http://sodipodi.sourceforge.net/DTD/sodipodi-0.dtd"
   xmlns="http://www.w3.org/2000/svg"
   xmlns:svg="http://www.w3.org/2000/svg"><defs
     id="defs1452"><clipPath
       clipPathUnits="userSpaceOnUse"
       id="clipPath1462"><path
         d="M 0,800 H 800 V 0 H 0 Z"
         id="path1460" /></clipPath></defs><sodipodi:namedview
     id="namedview1450"
     pagecolor="#ffffff"
     bordercolor="#666666"
     borderopacity="1.0"
     inkscape:pageshadow="2"
     inkscape:pageopacity="0.0"
     inkscape:pagecheckerboard="0"
     showgrid="false"
     inkscape:zoom="0.77906244"
     inkscape:cx="533.33337"
     inkscape:cy="533.33337"
     inkscape:window-width="1920"
     inkscape:window-height="1018"
     inkscape:window-x="-8"
     inkscape:window-y="-8"
     inkscape:window-maximized="1"
     inkscape:current-layer="g1454" /><g
     id="g1454"
     inkscape:groupmode="layer"
     inkscape:label="ear-of-corn-vector-publicdomainvectors.org"
     transform="matrix(1.3333333,0,0,-1.3333333,0,1066.6667)"><g
       id="g1456"><g
         id="g1458"
         clip-path="url(#clipPath1462)"><path
           d="m 409.56,448.844 c 48.539,66.894 97.651,131.792 167.927,123.04 -45.114,-28.031 -46.326,-165.175 -69.489,-247.764 -32.811,41.574 -65.625,83.15 -98.438,124.724"
           style="fill:#5b7824;fill-opacity:1;fill-rule:evenodd;stroke:none"
           id="path1464" /><path
           d="m 419.562,430.035 c -43.023,59.294 -86.557,116.819 -148.85,109.062 39.989,-24.847 41.063,-146.41 61.594,-219.618 29.087,36.853 58.171,73.705 87.256,110.556"
           style="fill:#5b7824;fill-opacity:1;fill-rule:evenodd;stroke:none"
           id="path1466" /><path
           d="m 406.925,703.242 c 23.357,0 29.338,-8.222 29.338,-18.365 0,-10.143 -3.833,-18.366 -29.338,-18.366 -25.504,0 -29.337,8.223 -29.337,18.366 0,10.143 5.978,18.365 29.337,18.365"
           style="fill:#dbaf00;fill-opacity:1;fill-rule:evenodd;stroke:none"
           id="path1468" /><path
           d="m 453.44,702.145 c -23.357,0 -29.337,-8.223 -29.337,-18.366 0,-10.143 3.833,-18.365 29.337,-18.365 25.504,0 29.337,8.222 29.337,18.365 0,10.143 -5.978,18.366 -29.337,18.366"
           style="fill:#cfa600;fill-opacity:1;fill-rule:evenodd;stroke:none"
           id="path1470" /><path
           d="m 485.586,292.478 c -28.023,0 -35.196,-9.865 -35.196,-22.034 0,-12.17 4.598,-22.033 35.196,-22.033 30.599,0 35.197,9.863 35.197,22.033 0,12.169 -7.174,22.034 -35.197,22.034"
           style="fill:#cfa600;fill-opacity:1;fill-rule:evenodd;stroke:none"
           id="path1472" /><path
           d="m 484.741,327.335 c -27.598,0 -34.664,-9.715 -34.664,-21.699 0,-11.985 4.528,-21.7 34.664,-21.7 30.136,0 34.663,9.715 34.663,21.7 0,11.984 -7.064,21.699 -34.663,21.699"
           style="fill:#cfa600;fill-opacity:1;fill-rule:evenodd;stroke:none"
           id="path1474" /><path
           d="m 483.896,362.193 c -27.174,0 -34.13,-9.567 -34.13,-21.366 0,-11.801 4.459,-21.367 34.13,-21.367 29.673,0 34.131,9.566 34.131,21.367 0,11.799 -6.955,21.366 -34.131,21.366"
           style="fill:#cfa600;fill-opacity:1;fill-rule:evenodd;stroke:none"
           id="path1476" /><path
           d="m 483.051,397.052 c -26.75,0 -33.597,-9.418 -33.597,-21.033 0,-11.617 4.388,-21.035 33.597,-21.035 29.209,0 33.598,9.418 33.598,21.035 0,11.615 -6.848,21.033 -33.598,21.033"
           style="fill:#cfa600;fill-opacity:1;fill-rule:evenodd;stroke:none"
           id="path1478" /><path
           d="m 482.207,431.908 c -26.327,0 -33.066,-9.266 -33.066,-20.7 0,-11.433 4.32,-20.699 33.066,-20.699 28.745,0 33.065,9.268 33.065,20.699 0,11.434 -6.739,20.7 -33.065,20.7"
           style="fill:#cfa600;fill-opacity:1;fill-rule:evenodd;stroke:none"
           id="path1480" /><path
           d="m 481.36,466.767 c -25.901,0 -32.531,-9.12 -32.531,-20.367 0,-11.248 4.25,-20.365 32.531,-20.365 28.286,0 32.534,9.117 32.536,20.365 -0.002,11.247 -6.632,20.367 -32.536,20.367"
           style="fill:#cfa600;fill-opacity:1;fill-rule:evenodd;stroke:none"
           id="path1482" /><path
           d="m 480.517,501.624 c -25.477,0 -31.999,-8.969 -31.999,-20.032 0,-11.064 4.18,-20.034 31.999,-20.034 27.821,0 32,8.97 32,20.034 0,11.063 -6.521,20.032 -32,20.032"
           style="fill:#cfa600;fill-opacity:1;fill-rule:evenodd;stroke:none"
           id="path1484" /><path
           d="m 479.672,536.482 c -25.055,0 -31.468,-8.82 -31.468,-19.699 0,-10.881 4.111,-19.7 31.468,-19.7 27.356,0 31.468,8.819 31.468,19.7 0,10.879 -6.413,19.699 -31.468,19.699"
           style="fill:#cfa600;fill-opacity:1;fill-rule:evenodd;stroke:none"
           id="path1486" /><path
           d="m 478.828,571.34 c -24.63,0 -30.935,-8.67 -30.935,-19.366 0,-10.696 4.042,-19.367 30.935,-19.367 26.893,0 30.935,8.671 30.935,19.367 0,10.696 -6.306,19.366 -30.935,19.366"
           style="fill:#cfa600;fill-opacity:1;fill-rule:evenodd;stroke:none"
           id="path1488" /><path
           d="m 477.983,606.197 c -24.206,0 -30.402,-8.521 -30.402,-19.032 0,-10.512 3.971,-19.032 30.402,-19.032 26.43,0 30.403,8.52 30.403,19.032 0,10.511 -6.198,19.032 -30.403,19.032"
           style="fill:#cfa600;fill-opacity:1;fill-rule:evenodd;stroke:none"
           id="path1490" /><path
           d="m 477.138,641.056 c -23.782,0 -29.868,-8.372 -29.868,-18.7 0,-10.327 3.901,-18.698 29.868,-18.698 25.967,0 29.871,8.371 29.871,18.698 0,10.328 -6.089,18.7 -29.871,18.7"
           style="fill:#cfa600;fill-opacity:1;fill-rule:evenodd;stroke:none"
           id="path1492" /><path
           d="m 476.293,675.914 c -23.357,-10e-4 -29.337,-8.224 -29.337,-18.366 0,-10.144 3.833,-18.366 29.337,-18.366 25.505,0 29.339,8.222 29.339,18.366 0,10.142 -5.982,18.365 -29.339,18.366"
           style="fill:#cfa600;fill-opacity:1;fill-rule:evenodd;stroke:none"
           id="path1494" /><path
           d="m 368.134,292.478 c 28.022,0 35.196,-9.865 35.196,-22.034 0,-12.169 -4.599,-22.033 -35.196,-22.033 -30.598,0 -35.196,9.863 -35.196,22.033 0,12.169 7.173,22.034 35.196,22.034"
           style="fill:#dbaf00;fill-opacity:1;fill-rule:evenodd;stroke:none"
           id="path1496" /><path
           d="m 368.979,327.335 c 27.598,0 34.665,-9.715 34.665,-21.699 0,-11.985 -4.53,-21.7 -34.665,-21.7 -30.134,0 -34.664,9.715 -34.664,21.7 0,11.984 7.065,21.699 34.664,21.699"
           style="fill:#dbaf00;fill-opacity:1;fill-rule:evenodd;stroke:none"
           id="path1498" /><path
           d="m 369.824,362.193 c 27.174,0 34.131,-9.567 34.131,-21.366 0,-11.801 -4.46,-21.367 -34.131,-21.367 -29.674,0 -34.131,9.566 -34.131,21.367 0,11.799 6.956,21.366 34.131,21.366"
           style="fill:#dbaf00;fill-opacity:1;fill-rule:evenodd;stroke:none"
           id="path1500" /><path
           d="m 370.669,397.052 c 26.75,0 33.598,-9.418 33.598,-21.033 0,-11.617 -4.389,-21.035 -33.598,-21.035 -29.209,0 -33.599,9.418 -33.599,21.035 0.001,11.615 6.849,21.033 33.599,21.033"
           style="fill:#dbaf00;fill-opacity:1;fill-rule:evenodd;stroke:none"
           id="path1502" /><path
           d="m 371.514,431.908 c 26.326,0 33.064,-9.266 33.064,-20.7 0,-11.431 -4.319,-20.699 -33.064,-20.699 -28.746,0 -33.067,9.268 -33.067,20.699 0,11.434 6.74,20.7 33.067,20.7"
           style="fill:#dbaf00;fill-opacity:1;fill-rule:evenodd;stroke:none"
           id="path1504" /><path
           d="m 372.359,466.767 c 25.902,0 32.532,-9.12 32.532,-20.367 0,-11.248 -4.25,-20.365 -32.532,-20.365 -28.284,0 -32.533,9.117 -32.533,20.365 0,11.247 6.628,20.367 32.533,20.367"
           style="fill:#dbaf00;fill-opacity:1;fill-rule:evenodd;stroke:none"
           id="path1506" /><path
           d="m 373.203,501.624 c 25.479,0 31.999,-8.969 31.999,-20.032 0,-11.064 -4.181,-20.034 -31.999,-20.034 -27.819,0 -32,8.97 -32,20.033 0,11.064 6.521,20.033 32,20.033"
           style="fill:#dbaf00;fill-opacity:1;fill-rule:evenodd;stroke:none"
           id="path1508" /><path
           d="m 374.048,536.482 c 25.055,0 31.468,-8.82 31.468,-19.699 0,-10.881 -4.112,-19.7 -31.468,-19.7 -27.357,0 -31.468,8.819 -31.468,19.7 0,10.879 6.413,19.699 31.468,19.699"
           style="fill:#dbaf00;fill-opacity:1;fill-rule:evenodd;stroke:none"
           id="path1510" /><path
           d="m 374.892,571.34 c 24.631,0 30.935,-8.67 30.935,-19.366 0,-10.696 -4.04,-19.367 -30.935,-19.367 -26.893,0 -30.935,8.671 -30.935,19.367 0,10.696 6.306,19.366 30.935,19.366"
           style="fill:#dbaf00;fill-opacity:1;fill-rule:evenodd;stroke:none"
           id="path1512" /><path
           d="m 375.736,606.197 c 24.208,0 30.403,-8.521 30.403,-19.032 0,-10.512 -3.971,-19.032 -30.403,-19.032 -26.427,0 -30.402,8.52 -30.402,19.032 0,10.511 6.198,19.032 30.402,19.032"
           style="fill:#dbaf00;fill-opacity:1;fill-rule:evenodd;stroke:none"
           id="path1514" /><path
           d="m 376.582,641.056 c 23.781,0 29.87,-8.372 29.87,-18.7 0,-10.327 -3.902,-18.698 -29.87,-18.698 -25.968,0 -29.869,8.371 -29.869,18.698 0,10.328 6.087,18.7 29.869,18.7"
           style="fill:#dbaf00;fill-opacity:1;fill-rule:evenodd;stroke:none"
           id="path1516" /><path
           d="m 377.427,675.914 c 23.357,0 29.337,-8.224 29.337,-18.366 0,-10.144 -3.833,-18.366 -29.337,-18.366 -25.504,0 -29.338,8.222 -29.338,18.366 0,10.142 5.98,18.365 29.338,18.366"
           style="fill:#dbaf00;fill-opacity:1;fill-rule:evenodd;stroke:none"
           id="path1518" /><path
           d="m 467.038,266.85 c -28.024,0 -35.196,-9.866 -35.196,-22.034 0,-12.169 4.596,-22.033 35.196,-22.033 30.598,0 35.194,9.864 35.194,22.033 0,12.168 -7.173,22.034 -35.194,22.034"
           style="fill:#e0b300;fill-opacity:1;fill-rule:evenodd;stroke:none"
           id="path1520" /><path
           d="m 467.038,266.85 c -4.384,0 -8.255,-0.242 -11.67,-0.696 -3.019,-2.537 -4.073,-6.049 -4.073,-9.969 0,-8.608 3.251,-15.801 24.895,-17.248 21.199,-1.416 24.753,5.041 24.889,13.396 -2.941,8.467 -12.099,14.517 -34.041,14.517"
           style="fill:#f5c503;fill-opacity:1;fill-rule:evenodd;stroke:none"
           id="path1522" /><path
           d="m 484.252,261.716 c -9.757,0.651 -12.254,-2.616 -12.254,-6.854 0,-4.237 1.601,-7.779 12.254,-8.49 10.656,-0.712 12.257,2.615 12.257,6.853 0,4.237 -2.499,7.839 -12.257,8.491"
           style="fill:#ffdf61;fill-opacity:1;fill-rule:evenodd;stroke:none"
           id="path1524" /><path
           d="m 466.078,305.705 c -28.022,0 -35.196,-9.865 -35.196,-22.033 0,-12.169 4.598,-22.032 35.196,-22.032 30.598,0 35.195,9.863 35.195,22.032 0,12.168 -7.172,22.033 -35.195,22.033"
           style="fill:#e0b300;fill-opacity:1;fill-rule:evenodd;stroke:none"
           id="path1526" /><path
           d="m 466.078,305.705 c -4.383,0 -8.254,-0.24 -11.67,-0.694 -3.018,-2.537 -4.073,-6.049 -4.073,-9.97 0,-8.606 3.252,-15.802 24.895,-17.247 21.199,-1.417 24.753,5.041 24.891,13.394 -2.941,8.468 -12.1,14.517 -34.043,14.517"
           style="fill:#f5c503;fill-opacity:1;fill-rule:evenodd;stroke:none"
           id="path1528" /><path
           d="m 483.293,300.573 c -9.758,0.652 -12.257,-2.618 -12.257,-6.854 0,-4.238 1.602,-7.781 12.257,-8.491 10.655,-0.712 12.256,2.617 12.256,6.854 0,4.237 -2.499,7.838 -12.256,8.491"
           style="fill:#ffdf61;fill-opacity:1;fill-rule:evenodd;stroke:none"
           id="path1530" /><path
           d="m 465.119,344.563 c -28.022,0 -35.196,-9.866 -35.196,-22.034 0,-12.169 4.597,-22.034 35.196,-22.034 30.598,0 35.194,9.865 35.194,22.034 0,12.168 -7.171,22.034 -35.194,22.034"
           style="fill:#e0b300;fill-opacity:1;fill-rule:evenodd;stroke:none"
           id="path1532" /><path
           d="m 465.119,344.563 c -4.384,0 -8.255,-0.243 -11.67,-0.697 -3.019,-2.535 -4.073,-6.049 -4.073,-9.97 0,-8.606 3.251,-15.8 24.895,-17.247 21.199,-1.415 24.753,5.043 24.891,13.397 -2.941,8.468 -12.1,14.517 -34.043,14.517"
           style="fill:#f5c503;fill-opacity:1;fill-rule:evenodd;stroke:none"
           id="path1534" /><path
           d="m 482.333,339.429 c -9.757,0.651 -12.256,-2.617 -12.256,-6.855 0,-4.237 1.603,-7.778 12.256,-8.491 10.656,-0.711 12.257,2.617 12.257,6.855 0,4.237 -2.499,7.839 -12.257,8.491"
           style="fill:#ffdf61;fill-opacity:1;fill-rule:evenodd;stroke:none"
           id="path1536" /><path
           d="m 464.159,383.418 c -28.022,0 -35.196,-9.865 -35.196,-22.032 0,-12.17 4.599,-22.035 35.196,-22.035 30.598,0 35.195,9.865 35.195,22.035 0,12.167 -7.172,22.032 -35.195,22.032"
           style="fill:#e0b300;fill-opacity:1;fill-rule:evenodd;stroke:none"
           id="path1538" /><path
           d="m 464.159,383.418 c -4.382,0 -8.254,-0.24 -11.67,-0.694 -3.019,-2.537 -4.073,-6.049 -4.073,-9.97 0,-8.608 3.253,-15.803 24.896,-17.248 21.198,-1.416 24.752,5.041 24.888,13.395 -2.939,8.468 -12.098,14.517 -34.041,14.517"
           style="fill:#f5c503;fill-opacity:1;fill-rule:evenodd;stroke:none"
           id="path1540" /><path
           d="m 481.374,378.284 c -9.758,0.652 -12.255,-2.617 -12.255,-6.852 0,-4.24 1.601,-7.781 12.255,-8.492 10.655,-0.712 12.256,2.616 12.256,6.854 0,4.236 -2.497,7.839 -12.256,8.49"
           style="fill:#ffdf61;fill-opacity:1;fill-rule:evenodd;stroke:none"
           id="path1542" /><path
           d="m 463.2,422.273 c -28.023,0 -35.197,-9.863 -35.197,-22.034 0,-12.166 4.599,-22.031 35.197,-22.031 30.598,0 35.195,9.865 35.195,22.031 0,12.171 -7.172,22.034 -35.195,22.034"
           style="fill:#e0b300;fill-opacity:1;fill-rule:evenodd;stroke:none"
           id="path1544" /><path
           d="m 463.2,422.273 c -4.382,0 -8.255,-0.242 -11.67,-0.694 -3.019,-2.537 -4.073,-6.049 -4.073,-9.97 0,-8.607 3.251,-15.8 24.896,-17.248 21.2,-1.416 24.752,5.041 24.89,13.396 -2.941,8.468 -12.099,14.516 -34.043,14.516"
           style="fill:#f5c503;fill-opacity:1;fill-rule:evenodd;stroke:none"
           id="path1546" /><path
           d="m 480.416,417.14 c -9.759,0.652 -12.257,-2.616 -12.257,-6.855 0,-4.235 1.602,-7.778 12.257,-8.489 10.654,-0.711 12.255,2.616 12.255,6.852 0,4.239 -2.497,7.84 -12.255,8.492"
           style="fill:#ffdf61;fill-opacity:1;fill-rule:evenodd;stroke:none"
           id="path1548" /><path
           d="m 462.24,461.131 c -28.022,0 -35.196,-9.865 -35.196,-22.034 0,-12.17 4.599,-22.034 35.196,-22.034 30.598,0 35.197,9.864 35.197,22.034 0,12.169 -7.174,22.034 -35.197,22.034"
           style="fill:#e0b300;fill-opacity:1;fill-rule:evenodd;stroke:none"
           id="path1550" /><path
           d="m 462.24,461.131 c -4.382,0 -8.254,-0.242 -11.668,-0.696 -3.021,-2.538 -4.075,-6.049 -4.075,-9.97 0,-8.608 3.253,-15.803 24.896,-17.248 21.2,-1.415 24.753,5.041 24.89,13.396 -2.941,8.469 -12.098,14.518 -34.043,14.518"
           style="fill:#f5c503;fill-opacity:1;fill-rule:evenodd;stroke:none"
           id="path1552" /><path
           d="m 479.455,455.996 c -9.758,0.651 -12.255,-2.616 -12.255,-6.853 0,-4.238 1.601,-7.78 12.255,-8.492 10.655,-0.713 12.256,2.617 12.256,6.854 0,4.237 -2.497,7.841 -12.256,8.491"
           style="fill:#ffdf61;fill-opacity:1;fill-rule:evenodd;stroke:none"
           id="path1554" /><path
           d="m 461.281,499.986 c -28.023,0 -35.197,-9.865 -35.197,-22.033 0,-12.17 4.599,-22.033 35.197,-22.033 30.598,0 35.197,9.863 35.197,22.033 0,12.168 -7.174,22.033 -35.197,22.033"
           style="fill:#e0b300;fill-opacity:1;fill-rule:evenodd;stroke:none"
           id="path1556" /><path
           d="m 461.281,499.986 c -4.382,0 -8.255,-0.241 -11.669,-0.695 -3.02,-2.537 -4.073,-6.049 -4.074,-9.969 0,-8.607 3.253,-15.802 24.896,-17.248 21.2,-1.417 24.753,5.041 24.89,13.396 -2.941,8.468 -12.099,14.515 -34.043,14.516"
           style="fill:#f5c503;fill-opacity:1;fill-rule:evenodd;stroke:none"
           id="path1558" /><path
           d="m 478.497,494.853 c -9.759,0.651 -12.257,-2.617 -12.257,-6.854 0,-4.237 1.602,-7.779 12.257,-8.491 10.654,-0.712 12.255,2.616 12.255,6.853 0,4.238 -2.497,7.84 -12.255,8.492"
           style="fill:#ffdf61;fill-opacity:1;fill-rule:evenodd;stroke:none"
           id="path1560" /><path
           d="m 460.321,538.842 c -28.022,0 -35.196,-9.864 -35.196,-22.033 0,-12.168 4.599,-22.034 35.196,-22.034 30.598,0 35.197,9.866 35.197,22.035 0,12.168 -7.174,22.032 -35.197,22.032"
           style="fill:#e0b300;fill-opacity:1;fill-rule:evenodd;stroke:none"
           id="path1562" /><path
           d="m 460.321,538.842 c -4.382,0 -8.254,-0.241 -11.668,-0.696 -3.019,-2.537 -4.073,-6.047 -4.073,-9.968 0,-8.608 3.251,-15.802 24.894,-17.248 21.2,-1.416 24.753,5.042 24.89,13.395 -2.941,8.468 -12.098,14.517 -34.043,14.517"
           style="fill:#f5c503;fill-opacity:1;fill-rule:evenodd;stroke:none"
           id="path1564" /><path
           d="m 477.537,533.709 c -9.759,0.651 -12.256,-2.616 -12.256,-6.854 0,-4.238 1.601,-7.78 12.256,-8.491 10.654,-0.712 12.255,2.616 12.255,6.854 0,4.237 -2.497,7.839 -12.255,8.491"
           style="fill:#ffdf61;fill-opacity:1;fill-rule:evenodd;stroke:none"
           id="path1566" /><path
           d="m 459.362,577.698 c -28.023,0 -35.197,-9.864 -35.197,-22.033 0,-12.169 4.599,-22.034 35.197,-22.034 30.598,0 35.197,9.865 35.197,22.034 0,12.169 -7.174,22.033 -35.197,22.033"
           style="fill:#e0b300;fill-opacity:1;fill-rule:evenodd;stroke:none"
           id="path1568" /><path
           d="m 459.362,577.698 c -4.382,0 -8.255,-0.241 -11.669,-0.695 -3.018,-2.537 -4.073,-6.048 -4.073,-9.97 0,-8.607 3.252,-15.802 24.895,-17.247 21.199,-1.416 24.753,5.042 24.89,13.396 -2.941,8.468 -12.099,14.516 -34.043,14.516"
           style="fill:#f5c503;fill-opacity:1;fill-rule:evenodd;stroke:none"
           id="path1570" /><path
           d="m 476.578,572.564 c -9.759,0.652 -12.257,-2.616 -12.257,-6.853 0,-4.237 1.602,-7.779 12.257,-8.491 10.653,-0.712 12.255,2.617 12.255,6.854 0,4.237 -2.498,7.839 -12.255,8.49"
           style="fill:#ffdf61;fill-opacity:1;fill-rule:evenodd;stroke:none"
           id="path1572" /><path
           d="m 458.402,616.555 c -28.022,0 -35.194,-9.866 -35.194,-22.034 0,-12.168 4.597,-22.034 35.194,-22.034 30.6,0 35.197,9.866 35.197,22.034 0,12.168 -7.174,22.034 -35.197,22.034"
           style="fill:#e0b300;fill-opacity:1;fill-rule:evenodd;stroke:none"
           id="path1574" /><path
           d="m 458.402,616.554 c -4.381,0 -8.253,-0.241 -11.668,-0.695 -3.019,-2.537 -4.073,-6.049 -4.073,-9.97 0,-8.607 3.251,-15.802 24.896,-17.247 21.198,-1.416 24.753,5.041 24.888,13.395 -2.941,8.468 -12.098,14.517 -34.043,14.517"
           style="fill:#f5c503;fill-opacity:1;fill-rule:evenodd;stroke:none"
           id="path1576" /><path
           d="m 475.618,611.421 c -9.759,0.652 -12.256,-2.617 -12.256,-6.854 0,-4.238 1.601,-7.779 12.256,-8.491 10.654,-0.712 12.255,2.617 12.255,6.854 0,4.237 -2.497,7.84 -12.255,8.491"
           style="fill:#ffdf61;fill-opacity:1;fill-rule:evenodd;stroke:none"
           id="path1578" /><path
           d="m 457.442,655.411 c -28.022,0 -35.194,-9.865 -35.194,-22.034 0,-12.169 4.597,-22.033 35.194,-22.033 30.599,0 35.198,9.864 35.198,22.033 0,12.169 -7.173,22.034 -35.198,22.034"
           style="fill:#e0b300;fill-opacity:1;fill-rule:evenodd;stroke:none"
           id="path1580" /><path
           d="m 457.442,655.411 c -4.38,0 -8.254,-0.242 -11.668,-0.695 -3.018,-2.537 -4.073,-6.049 -4.073,-9.97 0,-8.607 3.252,-15.802 24.895,-17.247 21.199,-1.416 24.754,5.041 24.889,13.395 -2.941,8.467 -12.098,14.517 -34.043,14.517"
           style="fill:#f5c503;fill-opacity:1;fill-rule:evenodd;stroke:none"
           id="path1582" /><path
           d="m 474.659,650.277 c -9.759,0.652 -12.257,-2.617 -12.257,-6.854 0,-4.237 1.602,-7.779 12.257,-8.49 10.654,-0.713 12.256,2.616 12.256,6.854 0,4.237 -2.499,7.838 -12.256,8.49"
           style="fill:#ffdf61;fill-opacity:1;fill-rule:evenodd;stroke:none"
           id="path1584" /><path
           d="m 456.483,694.266 c -28.022,0 -35.195,-9.864 -35.195,-22.033 0,-12.169 4.598,-22.033 35.195,-22.033 30.6,0 35.197,9.864 35.197,22.033 0,12.169 -7.172,22.033 -35.197,22.033"
           style="fill:#e0b300;fill-opacity:1;fill-rule:evenodd;stroke:none"
           id="path1586" /><path
           d="m 456.483,694.266 c -4.381,0 -8.253,-0.241 -11.668,-0.694 -3.019,-2.537 -4.073,-6.05 -4.073,-9.97 0,-8.608 3.251,-15.802 24.896,-17.248 21.198,-1.416 24.753,5.042 24.888,13.396 -2.941,8.468 -12.098,14.516 -34.043,14.516"
           style="fill:#f5c503;fill-opacity:1;fill-rule:evenodd;stroke:none"
           id="path1588" /><path
           d="m 473.699,689.133 c -9.759,0.652 -12.256,-2.616 -12.256,-6.853 0,-4.238 1.601,-7.78 12.256,-8.492 10.655,-0.712 12.257,2.617 12.257,6.854 0,4.237 -2.499,7.839 -12.257,8.491"
           style="fill:#ffdf61;fill-opacity:1;fill-rule:evenodd;stroke:none"
           id="path1590" /><path
           d="m 381.724,267.565 c 28.022,0 35.196,-9.864 35.196,-22.033 0,-12.17 -4.599,-22.033 -35.196,-22.033 -30.6,0 -35.197,9.863 -35.197,22.033 0,12.169 7.174,22.033 35.197,22.033"
           style="fill:#edbe00;fill-opacity:1;fill-rule:evenodd;stroke:none"
           id="path1592" /><path
           d="m 381.724,267.565 c 4.383,0 8.255,-0.241 11.668,-0.695 3.019,-2.537 4.073,-6.049 4.073,-9.97 0,-8.607 -3.251,-15.8 -24.894,-17.248 -21.198,-1.415 -24.755,5.041 -24.89,13.397 2.941,8.467 12.098,14.516 34.043,14.516"
           style="fill:#ffcc00;fill-opacity:1;fill-rule:evenodd;stroke:none"
           id="path1594" /><path
           d="m 364.508,262.432 c 9.757,0.651 12.256,-2.617 12.256,-6.854 0,-4.237 -1.601,-7.779 -12.256,-8.491 -10.654,-0.713 -12.257,2.616 -12.255,6.853 -0.002,4.238 2.497,7.84 12.255,8.492"
           style="fill:#ffdf61;fill-opacity:1;fill-rule:evenodd;stroke:none"
           id="path1596" /><path
           d="m 383.105,310.236 c 28.024,-0.002 35.198,-9.865 35.198,-22.034 0,-12.168 -4.599,-22.033 -35.198,-22.033 -30.598,0 -35.196,9.865 -35.196,22.033 0,12.169 7.174,22.034 35.196,22.034"
           style="fill:#edbe00;fill-opacity:1;fill-rule:evenodd;stroke:none"
           id="path1598" /><path
           d="m 383.105,310.236 c 4.384,0 8.255,-0.242 11.669,-0.696 3.019,-2.537 4.074,-6.049 4.074,-9.97 0,-8.607 -3.252,-15.8 -24.895,-17.247 -21.198,-1.416 -24.754,5.041 -24.89,13.397 2.941,8.466 12.099,14.516 34.042,14.516"
           style="fill:#ffcc00;fill-opacity:1;fill-rule:evenodd;stroke:none"
           id="path1600" /><path
           d="m 365.89,305.103 c 9.758,0.651 12.256,-2.618 12.256,-6.855 0,-4.237 -1.601,-7.778 -12.256,-8.491 -10.655,-0.711 -12.255,2.616 -12.255,6.854 0,4.238 2.497,7.84 12.255,8.492"
           style="fill:#ffdf61;fill-opacity:1;fill-rule:evenodd;stroke:none"
           id="path1602" /><path
           d="m 384.488,352.906 c 28.023,0 35.195,-9.865 35.195,-22.033 0,-12.169 -4.597,-22.034 -35.195,-22.034 -30.599,0 -35.196,9.865 -35.196,22.034 0,12.168 7.174,22.033 35.196,22.033"
           style="fill:#edbe00;fill-opacity:1;fill-rule:evenodd;stroke:none"
           id="path1604" /><path
           d="m 384.488,352.906 c 4.381,0 8.254,-0.242 11.668,-0.694 3.02,-2.537 4.073,-6.049 4.073,-9.972 0,-8.606 -3.251,-15.801 -24.893,-17.247 -21.199,-1.415 -24.755,5.043 -24.891,13.397 2.94,8.465 12.101,14.516 34.043,14.516"
           style="fill:#ffcc00;fill-opacity:1;fill-rule:evenodd;stroke:none"
           id="path1606" /><path
           d="m 367.271,347.772 c 9.76,0.652 12.257,-2.617 12.257,-6.854 0,-4.237 -1.6,-7.778 -12.257,-8.491 -10.653,-0.711 -12.254,2.617 -12.254,6.854 0,4.238 2.498,7.84 12.254,8.491"
           style="fill:#ffdf61;fill-opacity:1;fill-rule:evenodd;stroke:none"
           id="path1608" /><path
           d="m 385.868,395.576 c 28.023,0 35.196,-9.866 35.196,-22.033 0,-12.17 -4.598,-22.034 -35.196,-22.034 -30.597,0 -35.194,9.864 -35.194,22.034 0,12.167 7.172,22.033 35.194,22.033"
           style="fill:#edbe00;fill-opacity:1;fill-rule:evenodd;stroke:none"
           id="path1610" /><path
           d="m 385.868,395.576 c 4.384,0 8.256,-0.242 11.67,-0.695 3.02,-2.537 4.073,-6.049 4.073,-9.97 0,-8.607 -3.251,-15.803 -24.893,-17.248 -21.202,-1.415 -24.755,5.041 -24.891,13.397 2.94,8.466 12.099,14.516 34.041,14.516"
           style="fill:#ffcc00;fill-opacity:1;fill-rule:evenodd;stroke:none"
           id="path1612" /><path
           d="m 368.654,390.442 c 9.757,0.652 12.256,-2.616 12.256,-6.853 0,-4.237 -1.6,-7.779 -12.256,-8.491 -10.654,-0.713 -12.257,2.616 -12.257,6.853 0,4.237 2.499,7.839 12.257,8.491"
           style="fill:#ffdf61;fill-opacity:1;fill-rule:evenodd;stroke:none"
           id="path1614" /><path
           d="m 387.251,438.245 c 28.022,0 35.196,-9.863 35.196,-22.034 0,-12.166 -4.598,-22.031 -35.196,-22.031 -30.599,0 -35.195,9.865 -35.195,22.031 0,12.171 7.172,22.034 35.195,22.034"
           style="fill:#edbe00;fill-opacity:1;fill-rule:evenodd;stroke:none"
           id="path1616" /><path
           d="m 387.251,438.245 c 4.383,0 8.254,-0.242 11.669,-0.694 3.019,-2.537 4.073,-6.049 4.073,-9.97 0,-8.607 -3.251,-15.803 -24.895,-17.248 -21.199,-1.416 -24.753,5.042 -24.889,13.396 2.939,8.467 12.098,14.516 34.042,14.516"
           style="fill:#ffcc00;fill-opacity:1;fill-rule:evenodd;stroke:none"
           id="path1618" /><path
           d="m 370.036,433.111 c 9.757,0.653 12.256,-2.615 12.256,-6.852 0,-4.238 -1.601,-7.78 -12.256,-8.491 -10.656,-0.711 -12.257,2.616 -12.257,6.853 0,4.237 2.499,7.841 12.257,8.49"
           style="fill:#ffdf61;fill-opacity:1;fill-rule:evenodd;stroke:none"
           id="path1620" /><path
           d="m 388.633,480.916 c 28.022,0 35.196,-9.865 35.196,-22.033 0,-12.17 -4.599,-22.033 -35.196,-22.033 -30.598,0 -35.195,9.863 -35.196,22.033 10e-4,12.168 7.173,22.033 35.196,22.033"
           style="fill:#edbe00;fill-opacity:1;fill-rule:evenodd;stroke:none"
           id="path1622" /><path
           d="m 388.633,480.916 c 4.383,0 8.254,-0.242 11.67,-0.695 3.018,-2.537 4.073,-6.049 4.073,-9.97 0,-8.606 -3.252,-15.803 -24.896,-17.247 -21.2,-1.415 -24.752,5.041 -24.889,13.396 2.94,8.466 12.097,14.516 34.042,14.516"
           style="fill:#ffcc00;fill-opacity:1;fill-rule:evenodd;stroke:none"
           id="path1624" /><path
           d="m 371.418,475.782 c 9.758,0.653 12.257,-2.617 12.257,-6.853 -0.002,-4.24 -1.603,-7.781 -12.257,-8.491 -10.655,-0.713 -12.257,2.617 -12.257,6.854 0,4.236 2.499,7.839 12.257,8.49"
           style="fill:#ffdf61;fill-opacity:1;fill-rule:evenodd;stroke:none"
           id="path1626" /><path
           d="m 390.015,523.586 c 28.022,-10e-4 35.196,-9.865 35.196,-22.033 0,-12.17 -4.599,-22.033 -35.196,-22.033 -30.598,0 -35.197,9.863 -35.197,22.033 0,12.168 7.174,22.032 35.197,22.033"
           style="fill:#edbe00;fill-opacity:1;fill-rule:evenodd;stroke:none"
           id="path1628" /><path
           d="m 390.015,523.585 c 4.381,10e-4 8.254,-0.24 11.67,-0.694 3.019,-2.537 4.073,-6.048 4.073,-9.969 0,-8.608 -3.252,-15.802 -24.896,-17.248 -21.2,-1.416 -24.753,5.041 -24.89,13.395 2.941,8.468 12.098,14.517 34.043,14.516"
           style="fill:#ffcc00;fill-opacity:1;fill-rule:evenodd;stroke:none"
           id="path1630" /><path
           d="m 372.8,518.452 c 9.758,0.652 12.255,-2.616 12.255,-6.852 0,-4.239 -1.601,-7.781 -12.255,-8.493 -10.655,-0.711 -12.256,2.618 -12.256,6.855 0,4.236 2.497,7.838 12.256,8.49"
           style="fill:#ffdf61;fill-opacity:1;fill-rule:evenodd;stroke:none"
           id="path1632" /><path
           d="m 391.396,566.257 c 28.023,0 35.197,-9.864 35.197,-22.034 0,-12.168 -4.599,-22.033 -35.197,-22.033 -30.597,0 -35.196,9.865 -35.196,22.033 0,12.17 7.174,22.034 35.196,22.034"
           style="fill:#edbe00;fill-opacity:1;fill-rule:evenodd;stroke:none"
           id="path1634" /><path
           d="m 391.396,566.257 c 4.382,0 8.253,-0.241 11.67,-0.695 3.02,-2.538 4.074,-6.05 4.074,-9.97 0,-8.608 -3.251,-15.803 -24.896,-17.248 -21.2,-1.416 -24.753,5.041 -24.89,13.396 2.941,8.467 12.098,14.517 34.042,14.517"
           style="fill:#ffcc00;fill-opacity:1;fill-rule:evenodd;stroke:none"
           id="path1636" /><path
           d="m 374.183,561.123 c 9.756,0.651 12.254,-2.616 12.254,-6.853 0,-4.238 -1.601,-7.78 -12.254,-8.492 -10.657,-0.712 -12.257,2.617 -12.257,6.853 0,4.238 2.497,7.841 12.257,8.492"
           style="fill:#ffdf61;fill-opacity:1;fill-rule:evenodd;stroke:none"
           id="path1638" /><path
           d="m 392.778,608.926 c 28.022,0 35.196,-9.864 35.196,-22.033 0,-12.169 -4.597,-22.034 -35.196,-22.034 -30.597,0 -35.196,9.865 -35.196,22.034 0,12.169 7.174,22.033 35.196,22.033"
           style="fill:#edbe00;fill-opacity:1;fill-rule:evenodd;stroke:none"
           id="path1640" /><path
           d="m 392.778,608.926 c 4.382,0 8.253,-0.241 11.67,-0.695 3.02,-2.537 4.073,-6.05 4.073,-9.969 0,-8.608 -3.252,-15.803 -24.896,-17.248 -21.199,-1.416 -24.752,5.041 -24.89,13.395 2.942,8.468 12.1,14.517 34.043,14.517"
           style="fill:#ffcc00;fill-opacity:1;fill-rule:evenodd;stroke:none"
           id="path1642" /><path
           d="m 375.563,603.792 c 9.758,0.652 12.254,-2.616 12.254,-6.853 0,-4.238 -1.6,-7.779 -12.254,-8.491 -10.655,-0.712 -12.256,2.617 -12.255,6.854 0,4.237 2.498,7.839 12.255,8.49"
           style="fill:#ffdf61;fill-opacity:1;fill-rule:evenodd;stroke:none"
           id="path1644" /><path
           d="m 394.161,651.596 c 28.021,0 35.194,-9.864 35.194,-22.033 0,-12.169 -4.596,-22.033 -35.194,-22.033 -30.598,0 -35.198,9.864 -35.198,22.033 0.002,12.169 7.176,22.033 35.198,22.033"
           style="fill:#edbe00;fill-opacity:1;fill-rule:evenodd;stroke:none"
           id="path1646" /><path
           d="m 394.161,651.596 c 4.381,0 8.252,-0.241 11.668,-0.694 3.02,-2.537 4.075,-6.05 4.075,-9.97 0,-8.607 -3.253,-15.803 -24.897,-17.247 -21.198,-1.417 -24.753,5.041 -24.889,13.395 2.942,8.467 12.099,14.516 34.043,14.516"
           style="fill:#ffcc00;fill-opacity:1;fill-rule:evenodd;stroke:none"
           id="path1648" /><path
           d="m 376.944,646.463 c 9.76,0.651 12.255,-2.617 12.255,-6.854 0,-4.237 -1.6,-7.779 -12.255,-8.49 -10.653,-0.713 -12.255,2.615 -12.255,6.853 0,4.237 2.499,7.84 12.255,8.491"
           style="fill:#ffdf61;fill-opacity:1;fill-rule:evenodd;stroke:none"
           id="path1650" /><path
           d="m 395.541,694.266 c 28.022,0 35.196,-9.864 35.196,-22.033 0,-12.169 -4.598,-22.033 -35.196,-22.033 -30.598,0 -35.196,9.864 -35.196,22.033 0,12.169 7.174,22.033 35.196,22.033"
           style="fill:#edbe00;fill-opacity:1;fill-rule:evenodd;stroke:none"
           id="path1652" /><path
           d="m 395.541,694.266 c 4.384,0 8.255,-0.241 11.668,-0.694 3.02,-2.537 4.073,-6.05 4.073,-9.97 0,-8.608 -3.251,-15.802 -24.893,-17.248 -21.199,-1.416 -24.755,5.042 -24.891,13.396 2.941,8.468 12.099,14.516 34.043,14.516"
           style="fill:#ffcc00;fill-opacity:1;fill-rule:evenodd;stroke:none"
           id="path1654" /><path
           d="m 378.325,689.133 c 9.759,0.652 12.256,-2.616 12.256,-6.853 0,-4.238 -1.601,-7.78 -12.256,-8.491 -10.654,-0.713 -12.255,2.616 -12.255,6.853 0,4.237 2.497,7.839 12.255,8.491"
           style="fill:#ffdf61;fill-opacity:1;fill-rule:evenodd;stroke:none"
           id="path1656" /><path
           d="m 428.714,246.229 c 28.023,0 35.197,-9.864 35.197,-22.033 0,-12.169 -4.598,-22.033 -35.197,-22.033 -30.598,0 -35.196,9.864 -35.196,22.033 0,12.169 7.173,22.033 35.196,22.033"
           style="fill:#ffd83b;fill-opacity:1;fill-rule:evenodd;stroke:none"
           id="path1658" /><path
           d="m 428.714,246.229 c 4.382,0 8.255,-0.241 11.668,-0.695 3.021,-2.536 4.075,-6.049 4.075,-9.97 0,-8.607 -3.253,-15.8 -24.895,-17.246 -21.199,-1.417 -24.754,5.041 -24.891,13.395 2.941,8.467 12.1,14.516 34.043,14.516"
           style="fill:#ffe88c;fill-opacity:1;fill-rule:evenodd;stroke:none"
           id="path1660" /><path
           d="m 457.178,239.498 c 5.017,-3.964 6.733,-9.357 6.733,-15.302 0,-12.169 -4.598,-22.033 -35.197,-22.033 -6.963,0 -12.576,0.512 -17.098,1.444 39.921,0.475 45.999,13.801 45.999,30.176 0,1.953 -0.137,3.864 -0.437,5.715"
           style="fill:#edbe00;fill-opacity:1;fill-rule:evenodd;stroke:none"
           id="path1662" /><path
           d="m 412.689,241.385 c 9.759,0.652 12.257,-2.617 12.257,-6.855 0,-4.237 -1.601,-7.778 -12.257,-8.491 -10.653,-0.711 -12.254,2.616 -12.254,6.854 0,4.238 2.498,7.84 12.254,8.492"
           style="fill:#fff3c4;fill-opacity:1;fill-rule:evenodd;stroke:none"
           id="path1664" /><path
           d="m 428.714,288.573 c 28.023,0 35.197,-9.864 35.197,-22.033 0,-12.169 -4.598,-22.033 -35.197,-22.033 -30.596,0 -35.196,9.864 -35.196,22.033 0,12.169 7.173,22.033 35.196,22.033"
           style="fill:#ffd83b;fill-opacity:1;fill-rule:evenodd;stroke:none"
           id="path1666" /><path
           d="m 428.714,288.573 c 4.382,0 8.255,-0.241 11.67,-0.695 3.019,-2.537 4.073,-6.049 4.073,-9.97 0,-8.607 -3.253,-15.801 -24.895,-17.248 -21.199,-1.415 -24.753,5.041 -24.891,13.397 2.943,8.466 12.1,14.516 34.043,14.516"
           style="fill:#ffe88c;fill-opacity:1;fill-rule:evenodd;stroke:none"
           id="path1668" /><path
           d="m 457.178,281.842 c 5.017,-3.962 6.733,-9.358 6.733,-15.302 0,-12.169 -4.598,-22.033 -35.197,-22.033 -6.963,0 -12.576,0.512 -17.098,1.444 39.921,0.475 45.999,13.801 45.999,30.176 0,1.953 -0.137,3.864 -0.437,5.715"
           style="fill:#edbe00;fill-opacity:1;fill-rule:evenodd;stroke:none"
           id="path1670" /><path
           d="m 412.691,283.729 c 9.757,0.65 12.255,-2.618 12.255,-6.855 0,-4.237 -1.601,-7.778 -12.255,-8.491 -10.655,-0.711 -12.256,2.616 -12.256,6.853 0,4.239 2.499,7.841 12.256,8.493"
           style="fill:#fff3c4;fill-opacity:1;fill-rule:evenodd;stroke:none"
           id="path1672" /><path
           d="m 428.714,330.916 c 28.023,0 35.197,-9.863 35.197,-22.032 0,-12.169 -4.598,-22.033 -35.197,-22.033 -30.596,0 -35.196,9.864 -35.196,22.033 0,12.169 7.175,22.032 35.196,22.032"
           style="fill:#ffd83b;fill-opacity:1;fill-rule:evenodd;stroke:none"
           id="path1674" /><path
           d="m 428.714,330.916 c 4.382,0 8.255,-0.24 11.67,-0.694 3.019,-2.537 4.073,-6.049 4.073,-9.97 0,-8.607 -3.253,-15.801 -24.895,-17.248 -21.199,-1.415 -24.753,5.041 -24.891,13.396 2.941,8.467 12.1,14.516 34.043,14.516"
           style="fill:#ffe88c;fill-opacity:1;fill-rule:evenodd;stroke:none"
           id="path1676" /><path
           d="m 457.178,324.186 c 5.017,-3.964 6.733,-9.358 6.733,-15.302 0,-12.169 -4.598,-22.033 -35.197,-22.033 -6.963,0 -12.576,0.511 -17.098,1.444 39.921,0.475 45.999,13.801 45.999,30.174 0,1.955 -0.137,3.866 -0.437,5.717"
           style="fill:#edbe00;fill-opacity:1;fill-rule:evenodd;stroke:none"
           id="path1678" /><path
           d="m 412.691,326.072 c 9.757,0.651 12.255,-2.617 12.255,-6.854 0,-4.238 -1.601,-7.779 -12.255,-8.491 -10.655,-0.711 -12.256,2.616 -12.256,6.853 0,4.238 2.499,7.841 12.256,8.492"
           style="fill:#fff3c4;fill-opacity:1;fill-rule:evenodd;stroke:none"
           id="path1680" /><path
           d="m 428.714,373.261 c 28.023,0 35.197,-9.866 35.197,-22.033 0,-12.17 -4.598,-22.034 -35.197,-22.034 -30.596,0 -35.196,9.864 -35.196,22.034 0,12.167 7.175,22.033 35.196,22.033"
           style="fill:#ffd83b;fill-opacity:1;fill-rule:evenodd;stroke:none"
           id="path1682" /><path
           d="m 428.714,373.261 c 4.382,0 8.255,-0.241 11.67,-0.696 3.019,-2.537 4.073,-6.048 4.073,-9.969 0,-8.608 -3.253,-15.803 -24.895,-17.248 -21.199,-1.415 -24.753,5.041 -24.891,13.395 2.941,8.468 12.1,14.518 34.043,14.518"
           style="fill:#ffe88c;fill-opacity:1;fill-rule:evenodd;stroke:none"
           id="path1684" /><path
           d="m 457.178,366.529 c 5.017,-3.964 6.733,-9.357 6.733,-15.301 0,-12.169 -4.598,-22.034 -35.197,-22.034 -6.963,0 -12.576,0.512 -17.098,1.445 39.921,0.474 45.999,13.8 45.999,30.174 0,1.955 -0.137,3.864 -0.437,5.716"
           style="fill:#edbe00;fill-opacity:1;fill-rule:evenodd;stroke:none"
           id="path1686" /><path
           d="m 412.691,368.416 c 9.757,0.65 12.255,-2.619 12.255,-6.854 0,-4.24 -1.601,-7.781 -12.255,-8.492 -10.655,-0.713 -12.256,2.617 -12.256,6.854 0,4.236 2.499,7.839 12.256,8.492"
           style="fill:#fff3c4;fill-opacity:1;fill-rule:evenodd;stroke:none"
           id="path1688" /><path
           d="m 428.714,415.604 c 28.023,0 35.197,-9.866 35.197,-22.033 0,-12.17 -4.598,-22.033 -35.197,-22.033 -30.596,0 -35.196,9.863 -35.196,22.033 0,12.167 7.175,22.033 35.196,22.033"
           style="fill:#ffd83b;fill-opacity:1;fill-rule:evenodd;stroke:none"
           id="path1690" /><path
           d="m 428.714,415.604 c 4.382,0 8.255,-0.241 11.67,-0.695 3.019,-2.537 4.073,-6.049 4.073,-9.97 0,-8.607 -3.253,-15.802 -24.895,-17.248 -21.199,-1.415 -24.753,5.041 -24.891,13.397 2.943,8.467 12.1,14.516 34.043,14.516"
           style="fill:#ffe88c;fill-opacity:1;fill-rule:evenodd;stroke:none"
           id="path1692" /><path
           d="m 457.178,408.873 c 5.017,-3.964 6.733,-9.357 6.733,-15.302 0,-12.17 -4.598,-22.033 -35.197,-22.033 -6.963,0 -12.576,0.512 -17.098,1.444 39.921,0.475 45.999,13.801 45.999,30.174 0,1.955 -0.137,3.865 -0.437,5.717"
           style="fill:#edbe00;fill-opacity:1;fill-rule:evenodd;stroke:none"
           id="path1694" /><path
           d="m 412.691,410.758 c 9.757,0.652 12.255,-2.617 12.255,-6.855 0,-4.235 -1.601,-7.776 -12.255,-8.489 -10.655,-0.713 -12.256,2.616 -12.256,6.854 0,4.236 2.499,7.838 12.256,8.49"
           style="fill:#fff3c4;fill-opacity:1;fill-rule:evenodd;stroke:none"
           id="path1696" /><path
           d="m 428.714,457.947 c 28.023,0 35.197,-9.865 35.197,-22.034 0,-12.168 -4.598,-22.033 -35.197,-22.033 -30.596,0 -35.196,9.865 -35.196,22.033 0,12.169 7.175,22.034 35.196,22.034"
           style="fill:#ffd83b;fill-opacity:1;fill-rule:evenodd;stroke:none"
           id="path1698" /><path
           d="m 428.714,457.947 c 4.382,0 8.255,-0.242 11.67,-0.694 3.019,-2.539 4.073,-6.051 4.073,-9.97 0,-8.607 -3.253,-15.803 -24.895,-17.248 -21.199,-1.417 -24.753,5.041 -24.891,13.396 2.941,8.465 12.1,14.516 34.043,14.516"
           style="fill:#ffe88c;fill-opacity:1;fill-rule:evenodd;stroke:none"
           id="path1700" /><path
           d="m 457.178,451.217 c 5.017,-3.964 6.733,-9.36 6.733,-15.304 0,-12.168 -4.598,-22.031 -35.197,-22.031 -6.963,0 -12.576,0.51 -17.098,1.444 39.921,0.473 45.999,13.801 45.999,30.174 0,1.954 -0.137,3.864 -0.437,5.717"
           style="fill:#edbe00;fill-opacity:1;fill-rule:evenodd;stroke:none"
           id="path1702" /><path
           d="m 412.691,453.102 c 9.757,0.651 12.255,-2.618 12.255,-6.855 0,-4.237 -1.601,-7.778 -12.255,-8.489 -10.655,-0.713 -12.256,2.615 -12.256,6.852 0,4.238 2.499,7.84 12.256,8.492"
           style="fill:#fff3c4;fill-opacity:1;fill-rule:evenodd;stroke:none"
           id="path1704" /><path
           d="m 428.714,500.29 c 28.023,10e-4 35.197,-9.864 35.197,-22.033 0,-12.168 -4.598,-22.033 -35.197,-22.033 -30.596,0 -35.196,9.865 -35.196,22.033 0,12.169 7.175,22.034 35.196,22.033"
           style="fill:#ffd83b;fill-opacity:1;fill-rule:evenodd;stroke:none"
           id="path1706" /><path
           d="m 428.714,500.29 c 4.382,10e-4 8.255,-0.241 11.67,-0.694 3.019,-2.537 4.073,-6.05 4.073,-9.97 0,-8.608 -3.253,-15.803 -24.895,-17.248 -21.199,-1.416 -24.753,5.042 -24.891,13.396 2.943,8.467 12.1,14.516 34.043,14.516"
           style="fill:#ffe88c;fill-opacity:1;fill-rule:evenodd;stroke:none"
           id="path1708" /><path
           d="m 457.178,493.56 c 5.017,-3.963 6.733,-9.358 6.733,-15.302 0,-12.169 -4.598,-22.034 -35.197,-22.034 -6.963,0 -12.576,0.511 -17.098,1.445 39.921,0.474 45.999,13.802 45.999,30.174 0,1.955 -0.137,3.865 -0.437,5.717"
           style="fill:#edbe00;fill-opacity:1;fill-rule:evenodd;stroke:none"
           id="path1710" /><path
           d="m 412.691,495.445 c 9.757,0.652 12.255,-2.617 12.255,-6.854 0,-4.237 -1.601,-7.779 -12.255,-8.49 -10.655,-0.712 -12.256,2.616 -12.256,6.853 0,4.237 2.499,7.839 12.256,8.491"
           style="fill:#fff3c4;fill-opacity:1;fill-rule:evenodd;stroke:none"
           id="path1712" /><path
           d="m 428.714,542.634 c 28.023,0 35.197,-9.865 35.197,-22.033 0,-12.169 -4.598,-22.034 -35.197,-22.034 -30.596,0 -35.196,9.865 -35.196,22.034 0,12.168 7.175,22.033 35.196,22.033"
           style="fill:#ffd83b;fill-opacity:1;fill-rule:evenodd;stroke:none"
           id="path1714" /><path
           d="m 428.714,542.634 c 4.382,0 8.255,-0.241 11.67,-0.696 3.019,-2.537 4.073,-6.049 4.073,-9.969 0,-8.608 -3.253,-15.802 -24.895,-17.247 -21.199,-1.416 -24.753,5.041 -24.891,13.394 2.941,8.468 12.1,14.518 34.043,14.518"
           style="fill:#ffe88c;fill-opacity:1;fill-rule:evenodd;stroke:none"
           id="path1716" /><path
           d="m 457.178,535.903 c 5.017,-3.964 6.733,-9.358 6.733,-15.302 0,-12.169 -4.598,-22.034 -35.197,-22.034 -6.963,0 -12.576,0.512 -17.098,1.446 39.921,0.472 45.999,13.8 45.999,30.173 0,1.956 -0.137,3.865 -0.437,5.717"
           style="fill:#edbe00;fill-opacity:1;fill-rule:evenodd;stroke:none"
           id="path1718" /><path
           d="m 412.691,537.788 c 9.757,0.652 12.255,-2.616 12.255,-6.854 0,-4.237 -1.601,-7.779 -12.255,-8.491 -10.655,-0.712 -12.256,2.618 -12.256,6.855 0,4.237 2.499,7.839 12.256,8.49"
           style="fill:#fff3c4;fill-opacity:1;fill-rule:evenodd;stroke:none"
           id="path1720" /><path
           d="m 428.714,584.978 c 28.023,0 35.197,-9.866 35.197,-22.035 0,-12.168 -4.598,-22.033 -35.197,-22.033 -30.596,0 -35.196,9.865 -35.196,22.033 0,12.169 7.175,22.035 35.196,22.035"
           style="fill:#ffd83b;fill-opacity:1;fill-rule:evenodd;stroke:none"
           id="path1722" /><path
           d="m 428.714,584.978 c 4.382,0 8.255,-0.242 11.67,-0.696 3.019,-2.537 4.073,-6.049 4.073,-9.969 0,-8.608 -3.253,-15.802 -24.895,-17.248 -21.199,-1.416 -24.753,5.041 -24.891,13.395 2.943,8.468 12.1,14.518 34.043,14.518"
           style="fill:#ffe88c;fill-opacity:1;fill-rule:evenodd;stroke:none"
           id="path1724" /><path
           d="m 457.178,578.247 c 5.017,-3.964 6.733,-9.358 6.733,-15.303 0,-12.169 -4.598,-22.034 -35.197,-22.034 -6.963,0 -12.576,0.513 -17.098,1.446 39.921,0.474 45.999,13.801 45.999,30.174 0,1.955 -0.137,3.866 -0.437,5.717"
           style="fill:#edbe00;fill-opacity:1;fill-rule:evenodd;stroke:none"
           id="path1726" /><path
           d="m 412.691,580.132 c 9.757,0.652 12.255,-2.617 12.255,-6.854 0,-4.238 -1.601,-7.779 -12.255,-8.491 -10.655,-0.712 -12.256,2.617 -12.256,6.855 0,4.237 2.499,7.838 12.256,8.49"
           style="fill:#fff3c4;fill-opacity:1;fill-rule:evenodd;stroke:none"
           id="path1728" /><path
           d="m 428.714,627.32 c 28.023,10e-4 35.197,-9.864 35.197,-22.032 0,-12.169 -4.598,-22.034 -35.197,-22.034 -30.596,0 -35.196,9.865 -35.196,22.034 0,12.168 7.173,22.032 35.196,22.032"
           style="fill:#ffd83b;fill-opacity:1;fill-rule:evenodd;stroke:none"
           id="path1730" /><path
           d="m 428.714,627.32 c 4.382,0 8.255,-0.241 11.67,-0.695 3.019,-2.536 4.073,-6.048 4.073,-9.969 0,-8.608 -3.253,-15.802 -24.895,-17.247 -21.199,-1.417 -24.753,5.041 -24.891,13.395 2.943,8.467 12.1,14.516 34.043,14.516"
           style="fill:#ffe88c;fill-opacity:1;fill-rule:evenodd;stroke:none"
           id="path1732" /><path
           d="m 457.178,620.59 c 5.017,-3.964 6.733,-9.358 6.733,-15.302 0,-12.169 -4.598,-22.034 -35.197,-22.034 -6.963,0 -12.576,0.512 -17.098,1.445 39.921,0.474 45.999,13.801 45.999,30.175 0,1.954 -0.137,3.865 -0.437,5.716"
           style="fill:#edbe00;fill-opacity:1;fill-rule:evenodd;stroke:none"
           id="path1734" /><path
           d="m 412.691,622.476 c 9.757,0.651 12.255,-2.617 12.255,-6.854 0,-4.238 -1.601,-7.78 -12.255,-8.491 -10.655,-0.713 -12.256,2.616 -12.256,6.853 0,4.238 2.499,7.84 12.256,8.492"
           style="fill:#fff3c4;fill-opacity:1;fill-rule:evenodd;stroke:none"
           id="path1736" /><path
           d="m 428.714,669.664 c 28.023,0 35.197,-9.865 35.197,-22.034 0,-12.168 -4.598,-22.032 -35.197,-22.032 -30.596,0 -35.196,9.864 -35.196,22.032 0,12.169 7.175,22.034 35.196,22.034"
           style="fill:#ffd83b;fill-opacity:1;fill-rule:evenodd;stroke:none"
           id="path1738" /><path
           d="m 428.714,669.664 c 4.382,0 8.255,-0.241 11.67,-0.695 3.019,-2.536 4.073,-6.049 4.073,-9.969 0,-8.608 -3.253,-15.802 -24.895,-17.248 -21.199,-1.417 -24.753,5.041 -24.891,13.395 2.943,8.468 12.1,14.517 34.043,14.517"
           style="fill:#ffe88c;fill-opacity:1;fill-rule:evenodd;stroke:none"
           id="path1740" /><path
           d="m 457.178,662.934 c 5.017,-3.964 6.733,-9.358 6.733,-15.303 0,-12.169 -4.598,-22.033 -35.197,-22.033 -6.963,0 -12.576,0.512 -17.098,1.445 39.921,0.474 45.999,13.801 45.999,30.174 0,1.955 -0.137,3.866 -0.437,5.717"
           style="fill:#edbe00;fill-opacity:1;fill-rule:evenodd;stroke:none"
           id="path1742" /><path
           d="m 412.691,664.818 c 9.757,0.653 12.255,-2.616 12.255,-6.854 0,-4.236 -1.601,-7.778 -12.255,-8.489 -10.655,-0.713 -12.256,2.616 -12.256,6.853 0,4.237 2.499,7.839 12.256,8.49"
           style="fill:#fff3c4;fill-opacity:1;fill-rule:evenodd;stroke:none"
           id="path1744" /><path
           d="m 428.714,712.008 c 28.023,0 35.197,-9.865 35.197,-22.034 0,-12.169 -4.598,-22.034 -35.197,-22.034 -30.598,0 -35.196,9.866 -35.196,22.034 0,12.169 7.173,22.034 35.196,22.034"
           style="fill:#ffd83b;fill-opacity:1;fill-rule:evenodd;stroke:none"
           id="path1746" /><path
           d="m 428.714,712.008 c 4.382,0 8.255,-0.242 11.668,-0.695 3.021,-2.538 4.075,-6.05 4.075,-9.97 0,-8.608 -3.253,-15.801 -24.895,-17.247 -21.199,-1.417 -24.754,5.041 -24.891,13.395 2.941,8.467 12.1,14.517 34.043,14.517"
           style="fill:#ffe88c;fill-opacity:1;fill-rule:evenodd;stroke:none"
           id="path1748" /><path
           d="m 457.178,705.276 c 5.017,-3.963 6.733,-9.358 6.733,-15.302 0,-12.169 -4.598,-22.034 -35.197,-22.034 -6.963,0 -12.576,0.513 -17.098,1.446 39.921,0.473 45.999,13.802 45.999,30.174 0,1.955 -0.137,3.865 -0.437,5.716"
           style="fill:#edbe00;fill-opacity:1;fill-rule:evenodd;stroke:none"
           id="path1750" /><path
           d="m 412.689,707.162 c 9.759,0.651 12.257,-2.617 12.257,-6.854 0,-4.237 -1.601,-7.779 -12.257,-8.49 -10.653,-0.712 -12.254,2.616 -12.254,6.853 0,4.237 2.498,7.839 12.254,8.491"
           style="fill:#fff3c4;fill-opacity:1;fill-rule:evenodd;stroke:none"
           id="path1752" /><path
           d="M 383.164,202.83 C 577.713,152.772 525.753,440.354 597.829,449.817 481.605,516.783 455.242,283.256 383.164,202.83"
           style="fill:#84a644;fill-opacity:1;fill-rule:evenodd;stroke:none"
           id="path1754" /><path
           d="m 391.056,200.977 c 20.679,-4.498 38.445,-5.022 53.767,-2.363 -10.236,20.465 -16.193,45.382 -20.58,71.935 -8.783,-18.685 -17.942,-36.107 -27.928,-50.749 z"
           style="fill:#759639;fill-opacity:1;fill-rule:evenodd;stroke:none"
           id="path1756" /><path
           d="m 597.345,450.08 c -70.043,39.935 -107.38,-29.497 -141.874,-108.39 29.941,61.231 81.411,117.23 141.847,108.054 z"
           style="fill:#9ec05f;fill-opacity:1;fill-rule:evenodd;stroke:none"
           id="path1758" /><path
           d="M 383.164,202.83 C 499.601,172.871 527.734,263.849 547.011,343.766 506.655,266.421 461.945,198.348 383.164,202.83"
           style="fill:#9ec05f;fill-opacity:1;fill-rule:evenodd;stroke:none"
           id="path1760" /><path
           d="m 391.054,200.973 c 20.681,-4.499 38.446,-5.018 53.769,-2.359 -2.304,4.61 -4.394,9.442 -6.295,14.469 -14.216,-6.579 -29.774,-10.299 -47.008,-10.448 z"
           style="fill:#84a644;fill-opacity:1;fill-rule:evenodd;stroke:none"
           id="path1762" /><path
           d="m 399.192,211.605 c 99.787,50.694 92.84,141.162 141.122,216.465 C 458.22,379.184 461.493,272.313 399.192,211.605"
           style="fill:#759639;fill-opacity:1;fill-rule:evenodd;stroke:none"
           id="path1764" /><path
           d="m 399.192,211.605 c 12.618,6.41 23.524,13.458 33.055,21.03 -1.506,5.526 -2.861,11.212 -4.098,17.02 -8.029,-13.836 -17.353,-26.743 -28.957,-38.05"
           style="fill:#638228;fill-opacity:1;fill-rule:evenodd;stroke:none"
           id="path1766" /><path
           d="M 445.294,197.677 C 246.874,146.623 299.868,439.929 226.357,449.58 344.894,517.878 371.782,279.703 445.294,197.677"
           style="fill:#84a644;fill-opacity:1;fill-rule:evenodd;stroke:none"
           id="path1768" /><path
           d="m 226.851,449.849 c 71.436,40.729 109.518,-30.084 144.7,-110.548 -30.538,62.448 -83.032,119.562 -144.674,110.205 z"
           style="fill:#76963a;fill-opacity:1;fill-rule:evenodd;stroke:none"
           id="path1770" /><path
           d="M 445.294,197.677 C 326.54,167.12 297.847,259.908 278.186,341.417 319.347,262.531 364.945,193.104 445.294,197.677"
           style="fill:#76963a;fill-opacity:1;fill-rule:evenodd;stroke:none"
           id="path1772" /><path
           d="M 428.949,206.627 C 327.175,258.329 334.26,350.598 285.017,427.398 368.745,377.54 365.407,268.544 428.949,206.627"
           style="fill:#9ec05f;fill-opacity:1;fill-rule:evenodd;stroke:none"
           id="path1774" /><path
           d="m 418.665,129.03 c 68.977,0 125.233,10.52 125.233,23.419 0,12.899 -56.256,23.418 -125.233,23.418 -68.976,0 -125.233,-10.519 -125.233,-23.418 0,-12.899 56.257,-23.419 125.233,-23.419"
           style="fill:#e6e6e6;fill-opacity:1;fill-rule:evenodd;stroke:none"
           id="path1776" /></g></g></g></svg>
