<?xml version="1.0" encoding="utf-8"?>
<!-- Generator: Adobe Illustrator 24.3.0, SVG Export Plug-In . SVG Version: 6.00 Build 0)  -->
<svg version="1.1" id="Layer_1" xmlns="http://www.w3.org/2000/svg" xmlns:xlink="http://www.w3.org/1999/xlink" x="0px" y="0px"
	 viewBox="0 0 800 800" style="enable-background:new 0 0 800 800;" xml:space="preserve">
<style type="text/css">
	.st0{fill:#6C4820;}
	.st1{fill:#F5ECDA;}
	.st2{fill:#DB9145;}
	.st3{fill:#5B2B20;}
</style>
<path class="st0" d="M659.9,89.2L270.8,631.4c-6.1,8.5-2.2,19.5,8.9,24.3c11,4.8,25,1.6,31.2-6.9L700,106.6
	c6.1-8.5,2.2-19.5-8.9-24.3C680.1,77.5,666,80.6,659.9,89.2L659.9,89.2z"/>
<path class="st1" d="M73.8,420.6c0,0-23.3-49.3,27.8-64.6c10.7-19.7,47.5-109.4,134.6-47.5c9-22.4,88.8-120.2,198.2-17
	c31.4-18.9,112.1-38.4,124.7,41.4c23.3-19,61-18.1,59.2,34c16.2,6.3,50.2,11.7,55.6,53.8c-146.2,78.1-482.5,96.9-482.5,96.9
	l-87.9-53.8C103.4,463.7,73.8,420.6,73.8,420.6z"/>
<path class="st2" d="M39.5,420.6c4.4,197,151.1,355.2,331.7,355.2s327.3-158.3,331.7-355.2L39.5,420.6L39.5,420.6z"/>
<path class="st3" d="M371.2,727.7c-116,0-220.1-55.3-292-143c56.1,113.9,165.8,191.3,292,191.3s235.9-77.4,292-191.3
	C591.3,672.4,487.2,727.7,371.2,727.7L371.2,727.7z"/>
</svg>
