<svg xmlns="http://www.w3.org/2000/svg" shape-rendering="geometricPrecision" text-rendering="geometricPrecision" image-rendering="optimizeQuality" fill-rule="evenodd" clip-rule="evenodd" viewBox="0 0 233 512.337"><path fill="#464646" fill-rule="nonzero" d="M48.481 0H184.52c8.204 0 14.896 6.693 14.896 14.897V43.83c0 8.168-6.728 14.897-14.896 14.897h-8.037c16.56 28.068 29.49 56.991 38.807 86.758 10.142 32.398 16.027 65.841 17.684 100.31l.007.307H233v208.366c0 .273-.017.544-.05.81-.691 15.44-4.476 28.324-12.024 38.079-7.818 10.103-19.383 16.623-35.357 18.902-.31.045-.617.064-.922.065l-134.828.013c-.271 0-.539-.018-.801-.049-28.045-1.167-42.483-18.3-47.908-43.378C.083 464.151 0 463.222 0 458.754V246.693c0-.287.019-.569.055-.847 2.892-37.102 9.312-71.578 18.641-103.202 9.076-30.776 20.891-58.814 34.877-83.917h-5.092c-8.204 0-14.897-6.693-14.897-14.897V14.897C33.584 6.692 40.276 0 48.481 0z"/><path fill="#F4F6F7" d="M168.881 58.727c35.268 58.601 54.378 121.077 57.566 187.376v208.365c-1.141 28.68-13.435 47.267-41.8 51.315H49.819c-26.23-.877-39.075-17.109-43.266-43.265V246.693c5.717-73.932 25.56-137.156 54.541-187.966h107.787z"/><path fill="#5AB4E8" d="M48.481 6.553H184.52c4.59 0 8.343 3.757 8.343 8.344V43.83c0 4.587-3.756 8.344-8.343 8.344H48.481c-4.587 0-8.343-3.754-8.343-8.344V14.897c0-4.591 3.753-8.344 8.343-8.344z"/><path fill="#87C9EE" d="M158.922 6.553h25.598c4.59 0 8.343 3.756 8.343 8.344V43.83c0 4.587-3.756 8.344-8.343 8.344h-25.598V6.553z"/><path fill="#FBF1E7" d="M212.253 158.232c8.022 28.5 12.747 57.791 14.193 87.871v208.366c-1.14 28.678-13.434 47.266-41.799 51.313H49.819c-26.231-.876-39.075-17.108-43.266-43.265V246.693c2.022-26.145 5.81-50.948 11.145-74.339 38.035 19.101 79.749 8.909 122.243-1.477 23.991-5.863 48.231-11.784 72.312-12.645z"/><path fill="#F7E9DA" d="M212.253 158.232c8.023 28.499 12.747 57.791 14.194 87.872v208.365c-1.141 28.679-13.434 47.266-41.8 51.313h-12.186V163.39c13.266-2.681 26.554-4.683 39.792-5.158z"/><path fill="#E0D4BA" d="M18.609 168.058c18.179 9.129 38.452 11.543 58.222 10.138 20.16-1.435 41.014-6.533 62.056-11.674 12.103-2.957 24.274-5.932 36.333-8.25 12.243-2.354 23.448-4.048 35.779-4.489l2.488 8.86c-11.745.42-24.689 2.157-36.581 4.443-12.079 2.322-24.028 5.242-35.911 8.146-21.45 5.241-42.706 10.437-63.533 11.919-21.216 1.508-40.86-.217-60.711-10.185l1.858-8.908z"/><path fill="#E5D0BF" fill-rule="nonzero" d="M197.521 191.313a4.909 4.909 0 019.79-.731l3.837 50.292a4.909 4.909 0 11-9.79.731l-3.837-50.292zm3.817 85.429a4.914 4.914 0 119.83 0v33.285a4.916 4.916 0 01-9.83 0v-33.285z"/><path fill="#51B6EA" d="M226.446 319.056v108.665H6.553V319.056z"/><path fill="#6BBCEA" d="M226.447 319.056v108.665h-53.986V319.056z"/><path fill="#fff" fill-rule="nonzero" d="M92.468 394.882H80.554l-.338-13.269-.745-11.034h-.812l-7.04 20.173H61.396l-5.821-20.173h-.813l-.947 9.748-.677 14.555H41.833l4.265-43.799h15.637l1.286 6.228 3.859 15.908h.813l4.264-15.435 1.557-6.701h15.434l3.52 43.799zm19.293-14.216l.542 14.216H98.696l.678-12.863-.678-30.936h13.809l-.744 29.583zm35.608 4.061l-.813 10.155h-26.061l.676-12.863-.676-30.936h13.809l-.744 29.583.135 3.113h12.929l.745.948zm29.582-12.929c4.152 6.499 8.891 13.245 14.216 20.24l-.203 1.49c-4.738 1.037-9.251 1.76-13.539 2.166l-1.489-.812c-4.604-7.898-8.372-14.6-11.305-20.106l-.135 5.89.541 14.216h-13.606l.677-12.863-.677-30.936h13.809l-.474 18.277 8.395-13.538 2.301-4.739h14.352l-12.863 20.715z"/></svg>
