<svg fill="#000000" height="200px" width="200px" version="1.1" id="Layer_1" xmlns="http://www.w3.org/2000/svg" xmlns:xlink="http://www.w3.org/1999/xlink" viewBox="0 0 512.4 512.4" xml:space="preserve"><g id="SVGRepo_bgCarrier" stroke-width="0"></g><g id="SVGRepo_tracerCarrier" stroke-linecap="round" stroke-linejoin="round"></g><g id="SVGRepo_iconCarrier"> <g> <g> <path d="M332.2,158v-2c0-15.6-11.6-28-26.4-28h-28L270.2,3.6c0-2-2-3.6-4-3.6h-16c-2,0-4,1.6-4,3.6L238.6,128h-28 c-16,0-30.4,13.2-30.4,28.4v2c-14,4.8-24,18.4-24,34v284c0,20,16,36,36,36h128c20,0,36-16,36-36V192 C356.2,176.4,346.2,163.2,332.2,158z M253.8,8h8.4l7.2,120h-22.8L253.8,8z M210.6,136h32h31.6h32c10.4,0,18.4,8.8,18.4,20.4 c-1.2,0-2.8-0.4-4-0.4H192.2c-1.2,0-2.8,0-4,0.4C188.2,146,199,136,210.6,136z M348.2,476c0,15.6-12.4,28-28,28h-128 c-15.6,0-28-12.4-28-28v-32h102c19.6,0,34-15.6,34-36V260c0-20.4-14.8-36.4-34-36.4h-54c-2.4,0-4,1.6-4,4c0,2.4,1.6,4,4,4h54 c14.8,0,26,12,26,28.4v148c0,16-11.2,28-26,28h-102V232h16c2.4,0,4-1.6,4-4c0-2.4-1.6-4-4-4h-16v-32c0-15.6,12.4-28,28-28h128 c15.6,0,28,12.4,28,28V476z"></path> </g> </g> </g></svg>
