<svg fill="#000000" viewBox="0 0 64 64" xmlns="http://www.w3.org/2000/svg"><g id="SVGRepo_bgCarrier" stroke-width="0"></g><g id="SVGRepo_tracerCarrier" stroke-linecap="round" stroke-linejoin="round"></g><g id="SVGRepo_iconCarrier"> <title></title> <g data-name="Layer 8" id="Layer_8"> <path d="M63.124,7.926a3,3,0,0,0,0-4.242L60.316.875a3.006,3.006,0,0,0-4.242,0L51.388,5.562a2.978,2.978,0,0,0-.579.836l-1.3-1.3a1,1,0,0,0-1.414,0l-5.87,5.868L41.054,9.8a1,1,0,0,0-1.414,0,10.228,10.228,0,0,0-3.017,7.283,10.453,10.453,0,0,0,.13,1.568l-.4-.4a1.029,1.029,0,0,0-1.414,0l-6.575,6.576a1,1,0,0,0,0,1.414l2.99,2.99H21.034l-.647-.646a1,1,0,0,0-1.414,0L15.215,32.34a1,1,0,0,0,0,1.414l6.808,6.808L.293,62.293a1,1,0,1,0,1.414,1.414l21.731-21.73,6.808,6.808a1,1,0,0,0,1.414,0l3.757-3.758a1,1,0,0,0,0-1.414l-.646-.646V32.644l2.99,2.989a1,1,0,0,0,1.414,0l2.817-2.818h0l3.757-3.757a1,1,0,0,0,0-1.414l-.4-.4a10.177,10.177,0,0,0,8.856-2.881,1,1,0,0,0,0-1.414l-1.172-1.172L58.9,15.906a1,1,0,0,0,0-1.414l-1.3-1.3a2.972,2.972,0,0,0,.838-.576ZM30.953,46.664,17.336,33.047,19.68,30.7,33.3,44.32Zm1.818-15.435v9.737l-9.737-9.737ZM46.879,18.448l1.8,1.8a3.8,3.8,0,0,1-3.509,0l1.539-1.539A.974.974,0,0,0,46.879,18.448Zm-1.586-1.155-1.548,1.548a3.537,3.537,0,0,1,0-3.527l1.807,1.807A.974.974,0,0,0,45.293,17.293ZM43.63,28.35l-2.344,2.344-1.172-1.172A1,1,0,1,0,38.7,30.936l1.172,1.172-1.4,1.4L34.48,29.524l0,0-3.988-3.988,2.343-2.343L34,24.36a1,1,0,0,0,1.414-1.414l-1.171-1.172,1.4-1.4,3.988,3.988,0,0,0,0Zm-2.574-5.4,0-.005a8.3,8.3,0,0,1-.662-10.986l1.893,1.894a5.652,5.652,0,0,0,7.865,7.865l1.894,1.894A8.312,8.312,0,0,1,41.056,22.949Zm13.382-5.407-1.172-1.171a1,1,0,0,0-1.414,1.414l1.171,1.171-1.4,1.4-3.912-3.912L43.64,12.38l2.343-2.343,1.172,1.172A1,1,0,0,0,48.569,9.8L47.4,8.623l1.405-1.4,3.99,3.99,1.4,1.4h0l0,0L56.781,15.2ZM52.8,6.977,57.488,2.29a1,1,0,0,1,1.414,0L61.71,5.1a1,1,0,0,1,0,1.414L57.023,11.2a1,1,0,0,1-1.414,0L52.8,8.39a1,1,0,0,1,0-1.413Z"></path> </g> </g></svg>
