<svg class="svg-icon" style="width: 1em; height: 1em;vertical-align: middle;fill: currentColor;overflow: hidden;" viewBox="0 0 1024 1024" version="1.1" xmlns="http://www.w3.org/2000/svg"><path d="M393.4 484.3c-2.2-1.2-4.5-2.1-6.8-2.6-14.8-3.7-30.7 4.7-35.4 20-26.5 86.2-33.7 96.6-78.5 233.2-0.5 1.7-19 46.3-19.3 46.2 14.8-85.8 25.6-208.2 12.1-301.3-2.1-14.4-12.7-25.6-26.1-29-3.8-0.9-7.8-1.3-11.9-0.9-75.3 7.6-141 47.5-159.4 116.6-21.5 81 34.1 154.3 41.1 163.2 43.2 55.2 62.3 65.3 115.4 149.8 49.5-24.7 231.1-64.2 266.9-206.7 20.1-79.9-23.1-148.2-98.1-188.5z m69 181.2C436.9 767.1 321.2 810.3 252 836.1c-5.6 2.1-10.9 4.1-15.8 5.9-28.7-43.6-47.5-65.1-67.3-87.8-10.9-12.5-22.2-25.4-36-43.1-3.8-4.8-16.9-22.5-27.1-47.5-13-31.9-16-62-8.7-89.6 6.9-26.1 22.6-47.8 46.5-64.4 23.4-16.3 53.5-26.7 86.9-30 0.5-0.1 1.1 0 1.6 0.1 1.6 0.4 3.4 1.9 3.7 4.2 12.9 89.3 2.3 209.4-12 291.9l-4.7 27.5 27 6.8c14 3.5 28.2-3.3 34.6-16.6 0.3-0.6 0.6-1.3 1-2.2 0.6-1.3 1.4-3.1 2.4-5.5 2.1-5 4.8-11.3 6.6-15.7 9.6-23.2 10.3-25.1 10.5-25.9 21.5-65.7 34.4-102.4 44.8-131.8 11.1-31.6 19.9-56.6 33.7-101.4 32.7 17.7 57.7 40.9 72.1 67.1 14.8 27 18.4 56.4 10.6 87.4zM597.7 507.2c25.6-96.4 40.9-111.7 65.8-177.2 4-10.6 35.4-97.1-9.1-168.1-38-60.5-112.6-79.2-186.8-64.2-4 0.8-7.8 2.3-11.1 4.3-11.8 7.2-18.6 21.1-16.3 35.4 14.7 92.9 61.3 206.7 100.8 284.2-0.3 0.2-31.1-37-32.1-38.4-83.2-117.2-93.2-125-144.1-199.5-9.1-13.3-26.7-16.6-39.8-8.7-2 1.2-4 2.7-5.7 4.5-59.7 60.7-80.7 138.7-37.9 209C358 514.4 543.1 498.3 597.7 507.2zM291.4 286.7c6-29.4 22.9-58.9 49-85.5 26.5 38.7 42.3 60 62.3 86.9 18.6 25.1 41.8 56.2 81.8 112.6 0.5 0.7 1.7 2.3 17.7 21.7 3.1 3.7 7.5 9 11 13.1 1.7 2 2.9 3.5 3.9 4.5 0.7 0.8 1.2 1.3 1.6 1.8 10 10.8 25.6 13.1 38 5.6l23.8-14.5-12.7-24.8C529.7 333.5 484 222 469.9 132.8c-0.4-2.3 0.9-4.2 2.3-5.1 0.4-0.3 0.9-0.5 1.5-0.6 33-6.7 64.7-5.7 91.9 2.9 27.7 8.8 49.1 24.9 63.4 47.8 15.1 24.1 21.3 53.8 18.3 88.1-2.4 26.8-9.6 47.6-11.8 53.4-7.9 20.9-14.9 36.6-21.7 51.8-12.2 27.5-23.8 53.7-38.3 103.8-5.2-0.3-10.8-0.7-16.8-1-73.7-4.2-197-11.2-251.5-100.7-16.6-27.3-21.9-56.4-15.8-86.5z" fill="#2c2c2c" /><path d="M958.1 583.9c-1.4-5.7-5.5-10-11.2-11.9-40-34.4-184.6-58-298.2-58-54.2 0-101.3 5.4-126.8 17.5-7.5 0.6-13.4 4.4-16.4 10.7-0.4 0.9-0.9 2.1-1.3 3.6-0.1 0.1-0.1 0.2-0.2 0.3-30 55.5 114.2 368.4 195 378 0.6 0.1 1.1 0.1 1.7 0.1 2.5 1.1 4.7 1.3 5.8 1.3h0.5c1.8 0 5.4-0.4 9-2.7 89.6-21.1 243.3-259.8 241.9-329 1.2-3.8 0.9-7.3 0.2-9.9zM648.7 544c58.3 0 126.2 6.6 181.5 17.5 25.2 5 47.4 10.9 64.7 17.1-38.1 7.6-98.8 17.3-173.2 9.1-60.6-6.7-110.8-25.4-145.9-39.4 20.3-2.8 45.2-4.3 72.9-4.3z m24.5 328.8c-14.6-15.2-31.1-37.3-47.7-63.9-27.9-44.9-55.6-102-74-152.6-9-24.7-15.5-47.3-18.8-65.3-0.9-4.8-1.5-9-1.9-12.6 2.1 1.2 4.3 2.4 6.7 3.6 34.5 18.8 92.4 50.3 116.1 115.7 23.7 65.5 29.4 135.7 32.8 177.6 0.3 3.7 0.6 7.2 0.9 10.4-4.1-3.1-8.7-7.3-14.1-12.9z m37.7-55.2c-4.7-38.9-12.9-85.2-29.2-130.1-15.4-42.4-42.8-72.4-70.3-94.1 30.2 10.1 66.3 19.6 107.1 24.1 43.2 4.8 81.8 3.8 114.4 0.7-32.3 17.4-64.5 43.4-84.3 84.3-18.8 38.9-30.2 79.8-37.7 115.1zM921.3 623c-5.9 16.7-15.3 37.3-27.3 59.4-25.4 46.9-59.3 96.5-93 135.9-20.8 24.3-41.1 44.1-58.7 57.4-4.8 3.6-9.1 6.5-12.9 8.8 0.3-1.6 0.5-3.3 0.8-5 6.3-39.3 16.9-105 45.5-164 31.2-64.4 100.3-85.6 141.6-98.3 2.3-0.7 4.5-1.4 6.6-2.1-0.8 2.5-1.6 5.1-2.6 7.9z" fill="#2c2c2c" /></svg>
