<?xml version="1.0" encoding="utf-8"?>
<!-- Generator: Adobe Illustrator 24.3.0, SVG Export Plug-In . SVG Version: 6.00 Build 0)  -->
<svg version="1.1" id="Layer_1" xmlns="http://www.w3.org/2000/svg" xmlns:xlink="http://www.w3.org/1999/xlink" x="0px" y="0px"
	 viewBox="0 0 1024 1024" style="enable-background:new 0 0 1024 1024;" xml:space="preserve">
<style type="text/css">
	.st0{fill:#FFC678;}
	.st1{fill:#F49C4D;}
	.st2{fill:#FFB961;}
	.st3{fill:#FFCB80;}
	.st4{fill:#E5913E;}
</style>
<path class="st0" d="M153.1,689.2c-16.9-16.9-13.3-44.5,6.7-57.3c67.6-42,214-118.8,346.6-102.9c262.1,31.2,333.8,179.7,333.8,230.9
	c2.6,15.9-252.4,53.2-333.8,51.2c-8.2,0-24.1,3.1-25.6,0c-1-2,10.8-1.5,0,0c-14.3,2-55.8,5.6-76.8,0c-42-11.3-109.1-32.8-138.2-50.2
	c-25.1-14.8-41.5-26.6-41.5-26.6l-51.2-25.6L153.1,689.2L153.1,689.2z"/>
<path class="st1" d="M436.7,821.8c-137.2-21.5-259.6-104.4-300.5-134.7c-6.1-4.6-9.2-11.3-9.7-18.4c0-7.2,3.1-14.3,8.7-18.9
	c192.5-155.6,424.4-143.9,533.5-97.8C789,602.6,852.5,759.3,855,766l3.6,8.7l-9.2,2c-1,0-95.7,21-304.6,47.6
	C508.9,828.9,472.6,827.4,436.7,821.8L436.7,821.8z M578,543.2c-117.2-18.4-286.2,0.5-432.6,118.8c-2,1.5-3.1,4.1-3.1,6.1
	c0,1.5,0.5,4.1,3.1,6.1c50.2,36.9,226.8,156.2,397.3,134.1c171.5-22,265.7-39.9,293.9-45.6c-15.4-33.8-75.8-155.1-174.1-196.6
	C640,556.5,611.3,548.9,578,543.2z"/>
<path class="st1" d="M582.7,737.3l223.2,11.3c16.4,1,18.9-22.5,3.1-25.6c-1,0-2-0.5-3.1-0.5l-76.3,2.6h-2L535,700.4l-79.9-10.2
	l-64.5-8.2h-1L254,676.4h-1l-115.7-15.9c-3.1,5.6-2.6,12.8,1.5,17.9l95.2,8.2h1l346.6,50.7L582.7,737.3L582.7,737.3z"/>
<path class="st2" d="M256.5,627.7l76.8-16.9h1l117.2,18.4c0.5,0,0.5,0,1,0.5c4.6,2.6,45.6,25.1,93.7,14.3
	c51.2-11.3,144.9,23,144.9,23l55.3,20.5c3.1,1,2.6,5.1-0.5,6.1l-23.6,5.1h-1.5l-77.8-25.1c-1.5-0.5-49.7-12.3-90.1-5.6
	c-40.4,7.2-107.5-10.2-109.1-10.8c-2-0.5-82.9-27.6-93.2-21c-7.2,4.6-63,0.5-93.7-2C253.4,633.9,252.9,628.7,256.5,627.7
	L256.5,627.7z M372.2,578.6l21.5-4.6h0.5l89.6-1.5c0.5,0,1,0,1.5,0.5c5.1,2.6,34.8,18.4,69.6,10.8c36.9-8.2,101.4,29.7,106,32.3h0.5
	l48.6,17.9l-25.1,5.6h-1.5l-57.9-18.9c-0.5,0-0.5,0-1-0.5c-3.6-2.6-35.8-24.6-64.5-19.5c-29.2,5.1-76.3-6.7-81.4-8.2h-1
	c-5.6,0-65.5,3.1-72.7,7.7c-5.6,3.6-24.6-9.2-33.8-16.4C369.2,582.7,369.7,579.1,372.2,578.6L372.2,578.6z"/>
<path class="st2" d="M284.7,725.5c-1.5-1.5-4.1-1-5.1,1c-2.6,6.7-3.6,20.5,24.6,25.1l134.7,21h0.5l72.7-1h0.5l100.9,15.9h1.5
	l35.8-12.8c3.1-1,2.6-6.1-1-6.1l-89.1-3.6l-181.2-21h-0.5C373.8,743.9,308.7,746,284.7,725.5L284.7,725.5z"/>
<path class="st3" d="M527.9,138.8c-26.1,18.4-46.1,54.8-58.4,79.9c-18.4,38.9-28.2,81.9-34.3,124.4
	c-24.6,170.5,7.7,354.3,115.2,488.4c12.3,14.8,25.1,29.2,41,39.9c16.4,10.8,35.8,17.4,55.3,21c84,15.9,176.1-26.6,218.6-100.9
	c42-73.2,36.4-164.4,14.8-245.8c-35.8-137.2-113.7-263.2-219.6-356.9c-26.1-23-76.8-70.1-114.2-59.4
	C539.6,131.6,534,134.7,527.9,138.8L527.9,138.8z"/>
<path class="st1" d="M674.8,892.4c-19.5-3.6-38.4-10.2-55.3-21c-15.9-10.8-29.2-25.1-41-39.9c-108-134.1-139.8-318-115.2-488.4
	c6.1-43,15.9-85.5,34.8-124.4c12.3-24.6,32.3-61.4,58.4-79.9c5.1-3.6,10.8-6.7,16.9-8.7c-9.2-2.6-18.4-3.1-26.6-0.5
	c-6.1,2-12.3,5.1-18.4,9.2c-26.1,18.4-46.1,54.8-58.4,79.9c-18.9,38.9-28.7,81.9-34.8,124.4c-24.6,170.5,7.7,354.3,115.2,488.4
	c12.3,14.8,25.1,29.2,41,39.9c16.4,10.8,35.8,17.4,55.3,21c16.4,3.1,33.3,4.1,50.2,2.6C689.7,894.5,682.5,894,674.8,892.4z"/>
<path class="st4" d="M865.8,791.6c10.2-17.9,17.4-36.9,22.5-56.3c-123.9,43.5-62.5,120.8-255,154.1c4.6,1,8.7,2,13.3,3.1
	C731.1,908.3,822.8,865.8,865.8,791.6z"/>
<path class="st2" d="M500.2,306.7c0,0-18.4,65.5-11.8,135.2c6.7,69.1,38.4,183.8,39.4,186.4l41.5,101.4l33.8,68.1c0,0,0,0.5,0.5,0.5
	l59.4,60.4c1,1,3.1,1,4.1-1l6.1-16.4c0.5-0.5,0-1.5,0-2C665.6,827.4,584.2,703,554,623.1c-31.7-84-38.4-234.5-38.4-234.5l-4.6-82.9
	C510,306.7,503.3,294.9,500.2,306.7L500.2,306.7z"/>
<path class="st2" d="M548.9,324.6v1c0.5,8.7,11.3,163.8,27.6,194c16.4,31.7,45.1,97.3,45.1,97.3s34.8,113.2,63,138.2
	c72.2,65.5,16.4-9.7,16.4-9.7s-68.6-131.1-69.6-174.6c-0.5-16.9-30.7-53.2-35.3-59.4c-0.5-0.5-0.5-1-0.5-1.5l-22-166.9v-0.5
	l-17.9-54.8L548.9,324.6L548.9,324.6z M688.6,379.4c0.5,0.5,0.5,1,0.5,1.5c4.6,15.9,74.8,264.2,78.3,336.4
	c4.1,74.8,36.4-121.3,10.2-217.6c-24.6-89.6-92.2-200.7-101.4-216.1c-0.5-1-1.5-2-3.1-2.6l-45.1-17.9c-5.6-2-10.8,4.1-7.7,9.2
	L688.6,379.4z M797.2,471c-19.5-26.1-26.1-109.1-28.7-148.5c0-4.1,5.1-5.1,6.7-1.5l48.1,127v0.5l14.3,66c0,0,32.8,144.4,25.1,161.8
	S822.8,505.9,797.2,471L797.2,471z"/>
<path class="st2" d="M728.6,636.9c0,0-59.4-65-59.9-123.4c-0.5-95.2-41.5-166.4-37.9-152.6c5.6,20.5,9.7,154.1,9.7,154.1
	S653.8,605.7,728.6,636.9L728.6,636.9z"/>
</svg>
