<?xml version="1.0" encoding="utf-8"?>
<!-- Generator: Adobe Illustrator 24.3.0, SVG Export Plug-In . SVG Version: 6.00 Build 0)  -->
<svg version="1.1" id="Layer_1" xmlns="http://www.w3.org/2000/svg" xmlns:xlink="http://www.w3.org/1999/xlink" x="0px" y="0px"
	 viewBox="0 0 800 800" style="enable-background:new 0 0 800 800;" xml:space="preserve">
<style type="text/css">
	.st0{fill:#434854;}
	.st1{fill:#EACA44;}
	.st2{fill:url(#SVGID_1_);stroke:#000000;stroke-miterlimit:10;}
</style>
<path class="st0" d="M99.9,774.5c4.5,14.3,11.2,25,25,25h549.7c13.8,0,20.7-11,25-25l50-199.9H50L99.9,774.5z"/>
<path class="st1" d="M399.8,299.8C179,299.8,0,422.8,0,574.6c0,27.6,22.4,50,50,50c27.6,0,50-22.4,50-50c0,27.6,22.4,50,50,50
	c27.6,0,50-22.4,50-50c0,27.6,22.4,50,50,50c27.6,0,50-22.4,50-50l0,0c0,27.6,22.4,50,50,49.9c27.6,0,49.9-22.4,49.9-49.9
	c0,27.6,22.4,50,50,50c27.6,0,50-22.4,50-50c0,27.6,22.4,50,50,49.9c27.6,0,49.9-22.4,49.9-49.9c0,27.6,22.4,50,50,49.9
	c27.6,0,49.9-22.4,49.9-49.9c0,27.6,22.4,50,50,49.9c27.6,0,49.9-22.4,49.9-49.9C799.5,422.8,620.5,299.8,399.8,299.8L399.8,299.8z"
	/>
<linearGradient id="SVGID_1_" gradientUnits="userSpaceOnUse" x1="337.0732" y1="-31.4622" x2="531.2848" y2="584.2298">
	<stop  offset="0" style="stop-color:#FFFFFF"/>
	<stop  offset="1" style="stop-color:#000000"/>
</linearGradient>
<path class="st2" d="M399.8,25c0-13.8-11.2-25-25-25c-13.8,0-25,11.2-25,25c0,0,0,0,0,0c0,44.1,21.5,75,21.5,75s28.5,40.2,28.5,75
	C399.8,210,383,236,383,236c-10.6,13.8-10.3,22.1-0.7,32c11.2,11.5,28.8,7.6,40.1-10.7c0,0,27.3-38.7,27.3-82.4c0-38.7-25-75-25-75
	S399.8,62.4,399.8,25L399.8,25z M249.8,25c0-13.8-11.2-25-25-25c-13.8,0-25,11.2-25,25c0,0,0,0,0,0c0,44.1,21.5,75,21.5,75
	s28.5,40.2,28.5,75c0,35.1-16.8,61.1-16.8,61.1c-10.6,13.8-10.3,22.1-0.7,32c11.2,11.5,28.8,7.6,40.1-10.7c0,0,27.3-38.7,27.3-82.4
	c0-38.7-25-75-25-75S249.8,62.4,249.8,25L249.8,25z M574.6,99.9c0,0-25-37.5-25-75c0-13.8-11.2-25-25-25c-13.8,0-25,11.2-25,25
	c0,0,0,0,0,0c0,44.1,21.5,75,21.5,75s28.5,40.2,28.5,75c0,35.1-16.8,61.1-16.8,61.1c-10.6,13.8-10.3,22.1-0.7,32
	c11.2,11.5,28.8,7.6,40.1-10.7c0,0,27.3-38.7,27.3-82.4C599.6,136.2,574.6,99.9,574.6,99.9L574.6,99.9z"/>
<path d="M374.8,399.7c0,27.6,11.2,50,25,50c13.8,0,25-22.4,25-49.9c0,0,0,0,0,0c0-27.6-11.2-50-25-50
	C386,349.7,374.8,372.1,374.8,399.7C374.8,399.7,374.8,399.7,374.8,399.7z"/>
<path d="M478.1,385.5c-1.8,19.4,35.6,68.5,53.8,84.1c18.2,15.6,34.4,12.5,36.2-6.9c1.8-19.4-11.4-47.8-29.6-63.3
	c-3.8-3.2-7.6-5.8-17.1-38.8c-1.3-21.8-30.8-58.3-49-70.3s-31.9-4.2-30.7,17.5c1.3,21.8,17.1,49.2,35.3,61.2
	C477,368.9,477,369,478.1,385.5z"/>
<path d="M274.8,416.2c12.4,7.2,33.1-5.5,47.4-30.3c14.3-24.8,15.9-50.7,2.5-56.2c-8.2-12.5-29-4-45.3,17.5
	c-16.3,21.5-22.8,49.1-14.6,61.6C267.3,412.5,271,414.6,274.8,416.2z"/>
</svg>
