<?xml version="1.0" encoding="utf-8"?>
<!-- Generator: Adobe Illustrator 24.3.0, SVG Export Plug-In . SVG Version: 6.00 Build 0)  -->
<svg version="1.1" id="Layer_1" xmlns="http://www.w3.org/2000/svg" xmlns:xlink="http://www.w3.org/1999/xlink" x="0px" y="0px"
	 viewBox="0 0 800 800" style="enable-background:new 0 0 800 800;" xml:space="preserve">
<style type="text/css">
	.st0{fill:#F27596;}
	.st1{fill:#593123;}
	.st2{fill:#E01042;}
</style>
<path class="st0" d="M400.5,58.5c-188.9,0-342.1,153.1-342.1,342.1c0,188.9,153.1,342.1,342.1,342.1
	c188.9,0,342.1-153.1,342.1-342.1C742.6,211.7,589.4,58.5,400.5,58.5L400.5,58.5z M400.5,489.1c-48.9,0-88.5-39.6-88.5-88.5
	s39.6-88.5,88.5-88.5s88.5,39.6,88.5,88.5S449.4,489.1,400.5,489.1z"/>
<path class="st1" d="M421.7,742c3.7-0.2,7.3-0.5,11-0.9c2-0.2,3.8-0.4,5.8-0.6c3.5-0.4,7-0.9,10.5-1.3c1.8-0.2,3.7-0.5,5.5-0.8
	c4.1-0.6,8-1.3,12-2.1c1.2-0.2,2.3-0.4,3.5-0.6c5.1-1,10.1-2.2,15.1-3.5c1.5-0.4,2.9-0.8,4.4-1.2c3.5-0.9,7.1-2,10.5-3
	c1.9-0.5,3.7-1.2,5.5-1.8c3.1-1,6.2-2,9.2-3.1c1.9-0.7,3.8-1.3,5.7-2c3.1-1.2,6.2-2.4,9.3-3.7c1.6-0.7,3.4-1.3,5-2
	c4.5-2,9-4,13.4-6.1c1.3-0.6,2.7-1.3,4-2c3.2-1.6,6.3-3.2,9.5-4.8c2-1,3.8-2.1,5.7-3.1c2.5-1.4,5-2.8,7.4-4.3c2-1.2,4-2.4,5.9-3.6
	c2.3-1.4,4.6-2.9,6.9-4.5c2-1.2,3.9-2.6,5.9-3.9c2.3-1.6,4.7-3.3,7-5l9.1-6.8c2.3-1.8,4.6-3.6,6.9-5.5c2-1.6,4.1-3.4,6.1-5.2
	l5.2-4.5c2-1.9,4.1-3.8,6.1-5.6c1.6-1.5,3.1-2.9,4.6-4.4c2-2,4.1-4,6.1-6.1c1.3-1.3,2.7-2.7,3.9-4.1c7.4-7.8,14.5-16,21.2-24.5
	c0.9-1.1,1.8-2.3,2.7-3.4c2-2.7,4-5.3,5.9-8c0.9-1.2,1.8-2.5,2.7-3.8c2-2.7,3.8-5.5,5.6-8.3c0.7-1.1,1.5-2.3,2.2-3.4
	c8.8-13.8,16.6-28.2,23.4-43.2c0.5-0.9,0.9-1.9,1.3-2.9c1.5-3.4,3-6.8,4.3-10.2c0.4-1,0.8-2,1.2-3c1.4-3.6,2.8-7.2,4.1-10.9
	c0.1-0.3,0.2-0.5,0.3-0.9c1.4-4.1,2.8-8.1,4.1-12.3l0.1-0.1c6.2-20,10.5-40.8,12.9-62.2v-20.9c0-27-19.2-51.1-45.9-54.6
	c-32.3-4.3-60.2,21.1-60.2,52.7v79.8c0,29.1-20.7,55-49.5,58.8c-34.8,4.6-64.8-22.7-64.8-56.6c0,0,4.4-45,0-59.1
	c-3.1-9.9-17-24.8-31.6-27.1c-4.5,35.5-30,64.3-63.6,73.8c-0.7,0.2-1.3,0.3-2,0.5c-2.7,0.7-5.5,1.2-8.4,1.7
	c-0.9,0.2-1.9,0.3-2.8,0.4c-3.6,0.5-7.2,0.7-10.9,0.7c-2.7,0-5.4-0.2-8-0.4c-0.8-0.1-1.6-0.2-2.3-0.2c-2-0.2-4.1-0.5-6-0.9
	c-0.7-0.2-1.3-0.2-2-0.4c-2.5-0.5-4.9-1.2-7.3-1.9c-0.8-0.2-1.6-0.5-2.3-0.8c-1.6-0.5-3.3-1.2-4.8-1.8c-0.9-0.4-2-0.8-2.9-1.2
	c-1.4-0.6-2.8-1.3-4.2-2c-1.6-0.8-3.2-1.7-4.8-2.6c-1.1-0.6-2.3-1.3-3.4-2c-1.3-0.8-2.4-1.6-3.6-2.5c-0.7-0.5-1.4-1-2-1.6
	c-4.4-3.4-8.4-7.1-12.1-11.2c-0.2-0.2-0.3-0.3-0.4-0.5c-5.4-6-9.8-12.8-13.4-20.2c-5.6-11.6-8.8-24.6-8.8-38.4
	c0-4.6,0.5-9.1,1.2-13.5l-1.2-7.7c0-32.6-28.7-58.8-62.2-54.3c-27.6,3.7-47.4,28.5-47.4,56.3v69.8c0,24.4-16.8,46.5-40.9,50.6
	c-27.6,4.8-52.1-13.5-57.4-38.8l-8.9-49c-1.1-6-4.8-11.5-10.5-13.7c-3.4-1.3-7-2.1-10.9-2.1c-5.7,0-11,1.7-15.5,4.5
	c0.4,58.5,15.4,113.6,41.7,161.6c0-0.1,0.1-0.1,0.1-0.2c25.2,46.2,60.9,86,103.7,116.2c0.3,0.2,0.6,0.5,1,0.7
	c11.8,8.3,24.2,15.8,37.1,22.5c0.9,0.5,1.8,0.9,2.7,1.4c5.6,2.9,11.3,5.6,17.2,8.2c0.9,0.4,1.8,0.9,2.7,1.2
	c6.6,2.8,13.2,5.5,19.9,7.9c0.7,0.2,1.5,0.5,2.3,0.8c5.8,2,11.7,3.9,17.7,5.6c1.7,0.5,3.4,1,5.2,1.5c5.9,1.6,11.7,3,17.7,4.4
	c1,0.2,2,0.5,3,0.7c6.9,1.4,13.8,2.7,20.8,3.7c1.4,0.2,2.8,0.4,4.3,0.5c5.8,0.7,11.6,1.4,17.4,1.9l6.1,0.5
	c7.2,0.5,14.4,0.8,21.6,0.8c5.5,0,10.9-0.2,16.2-0.4C418.4,742.3,420,742.1,421.7,742z"/>
<path class="st2" d="M106.2,559.5c0.3,0.4,0.5,0.8,0.8,1.2c24.5,44.8,59.5,84.1,101.5,113.6c0.2,0.2,0.3,0.2,0.5,0.4l0.5,0.3
	c11.5,8,23.7,15.4,36.2,22c0.6,0.3,1.3,0.7,2,1l0.6,0.3c6.3,3.2,11.6,5.8,16.8,8c0.5,0.2,0.9,0.4,1.4,0.6c0.4,0.2,0.9,0.4,1.3,0.5
	c6.5,2.8,13,5.4,19.5,7.7c0.3,0.2,0.7,0.2,1,0.3c0.4,0.2,0.8,0.2,1.2,0.4c5.5,2,11.1,3.8,17.3,5.5c1.6,0.5,3.4,0.9,5,1.4
	c5.8,1.6,11.6,3,17.3,4.3c0.5,0.1,1,0.2,1.5,0.3c0.5,0.1,0.9,0.2,1.4,0.3c6.5,1.3,13.1,2.5,20.3,3.6c1,0.2,2.1,0.3,3.1,0.4l1,0.2
	c5,0.6,11,1.3,17.1,1.8l1.1,0.1c1.6,0.2,3.2,0.2,4.8,0.4c8,0.5,14.8,0.7,21.1,0.7c4.8,0,10.1-0.2,15.9-0.4c1.1-0.1,2.1-0.2,3.2-0.2
	c0.6-0.1,1.2-0.1,1.8-0.1c4-0.2,7.5-0.5,10.8-0.8c1.6-0.2,3.4-0.3,5.6-0.5c3.3-0.4,6.7-0.8,10.2-1.3l1.4-0.2
	c1.3-0.2,2.7-0.4,3.9-0.5c3.7-0.5,7.5-1.2,11.7-2.1c0.5-0.1,1.1-0.2,1.6-0.3c0.6-0.1,1.2-0.2,1.8-0.3c4.8-1,9.8-2.1,14.7-3.4
	c0.9-0.2,1.6-0.5,2.5-0.7c0.6-0.2,1.2-0.3,1.8-0.5c4-1.1,7.3-2,10.3-3c1.6-0.5,3.3-1,4.9-1.6l0.5-0.2c3-1,6.1-2,9.1-3
	c1.9-0.7,3.7-1.3,5.5-2c2.7-1,5.5-2.1,9.1-3.6c0.6-0.2,1.2-0.5,1.8-0.7c1-0.4,2-0.9,3.1-1.2c4.7-2,9-3.9,13.1-5.9
	c0.7-0.3,1.4-0.7,2.1-1.1c0.5-0.3,1.2-0.6,1.7-0.9c2.6-1.2,5.9-3,9.2-4.8c1.5-0.8,3-1.6,4.5-2.5l1.1-0.6c2.7-1.6,5.2-2.9,7.3-4.2
	c2-1.2,4-2.3,5.8-3.5c2-1.2,4.1-2.6,6.7-4.3l1.2-0.8c1.6-1,3.1-2,4.6-3c2.1-1.4,4.1-2.9,6.2-4.5l0.5-0.4c3-2.2,6-4.5,8.9-6.6
	l0.9-0.7c2-1.6,4-3,5.9-4.6c1.6-1.3,3.1-2.7,4.8-4.1l1.3-1.2c1.6-1.4,3.3-2.8,4.8-4.2c1.8-1.6,3.7-3.4,6-5.5
	c1.4-1.3,2.9-2.7,4.5-4.3c2.3-2.2,4.1-4.1,6-5.9c0.9-0.9,1.9-2,2.8-3l1-1.1c7.3-7.7,14.3-15.8,20.7-24c0.3-0.5,0.7-0.9,1-1.3
	c0.5-0.7,1.1-1.3,1.6-2c2.1-2.8,4.2-5.6,5.7-7.8c0.9-1.2,1.8-2.4,2.7-3.7c2-2.9,3.8-5.5,5.5-8.1c0.5-0.8,1-1.6,1.5-2.3l0.6-1
	c8.7-13.5,16.3-27.7,22.9-42.3l0.4-0.9c0.3-0.6,0.5-1.2,0.9-2c1.4-3.3,2.9-6.6,4.2-10c0.3-0.8,0.6-1.6,0.9-2.3l0.2-0.6
	c1.6-4.1,2.9-7.5,4-10.6l0.1-0.3c0.1-0.2,0.2-0.4,0.2-0.5c1.5-4.2,2.8-8.2,4-12c0.1-0.2,0.2-0.5,0.3-0.8c5.9-19.2,10-39.3,12.3-59.7
	v-20.5c0-23.8-16.9-44-39.3-47c-13.2-1.7-26,2.1-35.9,10.9c-9.9,8.7-15.5,21.1-15.5,34.1v79.9c0,33.7-24.1,62.3-56.2,66.5
	c-18.6,2.4-37.3-3.2-51.4-15.5c-14.1-12.3-22.2-30.1-22.2-48.8v-0.8c1.6-16.8,3.2-46.9,0.3-56.1c-1.8-5.9-9.5-14.8-18.1-19.3
	c-7.7,34.1-33.4,61.5-67.6,71.1c-0.5,0.2-1,0.2-1.6,0.4c-0.2,0.1-0.5,0.1-0.7,0.2c-3,0.8-6.1,1.4-9.2,1.9l-0.7,0.1
	c-0.8,0.2-1.6,0.2-2.3,0.3c-4.5,0.5-8.2,0.8-11.8,0.8c-2.7,0-5.5-0.2-8.8-0.5c-0.8-0.1-1.5-0.2-2.3-0.2h-0.2c-2.2-0.2-4.4-0.6-6.6-1
	c-0.2-0.1-0.5-0.1-0.6-0.2c-0.5-0.1-1-0.2-1.6-0.3c-2.7-0.5-5.4-1.2-7.9-2c-0.6-0.2-1.2-0.4-1.8-0.6l-0.7-0.2
	c-1.9-0.6-3.6-1.2-5.3-2c-1.2-0.5-2.3-0.9-3.1-1.3c-1.4-0.6-2.9-1.3-4.6-2.2c-1.6-0.9-3.4-1.8-5.2-2.8l-0.3-0.2
	c-1.1-0.6-2.2-1.2-3.3-2c-1.4-0.9-2.7-1.8-3.9-2.7c-0.8-0.5-1.5-1.1-2.3-1.7c-4.7-3.6-9.1-7.7-13.1-12.2l-0.2-0.2
	c-0.1-0.2-0.2-0.2-0.3-0.4c-5.9-6.6-10.8-14-14.6-22c-6.4-13.2-9.6-27.3-9.6-41.8c0-4.1,0.3-8.6,1-13.5l-0.9-6.5
	c-0.1-0.4-0.1-0.8-0.1-1.2c0-13.5-5.9-26.4-16.1-35.4c-10.4-9.1-23.6-13-37.3-11.2c-23.2,3-40.7,24-40.7,48.7v69.8
	c0,13.7-4.7,27-13.1,37.7c-8.7,10.9-20.8,18.2-34.1,20.5c-15.2,2.7-30.3-0.7-42.8-9.4c-12.1-8.4-20.5-21-23.5-35.4
	c0-0.1,0-0.2-0.1-0.2l-8.7-49.1c-0.7-3.8-2.9-6.8-5.8-8c-2.6-1-5.2-1.6-8-1.6c-2.7,0-5.2,0.5-7.7,1.5
	C67.3,460.7,81.1,513,106.2,559.5z"/>
<path class="st1" d="M117.6,319.8c-3,0-5.8-1.7-7.1-4.6c-1.7-3.9,0.1-8.4,4-10.2l61.1-26.9c3.9-1.7,8.4,0.1,10.2,4s-0.1,8.4-4,10.2
	l-61.1,26.9C119.7,319.6,118.6,319.8,117.6,319.8z M287.1,273.3c-1,0-2-0.2-3-0.6l-51.3-21.7c-3.9-1.6-5.8-6.2-4.1-10.2
	c1.6-3.9,6.2-5.8,10.2-4.1l51.2,21.7c3.9,1.6,5.8,6.2,4.1,10.2C293,271.5,290.2,273.3,287.1,273.3L287.1,273.3z M332.4,193
	c-1.4,0-2.7-0.4-4.1-1.2c-3.7-2.3-4.8-7-2.6-10.6l37.4-61.1c2.3-3.7,7-4.8,10.6-2.6c3.7,2.3,4.8,7,2.6,10.6l-37.3,61.2
	C337.6,191.8,335.1,193,332.4,193L332.4,193z M452.7,210.2c-3,0-5.9-1.8-7.1-4.8L420,144.3c-1.6-3.9,0.2-8.4,4.1-10.1
	c3.9-1.6,8.4,0.2,10.1,4.1l25.6,61.1c1.6,3.9-0.2,8.4-4.1,10.1C454.8,210,453.8,210.2,452.7,210.2L452.7,210.2z M535.5,262.4
	c-2.5,0-5-1.3-6.5-3.5c-2.3-3.6-1.3-8.4,2.3-10.7l53.2-34.5c3.6-2.3,8.4-1.3,10.7,2.3c2.3,3.6,1.3,8.4-2.3,10.7l-53.2,34.5
	C538.4,262,537,262.4,535.5,262.4z M657.7,319.8h-59.1c-4.3,0-7.7-3.4-7.7-7.7s3.4-7.7,7.7-7.7h59.1c4.3,0,7.7,3.4,7.7,7.7
	S662,319.8,657.7,319.8z"/>
</svg>
