<svg class="svg-icon" style="width: 1em; height: 1em;vertical-align: middle;fill: currentColor;overflow: hidden;" viewBox="0 0 1024 1024" version="1.1" xmlns="http://www.w3.org/2000/svg"><path d="M269.8 180.2c1.8-0.3 3.7-0.8 5.5-1.3 21.2-5.9 212.2-63.4 290.8 110.3 53 117.2 87.4 157.4 174.8 173.9 137.1 26 203.6 163.1 126.9 293.5-70.4 119.7-183.4 159.3-278.9 116-67.6-30.6-98.1-114.2-122.2-180.7-26.4-72.9-76.5-91.9-157.6-110.5-72.8-16.8-199.5-150.6-117.4-358.8 9.6-24.5 34.1-41.1 59.9-40.9 5.8 0 11.9-0.4 18.2-1.5z" fill="#EFBF6A" /><path d="M666.5 904.6h-4c-27.4-0.5-54.3-6.7-79.9-18.3-33-15-60.5-42.1-84.2-83-19.9-34.5-33.7-72.6-45.9-106.2-22.9-63.2-62-81.5-146.8-101-20.7-4.8-43.8-17.4-65.1-35.4-23.3-19.9-43.7-45.6-58.8-74.3-18.9-35.9-29.5-75.4-31.5-117.6-2.3-48.5 6.9-99.5 27.4-151.5 12-30.4 41.7-50.6 74-50.4 5.3 0 10.5-0.4 15.5-1.2 1.1-0.2 2.3-0.5 4-0.9l1.2-0.3c57.2-16.2 103.1-15.5 131.6-12 36.2 4.4 68.6 15.9 96.2 34.2 33.9 22.4 60.6 54.9 79.5 96.8 53.4 118.1 85.5 150.5 163.9 165.3 70.8 13.4 127 55.5 154.2 115.5 13.4 29.5 19.2 62.8 16.7 96.2-2.6 35.3-14 70.3-33.9 104C845 825 797.5 868.4 743.1 890c-24.9 9.6-50.7 14.6-76.6 14.6zM251.2 196.7c-19.5 0-38.2 12.9-45.5 31.4-44.5 112.9-23.1 195.1 2.7 244.2 29 55.1 74.3 87.7 104.1 94.5 42.6 9.8 76.6 19.8 103.8 36.8 30.2 18.9 50.7 45.3 64.4 83.2C504 751 532.9 830.8 595 858.9c92.1 41.7 196.5-2.4 259.8-110 33.8-57.4 39.5-120.3 15.7-172.7-23.1-51-71.4-86.9-132.5-98.4-48.1-9.1-80.5-25.1-108.2-53.4-25.3-25.9-47.7-63.2-77.5-129C487.5 151.9 340.7 176 280.6 193l-1.3 0.4c-1.7 0.5-4.2 1.1-7 1.6-6.8 1.2-13.7 1.7-20.8 1.7h-0.3z" fill="#3F2D26" /><path d="M528.9 315.8c54.8 120.6 68.2 177.6 177.4 197.9 97.9 18.1 154.8 66.2 153.8 225.1 57.8-120.1-6.3-240.5-132.5-263.2-85.6-15.4-116.1-60.1-168.8-168-84.6-173.3-260.5-120.1-284-112.6-9.4 3-14.8 1.8-23.8 2.3-13.1 0.7-25.5 8.8-36 16.4 16.5 14 44.4 24.6 66.5 20.3 38.6-7.5 192.6-38.7 247.4 81.8z" fill="#F7CB7F" /><path d="M585.2 546.2c-66.3-34.5-80.4-62.9-117.9-124.9-37.5-62-117.9-88-187.5-89.8-32.8-0.9-63.6-18.6-91.4-34.8-10.3 41.2-7.7 84.8-1.5 115.9 76.1 2.5 174.8 26.8 221.2 98.8 55.8 86.7 153 138.7 153 138.7C680.8 738.5 712.4 831.7 720.7 865c41.9-13.2 69.1-36.3 101.7-72.2l-1.7-9.6c-29.2-161.2-169.2-202.5-235.5-237z" fill="#E0B269" /></svg>
