<svg class="svg-icon" style="width: 1em; height: 1em;vertical-align: middle;fill: currentColor;overflow: hidden;" viewBox="0 0 1024 1024" version="1.1" xmlns="http://www.w3.org/2000/svg"><path d="M488.6 173.4s-354.8 318.2-128.2 673c0 0 116.8 176.3 274.7 13.7s116.8-457.8 48.1-592.9c0 0-45.8-93.9-45.8-135.1s-25.2-84.6-148.8 41.3z" fill="#ECD5B5" /><path d="M500.4 941c-4.5 0-9-0.2-13.5-0.6-82.9-7.7-134.3-84.1-136.5-87.3-53-83.1-79.1-171.1-77.5-261.7 1.3-72.3 20.1-146.2 55.9-219.7 59.6-122.3 144.9-200.9 151.6-206.9C547.5 96.4 594.4 69 623.8 81c16.5 6.7 25.6 24.9 25.6 51.2 0 31.5 32.2 104.4 44.6 129.8 39.1 76.9 63 188.7 62.2 291.5-0.7 91.7-20.8 220.7-112.4 315-46.9 48.2-95.1 72.5-143.4 72.5z m-3.8-758.7c-0.9 0.8-88.1 79.9-146.7 200.5C272.1 543 279 696.9 370.5 840.1c0.4 0.5 47.4 70 118.8 76.6 45.3 4.2 91.5-17.6 137.3-64.7 158-162.5 107.9-457.4 46-579.2-2-4.1-47.1-97-47.1-140.5 0-7.4-1-25.2-10.7-29.1-6.8-2.8-35.2-5.2-117.6 78.7-0.3 0.1-0.4 0.3-0.6 0.4z m-8-8.9z"  /><path d="M503.9 880.9c-3 0-6-0.1-9-0.4-64.6-5.8-104.4-72.6-106.1-75.5-39.8-70.6-59.4-145.3-58.2-222.2 0.9-61.3 15-124.1 41.9-186.5C417 292.8 480.9 226.1 486.3 220.5 537 162.1 571.9 139 595.9 148c14.5 5.4 22.5 21.6 22.5 45.7 0 26.6 24 88.2 33.3 109.7 29.3 65.2 47.2 160.1 46.6 247.3-0.5 77.8-15.6 187.4-84.5 267.6-35.6 41.6-72.5 62.6-109.9 62.6z m-0.3-643.9c-0.9 0.9-65.8 67.7-109.4 169.5-58.1 135.5-53 265.5 15.3 386.6 0.2 0.4 35.3 59 87.6 63.6 32.2 2.9 65.4-15.3 98.5-53.9 117.9-137.3 80.4-386.7 34.2-489.7-1.5-3.5-35.3-82.4-35.3-119.3 0-14.3-3.5-22-7-23.3-2-0.8-21.5-5.3-83.5 66.1-0.1 0.1-0.2 0.3-0.4 0.4z m-8.5-8.3z" fill="#D9A77B" /></svg>
