<svg fill="#000000" height="200px" width="200px" version="1.1" id="Capa_1" xmlns="http://www.w3.org/2000/svg" xmlns:xlink="http://www.w3.org/1999/xlink" viewBox="0 0 387.838 387.838" xml:space="preserve"><g id="SVGRepo_bgCarrier" stroke-width="0"></g><g id="SVGRepo_tracerCarrier" stroke-linecap="round" stroke-linejoin="round"></g><g id="SVGRepo_iconCarrier"> <path d="M188.348,242.623l-28.997-28.997c-3.124-3.124-3.124-8.189,0-11.313c3.125-3.124,8.189-3.124,11.314,0l28.997,28.997 c3.124,3.124,3.124,8.189,0,11.313c-1.563,1.562-3.609,2.343-5.657,2.343S189.91,244.185,188.348,242.623z M109.137,272.959 c22.768,7.878,52.876,12.217,84.779,12.217c31.905,0,62.016-4.339,84.783-12.217c32.579-11.273,39.418-25.793,39.418-35.989v-97.82 c0-7.464-3.814-18.455-21.986-28.427c-3.868-2.125-8.735-0.709-10.862,3.164c-2.125,3.874-0.709,8.737,3.165,10.862 c8.696,4.772,13.684,10.021,13.684,14.401c0,13.132-42.15,32.207-108.201,32.207c-66.047,0-108.195-19.075-108.195-32.207 s42.148-32.207,108.195-32.207c12.175,0,24.145,0.663,35.578,1.97c5.285,0.604,10.42,1.342,15.367,2.207l-18.726,18.725 c-3.124,3.124-3.124,8.189,0,11.313c3.125,3.125,8.189,3.125,11.314,0l29.105-29.105c0.061-0.059,0.121-0.119,0.181-0.18 l39.783-39.782c3.124-3.124,3.124-8.189,0-11.314c-3.123-3.123-8.188-3.125-11.314,0L258.472,97.51 c-8.495-1.893-17.609-3.401-27.159-4.493c-12.035-1.376-24.617-2.074-37.396-2.074c-31.904,0-62.013,4.338-84.779,12.217 c-32.578,11.273-39.416,25.793-39.416,35.99c0,10.197,6.838,24.718,39.416,35.991c22.767,7.878,52.875,12.216,84.779,12.216 c31.906,0,62.017-4.338,84.783-12.216c10.086-3.49,17.705-7.292,23.418-11.179v73.009c0,13.131-42.15,32.206-108.201,32.206 c-66.047,0-108.195-19.075-108.195-32.206v-49.211c0-4.418-3.582-8-8-8s-8,3.582-8,8v49.211 C69.721,247.166,76.559,261.686,109.137,272.959z M136.009,244.966c2.048,0,4.095-0.781,5.657-2.343 c3.124-3.124,3.124-8.189,0-11.313l-28.997-28.997c-3.125-3.124-8.189-3.124-11.314,0c-3.124,3.124-3.124,8.189,0,11.313 l28.997,28.997C131.914,244.185,133.961,244.966,136.009,244.966z M246.342,242.622c1.563,1.563,3.609,2.344,5.657,2.344 c0.002,0,0.002,0,0.004,0c2.048,0,4.096-0.781,5.657-2.344c0.05-0.049,0.098-0.099,0.146-0.149l28.851-28.847 c3.125-3.124,3.125-8.189,0.001-11.313c-3.123-3.124-8.188-3.125-11.313-0.001l-23.343,23.339l-23.343-23.339 c-3.123-3.124-8.19-3.124-11.313,0.001c-3.124,3.124-3.124,8.189,0.001,11.313l28.849,28.845 C246.243,242.522,246.292,242.573,246.342,242.622z M203.293,143.083c-4.418,0-8,3.582-8,8s3.582,8,8,8h1.33c4.418,0,8-3.582,8-8 s-3.582-8-8-8H203.293z M355.281,215.865c-3.869-2.128-8.735-0.719-10.866,3.153c-2.129,3.871-0.718,8.736,3.153,10.865 c15.65,8.61,24.27,18.266,24.27,27.189c0,26.644-73.07,56.332-177.922,56.332C89.067,313.404,16,283.716,16,257.072 c0-9.642,9.885-19.966,27.835-29.07c3.94-1.999,5.515-6.813,3.516-10.753c-1.997-3.94-6.81-5.516-10.754-3.516 C6.35,229.075,0,245.769,0,257.072c0,20.857,21.251,39.698,59.838,53.05c35.935,12.434,83.551,19.282,134.078,19.282 c50.529,0,98.148-6.848,134.083-19.282c38.588-13.352,59.839-32.192,59.839-53.05C387.838,246.444,382.189,230.668,355.281,215.865z M129.888,131.148c-4.418,0-8,3.582-8,8s3.582,8,8,8h1.33c4.418,0,8-3.582,8-8s-3.582-8-8-8H129.888z M178.18,118.26 c-4.418,0-8,3.582-8,8s3.582,8,8,8h1.33c4.418,0,8-3.582,8-8s-3.582-8-8-8H178.18z"></path> </g></svg>
