<?xml version="1.0" encoding="iso-8859-1"?>
<!-- Generator: Adobe Illustrator 16.0.0, SVG Export Plug-In . SVG Version: 6.00 Build 0)  -->
<!DOCTYPE svg PUBLIC "-//W3C//DTD SVG 1.1//EN" "http://www.w3.org/Graphics/SVG/1.1/DTD/svg11.dtd">
<svg version="1.1" id="Capa_1" xmlns="http://www.w3.org/2000/svg" xmlns:xlink="http://www.w3.org/1999/xlink" x="0px" y="0px"
	 width="486.127px" height="486.127px" viewBox="0 0 486.127 486.127" style="enable-background:new 0 0 486.127 486.127;"
	 xml:space="preserve">
<g>
	<path d="M406.215,73.544l3.706-6.8C409.921,23.398,322.166,0,243.064,0C163.98,0,76.206,23.398,76.206,66.744l3.708,8.65v331.249
		l-3.708,12.74c0,43.349,87.774,66.744,166.858,66.744c79.102,0,166.857-23.396,166.857-66.744l-3.706-11.504V73.544z
		 M383.962,384.464v34.919c0,18.585-53.615,44.496-140.898,44.496c-87.287,0-140.902-25.911-140.902-44.496v-34.919V251.766
		c2.427,0.882,5.367,1.918,8.683,3.038c3.622,34.648,59.165,60.373,132.219,60.373c72.824,0,128.232-25.557,132.181-60.047
		c0.009,0.154,0.065,0.29,0.074,0.43c2.903-1.283,5.788-2.613,8.653-4.023v132.928H383.962z M132.748,251.219
		c0-19.692,47.185-41.719,110.316-41.719c63.131,0,110.315,22.021,110.315,41.719c0,19.695-47.185,41.71-110.315,41.71
		C179.932,292.929,132.748,270.906,132.748,251.219z M243.064,111.242c-87.291,0-140.902-25.912-140.902-44.494
		s53.615-44.494,140.902-44.494c87.283,0,140.898,25.912,140.898,44.494S330.357,111.242,243.064,111.242z M192.925,263.737
		c0,8.046-6.084,15.042-19.04,15.042c-5.276,0-10.795-1.489-13.548-3.132l2.011-7.589c2.978,1.708,7.442,3.197,12.144,3.197
		c5.878,0,9.152-2.749,9.152-6.847c0-3.789-2.532-6.029-8.938-8.326c-8.263-2.986-13.543-7.379-13.543-14.599
		c0-8.174,6.844-14.439,17.732-14.439c5.423,0,9.446,1.194,12.027,2.532l-2.221,7.372c-1.783-0.976-5.276-2.38-9.979-2.38
		c-5.796,0-8.326,3.12-8.326,6.021c0,3.873,2.901,5.666,9.607,8.261C188.697,252.125,192.925,256.517,192.925,263.737z
		 M218.704,227.049c-14.141,0-23.813,10.867-23.813,26.276c0,14.738,8.933,25.524,23.069,25.524
		c13.854,0,24.038-9.601,24.038-26.426C241.998,238.135,233.382,227.049,218.704,227.049z M218.475,271.484
		c-8.774,0-13.913-8.12-13.913-18.313c0-10.342,4.837-18.752,13.913-18.752c9.175,0,13.845,8.938,13.845,18.379
		C232.325,263.298,227.345,271.484,218.475,271.484z M246.125,256.596v-28.719h9.156v29.241c0,9.829,4.093,14.365,10.268,14.365
		c6.632,0,10.558-4.546,10.558-14.365v-29.241h9.166v28.645c0,15.48-7.972,22.327-20.013,22.327
		C253.648,278.844,246.125,272.38,246.125,256.596z M301.16,259.125c1.194,0.225,2.734,0.299,4.466,0.299
		c6.474,0,12.195-1.708,15.85-5.357c2.833-2.68,4.308-6.618,4.308-11.388c0-4.682-1.932-8.627-4.905-11.084
		c-3.206-2.686-8.111-4.095-14.809-4.095c-6.197,0-10.725,0.443-14.001,1.041v49.492h9.082v-18.906H301.16z M301.16,234.929
		c0.971-0.21,2.734-0.434,5.273-0.434c6.333,0,10.202,2.978,10.202,8.557c0,5.876-4.172,9.222-11.01,9.222
		c-1.881,0-3.355-0.074-4.466-0.368V234.929z M209.792,43.25l-11.743,49.511l-4.87-0.143l11.761-49.511L209.792,43.25z
		 M266.417,44.865l-11.756,49.513l-4.877-0.145l11.742-49.501L266.417,44.865z M218.925,43.518L207.174,93.02l-2.42-0.067
		l11.761-49.506L218.925,43.518z M270.893,45l-11.766,49.501l-2.437-0.067l11.762-49.511L270.893,45z M256.281,44.578L244.52,94.082
		l-2.441-0.068l11.761-49.501L256.281,44.578z M244.295,44.239l-11.761,49.501l-2.417-0.065l11.751-49.503L244.295,44.239z
		 M229.898,43.824l-11.761,49.51l-4.875-0.142l11.761-49.501L229.898,43.824z M251.203,44.436l-11.751,49.501l-4.884-0.143
		l11.754-49.497L251.203,44.436z M233.96,43.943l-11.764,49.501l-2.427-0.065l11.761-49.513L233.96,43.943z M277.385,45.18
		l-11.742,49.499l-2.455-0.058L274.94,45.11L277.385,45.18z M288.334,45.493l-11.752,49.506l-4.877-0.138l11.761-49.504
		L288.334,45.493z M289.958,45.539l2.44,0.068l-11.766,49.511l-2.436-0.068L289.958,45.539z"/>
</g>
<g>
</g>
<g>
</g>
<g>
</g>
<g>
</g>
<g>
</g>
<g>
</g>
<g>
</g>
<g>
</g>
<g>
</g>
<g>
</g>
<g>
</g>
<g>
</g>
<g>
</g>
<g>
</g>
<g>
</g>
</svg>
