<?xml version="1.0" encoding="utf-8"?>
<!-- Generator: Adobe Illustrator 24.3.0, SVG Export Plug-In . SVG Version: 6.00 Build 0)  -->
<svg version="1.1" id="Layer_1_xA0_Image_1_" xmlns="http://www.w3.org/2000/svg" xmlns:xlink="http://www.w3.org/1999/xlink"
	 x="0px" y="0px" viewBox="0 0 2281 2280" style="enable-background:new 0 0 2281 2280;" xml:space="preserve">
<g>
	<path class="st0" d="M91.22,1009.13c239.21-1.95,456.45,63.47,650.31,202.06c193.97,138.66,327.17,322.73,403.17,548.61
		c75.49-224.39,207.62-407.73,399.96-546.29c192.13-138.41,407.66-204.67,645.1-204.5c-40.4,149.22-108.1,283.7-205.7,402.35
		c-170.68,207.51-388.11,338.48-653.03,384.68c-285.76,49.83-552.3-5.07-793.84-166.41C312.15,1479.29,165.55,1270.48,91.22,1009.13
		z"/>
	<path class="st0" d="M761.98,933.64c0.78-29.3,3.36-54.54,7.48-79.67c11.16-68.11,30.69-133.88,54.86-198.37
		c22.29-59.47,48.84-116.95,80.72-171.92c19.63-33.84,41.19-66.41,66.13-96.59c24.37-29.5,51.08-56.59,83.58-77.35
		c20.12-12.85,41.62-22.49,65.32-26.31c27.16-4.38,53.2,0.08,78.27,11.05c24.81,10.86,46.52,26.36,66.46,44.45
		c49.18,44.65,85.98,98.78,118.25,156.17c48.98,87.11,85.79,179.28,111.1,275.89c8.11,30.96,14.28,62.52,19.64,94.09
		c3.45,20.28,4.52,41.05,5.38,61.66c1.48,35.52-9.14,68.17-25.86,99.07c-14.14,26.13-31.9,49.66-51.79,71.67
		c-37.34,41.31-80,76.47-125.25,108.68c-52.69,37.51-108.16,70.38-165.65,99.96c-6.93,3.57-12.26,3.77-19.38,0.13
		c-65.31-33.41-127.83-71.3-186.68-115.13c-24.86-18.52-48.66-38.36-71.25-59.66c-28.94-27.29-55.21-56.77-76.31-90.59
		c-15.9-25.49-27.76-52.68-32.64-82.51C762.83,948.96,762.51,939.36,761.98,933.64z"/>
</g>
</svg>
