<?xml version="1.0" encoding="UTF-8"?>
<svg version="1.1" xmlns="http://www.w3.org/2000/svg" width="800" height="800">
<path d="M0 0 C17.78311681 -0.24741066 35.30722232 -0.00947498 53 2 C54.66119873 2.1853833 54.66119873 2.1853833 56.35595703 2.37451172 C84.65638 5.6394885 111.9906849 11.9518372 139 21 C140.54929199 21.51385254 140.54929199 21.51385254 142.12988281 22.03808594 C158.6285542 27.5651151 174.38093115 34.34626676 190 42 C191.48113281 42.72509766 191.48113281 42.72509766 192.9921875 43.46484375 C214.90229187 54.30241548 235.52665912 67.23564971 255 82 C255.64678711 82.48984375 256.29357422 82.9796875 256.95996094 83.484375 C263.8243835 88.71441124 270.43593867 94.1291181 276.79296875 99.97265625 C278.72829285 101.75041414 280.69403016 103.47576252 282.6875 105.1875 C293.25974348 114.43554329 303.32272291 124.06534183 312.68603516 134.53759766 C313.89621173 135.88448685 315.12501988 137.2145737 316.35546875 138.54296875 C322.65277453 145.37526688 328.37645542 152.61332134 334 160 C334.54849609 160.71865234 335.09699219 161.43730469 335.66210938 162.17773438 C362.12341999 197.01098508 382.70924071 235.68273216 397.20532227 276.9465332 C397.82557427 278.96032301 397.82557427 278.96032301 399 280 C399.24008789 279.31824707 399.48017578 278.63649414 399.72753906 277.93408203 C417.79549164 227.00217245 444.13915354 180.53267434 480 140 C480.76828125 139.13117188 481.5365625 138.26234375 482.328125 137.3671875 C484.53642284 134.89675359 486.76533739 132.44660232 489 130 C489.98052745 128.9141155 490.96099246 127.82817462 491.94140625 126.7421875 C496.68804594 121.5104952 501.39159249 116.4022318 506.8203125 111.86328125 C509.15119313 109.87075426 511.38681174 107.79693396 513.62548828 105.70214844 C583.62348803 40.26262913 682.51207446 0.17589569 794 0 C792.62879171 8.21544933 790.26248315 15.98513702 787.625 23.875 C787.30036774 24.84726532 787.30036774 24.84726532 786.96917725 25.83917236 C770.33153833 75.37474994 743.9829798 124.26670337 708.16015625 162.6640625 C706.3046813 164.67052546 704.50366881 166.70737502 702.7109375 168.76953125 C699.07188071 172.94093173 695.34091451 177.01728156 691.5625 181.0625 C690.94568359 181.73087891 690.32886719 182.39925781 689.69335938 183.08789062 C685.94883536 187.09737576 682.06087046 190.79403122 677.89526367 194.36303711 C675.6653175 196.28906945 673.52711654 198.29733236 671.38745117 200.32226562 C664.27671082 207.03471269 656.78067853 213.08774848 649 219 C648.3615918 219.49000488 647.72318359 219.98000977 647.06542969 220.48486328 C573.68906232 276.79317085 482.90488265 306.41286677 341.53369141 301.56201172 C250.43670768 289.2567647 168.68780499 246.37502809 103.84906006 182.02429199 C102.84183768 181.02511139 101.83313969 180.02741559 100.82281494 179.03137207 C94.07770992 172.37153413 87.91862218 165.41342012 82 158 C81.06508802 156.89828422 80.1237489 155.80193811 79.171875 154.71484375 C62.27006611 135.33228549 48.46189952 113.43485216 36 91 C35.51917969 90.13697266 35.03835937 89.27394531 34.54296875 88.38476562 C19.59339634 61.30592272 6.09310464 30.53104043 0 0 Z " fill="#78C508" transform="translate(4,385)"/>
<path d="M0 0 C21.71013231 16.24091768 37.94930623 38.25917711 51.5 61.5234375 C51.8623877 62.14138184 52.22477539 62.75932617 52.59814453 63.39599609 C81.21508507 112.4933326 118.86606099 191.53040039 104.47680664 250.1550293 C96.34401346 279.7088071 71.21175396 305.39469462 47.5 323.5234375 C46.29726813 324.4767189 45.09551781 325.43123946 43.89453125 326.38671875 C21.43292111 344.08741422 -2.97407087 358.91880183 -28.20751953 372.28808594 C-30.09421287 373.30477053 -31.94208817 374.39315933 -33.77734375 375.5 C-36.5 376.5234375 -36.5 376.5234375 -39.3359375 375.984375 C-43.32694846 374.14161191 -47.24362634 372.21223734 -51.125 370.1484375 C-51.95185303 369.70999512 -52.77870605 369.27155273 -53.63061523 368.81982422 C-78.56976483 355.44471658 -102.86896011 339.81285468 -124.5 321.5234375 C-125.60006768 320.6104448 -126.70033775 319.69769593 -127.80078125 318.78515625 C-152.97131036 297.75258721 -178.26928423 270.76902463 -181.5 236.5234375 C-182.81620765 190.50136143 -165.35005607 141.87967105 -146.5 100.5234375 C-145.77079346 98.92266357 -145.77079346 98.92266357 -145.02685547 97.28955078 C-132.59088417 70.23493526 -117.72443293 44.92824707 -98.375 22.2109375 C-97.65691162 21.36680298 -97.65691162 21.36680298 -96.92431641 20.50561523 C-71.14560054 -9.33810441 -35.27722879 -25.44555079 0 0 Z " fill="#77C508" transform="translate(438.5,123.4765625)"/>
</svg>
